solid baffle3
facet normal 0.000000 0.000000 -1.000000
outer loop
vertex 0.490000 -0.213500 -0.000000
vertex 0.490000 -0.123500 -0.000000
vertex 0.505000 -0.213500 -0.000000
endloop
endfacet
facet normal 0.000000 0.000000 -1.000000
outer loop
vertex 0.505000 -0.213500 -0.000000
vertex 0.490000 -0.123500 -0.000000
vertex 0.505000 -0.123500 -0.000000
endloop
endfacet
facet normal 0.000000 0.000000 -1.000000
outer loop
vertex 0.490000 -0.063500 -0.000000
vertex 0.490000 0.000000 0.000000
vertex 0.505000 -0.063500 -0.000000
endloop
endfacet
facet normal 0.000000 0.000000 -1.000000
outer loop
vertex 0.505000 -0.063500 -0.000000
vertex 0.490000 0.000000 0.000000
vertex 0.505000 0.000000 0.000000
endloop
endfacet
facet normal 0.000000 0.000000 -1.000000
outer loop
vertex 0.490000 -0.663500 -0.000000
vertex 0.490000 -0.573500 -0.000000
vertex 0.505000 -0.663500 -0.000000
endloop
endfacet
facet normal 0.000000 0.000000 -1.000000
outer loop
vertex 0.505000 -0.663500 -0.000000
vertex 0.490000 -0.573500 -0.000000
vertex 0.505000 -0.573500 -0.000000
endloop
endfacet
facet normal 0.000000 0.000000 -1.000000
outer loop
vertex 0.490000 -0.513500 -0.000000
vertex 0.490000 -0.423500 -0.000000
vertex 0.505000 -0.513500 -0.000000
endloop
endfacet
facet normal 0.000000 0.000000 -1.000000
outer loop
vertex 0.505000 -0.513500 -0.000000
vertex 0.490000 -0.423500 -0.000000
vertex 0.505000 -0.423500 -0.000000
endloop
endfacet
facet normal 0.000000 0.000000 -1.000000
outer loop
vertex 0.505000 -0.273500 -0.000000
vertex 0.505000 -0.363500 -0.000000
vertex 0.490000 -0.273500 -0.000000
endloop
endfacet
facet normal 0.000000 0.000000 -1.000000
outer loop
vertex 0.490000 -0.273500 -0.000000
vertex 0.505000 -0.363500 -0.000000
vertex 0.490000 -0.363500 -0.000000
endloop
endfacet
facet normal 0.000000 -1.000000 0.000000
outer loop
vertex 0.505000 -0.787000 -0.000000
vertex 0.505000 -0.787000 0.065000
vertex 0.490000 -0.787000 -0.000000
endloop
endfacet
facet normal 0.000000 -1.000000 0.000000
outer loop
vertex 0.490000 -0.787000 -0.000000
vertex 0.505000 -0.787000 0.065000
vertex 0.490000 -0.787000 0.065000
endloop
endfacet
facet normal 0.000000 0.000000 -1.000000
outer loop
vertex 0.505000 -0.723500 -0.000000
vertex 0.505000 -0.787000 -0.000000
vertex 0.490000 -0.723500 -0.000000
endloop
endfacet
facet normal 0.000000 0.000000 -1.000000
outer loop
vertex 0.490000 -0.723500 -0.000000
vertex 0.505000 -0.787000 -0.000000
vertex 0.490000 -0.787000 -0.000000
endloop
endfacet
facet normal 0.000000 1.000000 0.000000
outer loop
vertex 0.505000 -0.000000 0.065000
vertex 0.505000 0.000000 0.000000
vertex 0.490000 -0.000000 0.065000
endloop
endfacet
facet normal 0.000000 1.000000 0.000000
outer loop
vertex 0.490000 -0.000000 0.065000
vertex 0.505000 0.000000 0.000000
vertex 0.490000 0.000000 0.000000
endloop
endfacet
facet normal 0.000000 -0.000000 1.000000
outer loop
vertex 0.505000 -0.787000 0.065000
vertex 0.505000 -0.000000 0.065000
vertex 0.490000 -0.787000 0.065000
endloop
endfacet
facet normal 0.000000 -0.000000 1.000000
outer loop
vertex 0.490000 -0.787000 0.065000
vertex 0.505000 -0.000000 0.065000
vertex 0.490000 -0.000000 0.065000
endloop
endfacet
facet normal 1.000000 -0.000011 0.000000
outer loop
vertex 0.505000 -0.403761 0.028191
vertex 0.505000 -0.398709 0.029544
vertex 0.505000 -0.517519 0.015000
endloop
endfacet
facet normal 1.000000 0.000000 0.000000
outer loop
vertex 0.505000 -0.670519 0.019284
vertex 0.505000 -0.667519 0.015000
vertex 0.505000 -0.566481 0.019284
endloop
endfacet
facet normal 1.000000 0.000004 0.000000
outer loop
vertex 0.505000 -0.383239 0.028191
vertex 0.505000 -0.378500 0.025981
vertex 0.505000 -0.000000 0.065000
endloop
endfacet
facet normal 1.000000 0.000000 0.000000
outer loop
vertex 0.505000 -0.378500 0.025981
vertex 0.505000 -0.374216 0.022981
vertex 0.505000 -0.000000 0.065000
endloop
endfacet
facet normal 1.000000 0.000001 0.000000
outer loop
vertex 0.505000 -0.000000 0.065000
vertex 0.505000 -0.374216 0.022981
vertex 0.505000 -0.370519 0.019284
endloop
endfacet
facet normal 1.000000 -0.000001 0.000000
outer loop
vertex 0.505000 -0.000000 0.065000
vertex 0.505000 -0.370519 0.019284
vertex 0.505000 -0.367519 0.015000
endloop
endfacet
facet normal 1.000000 0.000008 0.000000
outer loop
vertex 0.505000 -0.688291 0.029544
vertex 0.505000 -0.683239 0.028191
vertex 0.505000 -0.566481 0.019284
endloop
endfacet
facet normal 1.000000 -0.000005 0.000000
outer loop
vertex 0.505000 -0.558500 0.025981
vertex 0.505000 -0.553761 0.028191
vertex 0.505000 -0.787000 0.065000
endloop
endfacet
facet normal 1.000000 -0.000001 0.000000
outer loop
vertex 0.505000 -0.363500 -0.000000
vertex 0.505000 -0.273500 -0.000000
vertex 0.505000 -0.363956 0.005209
endloop
endfacet
facet normal 1.000000 0.000000 0.000000
outer loop
vertex 0.505000 -0.363956 0.005209
vertex 0.505000 -0.273500 -0.000000
vertex 0.505000 -0.273044 0.005209
endloop
endfacet
facet normal 1.000000 0.000000 0.000000
outer loop
vertex 0.505000 -0.363956 0.005209
vertex 0.505000 -0.273044 0.005209
vertex 0.505000 -0.365309 0.010261
endloop
endfacet
facet normal 1.000000 0.000000 0.000000
outer loop
vertex 0.505000 -0.365309 0.010261
vertex 0.505000 -0.273044 0.005209
vertex 0.505000 -0.271691 0.010261
endloop
endfacet
facet normal 1.000000 0.000000 0.000000
outer loop
vertex 0.505000 -0.365309 0.010261
vertex 0.505000 -0.271691 0.010261
vertex 0.505000 -0.367519 0.015000
endloop
endfacet
facet normal 1.000000 0.000000 0.000000
outer loop
vertex 0.505000 -0.367519 0.015000
vertex 0.505000 -0.271691 0.010261
vertex 0.505000 -0.269481 0.015000
endloop
endfacet
facet normal 1.000000 0.000000 0.000000
outer loop
vertex 0.505000 -0.716481 0.019284
vertex 0.505000 -0.787000 0.065000
vertex 0.505000 -0.719481 0.015000
endloop
endfacet
facet normal 1.000000 0.000000 0.000000
outer loop
vertex 0.505000 -0.719481 0.015000
vertex 0.505000 -0.787000 0.065000
vertex 0.505000 -0.721691 0.010261
endloop
endfacet
facet normal 1.000000 0.000000 0.000000
outer loop
vertex 0.505000 -0.716481 0.019284
vertex 0.505000 -0.712784 0.022981
vertex 0.505000 -0.787000 0.065000
endloop
endfacet
facet normal 1.000000 0.000000 0.000000
outer loop
vertex 0.505000 -0.787000 0.065000
vertex 0.505000 -0.712784 0.022981
vertex 0.505000 -0.708500 0.025981
endloop
endfacet
facet normal 1.000000 -0.000005 0.000000
outer loop
vertex 0.505000 -0.787000 0.065000
vertex 0.505000 -0.708500 0.025981
vertex 0.505000 -0.703761 0.028191
endloop
endfacet
facet normal 1.000000 0.000012 0.000000
outer loop
vertex 0.505000 -0.703761 0.028191
vertex 0.505000 -0.698709 0.029544
vertex 0.505000 -0.787000 0.065000
endloop
endfacet
facet normal 1.000000 0.000001 0.000000
outer loop
vertex 0.505000 -0.787000 0.065000
vertex 0.505000 -0.698709 0.029544
vertex 0.505000 -0.693500 0.030000
endloop
endfacet
facet normal 1.000000 -0.000001 0.000000
outer loop
vertex 0.505000 -0.787000 0.065000
vertex 0.505000 -0.693500 0.030000
vertex 0.505000 -0.688291 0.029544
endloop
endfacet
facet normal 1.000000 0.000000 0.000000
outer loop
vertex 0.505000 -0.683239 0.028191
vertex 0.505000 -0.678500 0.025981
vertex 0.505000 -0.566481 0.019284
endloop
endfacet
facet normal 1.000000 -0.000001 0.000000
outer loop
vertex 0.505000 -0.566481 0.019284
vertex 0.505000 -0.678500 0.025981
vertex 0.505000 -0.674216 0.022981
endloop
endfacet
facet normal 1.000000 0.000000 0.000000
outer loop
vertex 0.505000 -0.566481 0.019284
vertex 0.505000 -0.674216 0.022981
vertex 0.505000 -0.670519 0.019284
endloop
endfacet
facet normal 1.000000 0.000000 0.000000
outer loop
vertex 0.505000 -0.667519 0.015000
vertex 0.505000 -0.665309 0.010261
vertex 0.505000 -0.566481 0.019284
endloop
endfacet
facet normal 1.000000 0.000001 0.000000
outer loop
vertex 0.505000 -0.566481 0.019284
vertex 0.505000 -0.665309 0.010261
vertex 0.505000 -0.663956 0.005209
endloop
endfacet
facet normal 1.000000 0.000000 0.000000
outer loop
vertex 0.505000 -0.566481 0.019284
vertex 0.505000 -0.663956 0.005209
vertex 0.505000 -0.569481 0.015000
endloop
endfacet
facet normal 1.000000 -0.000001 0.000000
outer loop
vertex 0.505000 -0.569481 0.015000
vertex 0.505000 -0.663956 0.005209
vertex 0.505000 -0.571691 0.010261
endloop
endfacet
facet normal 1.000000 0.000000 0.000000
outer loop
vertex 0.505000 -0.721691 0.010261
vertex 0.505000 -0.787000 0.065000
vertex 0.505000 -0.723044 0.005209
endloop
endfacet
facet normal 1.000000 0.000000 0.000000
outer loop
vertex 0.505000 -0.723044 0.005209
vertex 0.505000 -0.787000 0.065000
vertex 0.505000 -0.787000 -0.000000
endloop
endfacet
facet normal 1.000000 -0.000000 0.000000
outer loop
vertex 0.505000 -0.723044 0.005209
vertex 0.505000 -0.787000 -0.000000
vertex 0.505000 -0.723500 -0.000000
endloop
endfacet
facet normal 1.000000 -0.000001 0.000000
outer loop
vertex 0.505000 -0.663500 -0.000000
vertex 0.505000 -0.573500 -0.000000
vertex 0.505000 -0.663956 0.005209
endloop
endfacet
facet normal 1.000000 0.000000 0.000000
outer loop
vertex 0.505000 -0.663956 0.005209
vertex 0.505000 -0.573500 -0.000000
vertex 0.505000 -0.573044 0.005209
endloop
endfacet
facet normal 1.000000 0.000000 0.000000
outer loop
vertex 0.505000 -0.663956 0.005209
vertex 0.505000 -0.573044 0.005209
vertex 0.505000 -0.571691 0.010261
endloop
endfacet
facet normal 1.000000 0.000000 0.000000
outer loop
vertex 0.505000 -0.688291 0.029544
vertex 0.505000 -0.566481 0.019284
vertex 0.505000 -0.787000 0.065000
endloop
endfacet
facet normal 1.000000 -0.000002 0.000000
outer loop
vertex 0.505000 -0.787000 0.065000
vertex 0.505000 -0.566481 0.019284
vertex 0.505000 -0.562784 0.022981
endloop
endfacet
facet normal 1.000000 0.000000 0.000000
outer loop
vertex 0.505000 -0.787000 0.065000
vertex 0.505000 -0.562784 0.022981
vertex 0.505000 -0.558500 0.025981
endloop
endfacet
facet normal 1.000000 0.000000 0.000000
outer loop
vertex 0.505000 -0.553761 0.028191
vertex 0.505000 -0.548709 0.029544
vertex 0.505000 -0.787000 0.065000
endloop
endfacet
facet normal 1.000000 0.000013 0.000000
outer loop
vertex 0.505000 -0.787000 0.065000
vertex 0.505000 -0.548709 0.029544
vertex 0.505000 -0.543500 0.030000
endloop
endfacet
facet normal 1.000000 0.000000 0.000000
outer loop
vertex 0.505000 -0.787000 0.065000
vertex 0.505000 -0.543500 0.030000
vertex 0.505000 -0.000000 0.065000
endloop
endfacet
facet normal 1.000000 -0.000009 0.000000
outer loop
vertex 0.505000 -0.000000 0.065000
vertex 0.505000 -0.543500 0.030000
vertex 0.505000 -0.538291 0.029544
endloop
endfacet
facet normal 1.000000 -0.000001 0.000000
outer loop
vertex 0.505000 -0.000000 0.065000
vertex 0.505000 -0.538291 0.029544
vertex 0.505000 -0.533239 0.028191
endloop
endfacet
facet normal 1.000000 0.000003 0.000000
outer loop
vertex 0.505000 -0.533239 0.028191
vertex 0.505000 -0.528500 0.025981
vertex 0.505000 -0.000000 0.065000
endloop
endfacet
facet normal 1.000000 0.000000 0.000000
outer loop
vertex 0.505000 -0.000000 0.065000
vertex 0.505000 -0.528500 0.025981
vertex 0.505000 -0.524216 0.022981
endloop
endfacet
facet normal 1.000000 -0.000001 0.000000
outer loop
vertex 0.505000 -0.000000 0.065000
vertex 0.505000 -0.524216 0.022981
vertex 0.505000 -0.520519 0.019284
endloop
endfacet
facet normal 1.000000 -0.000001 0.000000
outer loop
vertex 0.505000 -0.423044 0.005209
vertex 0.505000 -0.421691 0.010261
vertex 0.505000 -0.517519 0.015000
endloop
endfacet
facet normal 1.000000 0.000000 0.000000
outer loop
vertex 0.505000 -0.517519 0.015000
vertex 0.505000 -0.421691 0.010261
vertex 0.505000 -0.419481 0.015000
endloop
endfacet
facet normal 1.000000 0.000000 0.000000
outer loop
vertex 0.505000 -0.517519 0.015000
vertex 0.505000 -0.419481 0.015000
vertex 0.505000 -0.416481 0.019284
endloop
endfacet
facet normal 1.000000 0.000000 0.000000
outer loop
vertex 0.505000 -0.233239 0.028191
vertex 0.505000 -0.228500 0.025981
vertex 0.505000 -0.116481 0.019284
endloop
endfacet
facet normal 1.000000 -0.000001 0.000000
outer loop
vertex 0.505000 -0.116481 0.019284
vertex 0.505000 -0.228500 0.025981
vertex 0.505000 -0.224216 0.022981
endloop
endfacet
facet normal 1.000000 0.000000 0.000000
outer loop
vertex 0.505000 -0.116481 0.019284
vertex 0.505000 -0.224216 0.022981
vertex 0.505000 -0.220519 0.019284
endloop
endfacet
facet normal 1.000000 0.000000 0.000000
outer loop
vertex 0.505000 -0.217519 0.015000
vertex 0.505000 -0.121691 0.010261
vertex 0.505000 -0.220519 0.019284
endloop
endfacet
facet normal 1.000000 0.000000 0.000000
outer loop
vertex 0.505000 -0.220519 0.019284
vertex 0.505000 -0.121691 0.010261
vertex 0.505000 -0.119481 0.015000
endloop
endfacet
facet normal 1.000000 0.000000 0.000000
outer loop
vertex 0.505000 -0.220519 0.019284
vertex 0.505000 -0.119481 0.015000
vertex 0.505000 -0.116481 0.019284
endloop
endfacet
facet normal 1.000000 0.000010 0.000000
outer loop
vertex 0.505000 -0.083239 0.028191
vertex 0.505000 -0.078500 0.025981
vertex 0.505000 -0.000000 0.065000
endloop
endfacet
facet normal 1.000000 -0.000009 0.000000
outer loop
vertex 0.505000 -0.000000 0.065000
vertex 0.505000 -0.078500 0.025981
vertex 0.505000 -0.074216 0.022981
endloop
endfacet
facet normal 1.000000 0.000004 0.000000
outer loop
vertex 0.505000 -0.000000 0.065000
vertex 0.505000 -0.074216 0.022981
vertex 0.505000 -0.070519 0.019284
endloop
endfacet
facet normal 1.000000 -0.000008 0.000000
outer loop
vertex 0.505000 -0.070519 0.019284
vertex 0.505000 -0.067519 0.015000
vertex 0.505000 -0.000000 0.065000
endloop
endfacet
facet normal 1.000000 0.000004 0.000000
outer loop
vertex 0.505000 -0.000000 0.065000
vertex 0.505000 -0.067519 0.015000
vertex 0.505000 -0.065309 0.010261
endloop
endfacet
facet normal 1.000000 0.000001 0.000000
outer loop
vertex 0.505000 -0.000000 0.065000
vertex 0.505000 -0.065309 0.010261
vertex 0.505000 0.000000 0.000000
endloop
endfacet
facet normal 1.000000 0.000001 0.000000
outer loop
vertex 0.505000 0.000000 0.000000
vertex 0.505000 -0.065309 0.010261
vertex 0.505000 -0.063956 0.005209
endloop
endfacet
facet normal 1.000000 0.000000 0.000000
outer loop
vertex 0.505000 0.000000 0.000000
vertex 0.505000 -0.063956 0.005209
vertex 0.505000 -0.063500 -0.000000
endloop
endfacet
facet normal 1.000000 -0.000001 0.000000
outer loop
vertex 0.505000 -0.213956 0.005209
vertex 0.505000 -0.213500 -0.000000
vertex 0.505000 -0.123500 -0.000000
endloop
endfacet
facet normal 1.000000 0.000000 0.000000
outer loop
vertex 0.505000 -0.517519 0.015000
vertex 0.505000 -0.398709 0.029544
vertex 0.505000 -0.520519 0.019284
endloop
endfacet
facet normal 1.000000 0.000099 0.000000
outer loop
vertex 0.505000 -0.520519 0.019284
vertex 0.505000 -0.398709 0.029544
vertex 0.505000 -0.393500 0.030000
endloop
endfacet
facet normal 1.000000 0.000016 0.000000
outer loop
vertex 0.505000 -0.520519 0.019284
vertex 0.505000 -0.393500 0.030000
vertex 0.505000 -0.000000 0.065000
endloop
endfacet
facet normal 1.000000 -0.000011 0.000000
outer loop
vertex 0.505000 -0.000000 0.065000
vertex 0.505000 -0.393500 0.030000
vertex 0.505000 -0.388290 0.029544
endloop
endfacet
facet normal 1.000000 -0.000002 0.000000
outer loop
vertex 0.505000 -0.000000 0.065000
vertex 0.505000 -0.388290 0.029544
vertex 0.505000 -0.383239 0.028191
endloop
endfacet
facet normal 1.000000 -0.000001 0.000000
outer loop
vertex 0.505000 -0.513500 -0.000000
vertex 0.505000 -0.423500 -0.000000
vertex 0.505000 -0.513956 0.005209
endloop
endfacet
facet normal 1.000000 0.000000 0.000000
outer loop
vertex 0.505000 -0.513956 0.005209
vertex 0.505000 -0.423500 -0.000000
vertex 0.505000 -0.423044 0.005209
endloop
endfacet
facet normal 1.000000 0.000000 0.000000
outer loop
vertex 0.505000 -0.513956 0.005209
vertex 0.505000 -0.423044 0.005209
vertex 0.505000 -0.515309 0.010261
endloop
endfacet
facet normal 1.000000 0.000000 0.000000
outer loop
vertex 0.505000 -0.515309 0.010261
vertex 0.505000 -0.423044 0.005209
vertex 0.505000 -0.517519 0.015000
endloop
endfacet
facet normal 1.000000 0.000000 0.000000
outer loop
vertex 0.505000 -0.416481 0.019284
vertex 0.505000 -0.412784 0.022981
vertex 0.505000 -0.517519 0.015000
endloop
endfacet
facet normal 1.000000 0.000000 0.000000
outer loop
vertex 0.505000 -0.517519 0.015000
vertex 0.505000 -0.412784 0.022981
vertex 0.505000 -0.408500 0.025981
endloop
endfacet
facet normal 1.000000 0.000000 0.000000
outer loop
vertex 0.505000 -0.517519 0.015000
vertex 0.505000 -0.408500 0.025981
vertex 0.505000 -0.403761 0.028191
endloop
endfacet
facet normal 1.000000 -0.000000 0.000000
outer loop
vertex 0.505000 -0.217519 0.015000
vertex 0.505000 -0.215309 0.010261
vertex 0.505000 -0.121691 0.010261
endloop
endfacet
facet normal 1.000000 0.000000 0.000000
outer loop
vertex 0.505000 -0.121691 0.010261
vertex 0.505000 -0.215309 0.010261
vertex 0.505000 -0.213956 0.005209
endloop
endfacet
facet normal 1.000000 -0.000000 0.000000
outer loop
vertex 0.505000 -0.121691 0.010261
vertex 0.505000 -0.213956 0.005209
vertex 0.505000 -0.123044 0.005209
endloop
endfacet
facet normal 1.000000 0.000000 0.000000
outer loop
vertex 0.505000 -0.123044 0.005209
vertex 0.505000 -0.213956 0.005209
vertex 0.505000 -0.123500 -0.000000
endloop
endfacet
facet normal 1.000000 0.000000 0.000000
outer loop
vertex 0.505000 -0.269481 0.015000
vertex 0.505000 -0.266481 0.019284
vertex 0.505000 -0.367519 0.015000
endloop
endfacet
facet normal 1.000000 0.000001 0.000000
outer loop
vertex 0.505000 -0.367519 0.015000
vertex 0.505000 -0.266481 0.019284
vertex 0.505000 -0.262784 0.022981
endloop
endfacet
facet normal 1.000000 0.000000 0.000000
outer loop
vertex 0.505000 -0.367519 0.015000
vertex 0.505000 -0.262784 0.022981
vertex 0.505000 -0.258500 0.025981
endloop
endfacet
facet normal 1.000000 0.000027 0.000000
outer loop
vertex 0.505000 -0.098709 0.029544
vertex 0.505000 -0.093500 0.030000
vertex 0.505000 -0.000000 0.065000
endloop
endfacet
facet normal 1.000000 -0.000017 0.000000
outer loop
vertex 0.505000 -0.000000 0.065000
vertex 0.505000 -0.093500 0.030000
vertex 0.505000 -0.088291 0.029544
endloop
endfacet
facet normal 1.000000 0.000008 0.000000
outer loop
vertex 0.505000 -0.000000 0.065000
vertex 0.505000 -0.088291 0.029544
vertex 0.505000 -0.083239 0.028191
endloop
endfacet
facet normal 1.000000 0.000000 0.000000
outer loop
vertex 0.505000 -0.233239 0.028191
vertex 0.505000 -0.116481 0.019284
vertex 0.505000 -0.238291 0.029544
endloop
endfacet
facet normal 1.000000 -0.000000 0.000000
outer loop
vertex 0.505000 -0.238291 0.029544
vertex 0.505000 -0.116481 0.019284
vertex 0.505000 -0.112784 0.022981
endloop
endfacet
facet normal 1.000000 0.000000 0.000000
outer loop
vertex 0.505000 -0.238291 0.029544
vertex 0.505000 -0.112784 0.022981
vertex 0.505000 -0.243500 0.030000
endloop
endfacet
facet normal 1.000000 0.000001 0.000000
outer loop
vertex 0.505000 -0.243500 0.030000
vertex 0.505000 -0.112784 0.022981
vertex 0.505000 -0.108500 0.025981
endloop
endfacet
facet normal 1.000000 -0.000001 0.000000
outer loop
vertex 0.505000 -0.243500 0.030000
vertex 0.505000 -0.108500 0.025981
vertex 0.505000 -0.103761 0.028191
endloop
endfacet
facet normal 1.000000 -0.000000 0.000000
outer loop
vertex 0.505000 -0.103761 0.028191
vertex 0.505000 -0.098709 0.029544
vertex 0.505000 -0.243500 0.030000
endloop
endfacet
facet normal 1.000000 -0.000001 0.000000
outer loop
vertex 0.505000 -0.243500 0.030000
vertex 0.505000 -0.098709 0.029544
vertex 0.505000 -0.000000 0.065000
endloop
endfacet
facet normal 1.000000 0.000052 0.000000
outer loop
vertex 0.505000 -0.243500 0.030000
vertex 0.505000 -0.000000 0.065000
vertex 0.505000 -0.248709 0.029544
endloop
endfacet
facet normal 1.000000 0.000000 0.000000
outer loop
vertex 0.505000 -0.248709 0.029544
vertex 0.505000 -0.000000 0.065000
vertex 0.505000 -0.367519 0.015000
endloop
endfacet
facet normal 1.000000 -0.000011 0.000000
outer loop
vertex 0.505000 -0.248709 0.029544
vertex 0.505000 -0.367519 0.015000
vertex 0.505000 -0.253761 0.028191
endloop
endfacet
facet normal 1.000000 0.000000 0.000000
outer loop
vertex 0.505000 -0.253761 0.028191
vertex 0.505000 -0.367519 0.015000
vertex 0.505000 -0.258500 0.025981
endloop
endfacet
facet normal -1.000000 -0.000002 0.000000
outer loop
vertex 0.490000 -0.217519 0.015000
vertex 0.490000 -0.220519 0.019284
vertex 0.490000 -0.121691 0.010261
endloop
endfacet
facet normal -1.000000 0.000000 0.000000
outer loop
vertex 0.490000 -0.258500 0.025981
vertex 0.490000 -0.262784 0.022981
vertex 0.490000 -0.363956 0.005209
endloop
endfacet
facet normal -1.000000 -0.000002 0.000000
outer loop
vertex 0.490000 -0.363956 0.005209
vertex 0.490000 -0.262784 0.022981
vertex 0.490000 -0.266481 0.019284
endloop
endfacet
facet normal -1.000000 0.000002 0.000000
outer loop
vertex 0.490000 -0.363956 0.005209
vertex 0.490000 -0.266481 0.019284
vertex 0.490000 -0.269481 0.015000
endloop
endfacet
facet normal -1.000000 0.000000 0.000000
outer loop
vertex 0.490000 -0.121691 0.010261
vertex 0.490000 -0.220519 0.019284
vertex 0.490000 -0.119481 0.015000
endloop
endfacet
facet normal -1.000000 0.000002 0.000000
outer loop
vertex 0.490000 -0.000000 0.065000
vertex 0.490000 -0.367519 0.015000
vertex 0.490000 -0.370519 0.019284
endloop
endfacet
facet normal -1.000000 0.000009 0.000000
outer loop
vertex 0.490000 -0.712784 0.022981
vertex 0.490000 -0.716481 0.019284
vertex 0.490000 -0.787000 0.065000
endloop
endfacet
facet normal -1.000000 0.000000 0.000000
outer loop
vertex 0.490000 -0.273500 -0.000000
vertex 0.490000 -0.363500 -0.000000
vertex 0.490000 -0.273044 0.005209
endloop
endfacet
facet normal -1.000000 0.000000 0.000000
outer loop
vertex 0.490000 -0.273044 0.005209
vertex 0.490000 -0.363500 -0.000000
vertex 0.490000 -0.363956 0.005209
endloop
endfacet
facet normal -1.000000 0.000000 0.000000
outer loop
vertex 0.490000 -0.273044 0.005209
vertex 0.490000 -0.363956 0.005209
vertex 0.490000 -0.271691 0.010261
endloop
endfacet
facet normal -1.000000 -0.000002 0.000000
outer loop
vertex 0.490000 -0.271691 0.010261
vertex 0.490000 -0.363956 0.005209
vertex 0.490000 -0.269481 0.015000
endloop
endfacet
facet normal -1.000000 0.000008 0.000000
outer loop
vertex 0.490000 -0.070519 0.019284
vertex 0.490000 -0.000000 0.065000
vertex 0.490000 -0.067519 0.015000
endloop
endfacet
facet normal -1.000000 -0.000009 0.000000
outer loop
vertex 0.490000 -0.067519 0.015000
vertex 0.490000 -0.000000 0.065000
vertex 0.490000 -0.065309 0.010261
endloop
endfacet
facet normal -1.000000 0.000000 0.000000
outer loop
vertex 0.490000 -0.228500 0.025981
vertex 0.490000 -0.233239 0.028191
vertex 0.490000 -0.116481 0.019284
endloop
endfacet
facet normal -1.000000 -0.000001 0.000000
outer loop
vertex 0.490000 -0.571691 0.010261
vertex 0.490000 -0.667519 0.015000
vertex 0.490000 -0.569481 0.015000
endloop
endfacet
facet normal -1.000000 0.000001 0.000000
outer loop
vertex 0.490000 -0.569481 0.015000
vertex 0.490000 -0.667519 0.015000
vertex 0.490000 -0.566481 0.019284
endloop
endfacet
facet normal -1.000000 -0.000001 0.000000
outer loop
vertex 0.490000 -0.667519 0.015000
vertex 0.490000 -0.670519 0.019284
vertex 0.490000 -0.566481 0.019284
endloop
endfacet
facet normal -1.000000 0.000001 0.000000
outer loop
vertex 0.490000 -0.566481 0.019284
vertex 0.490000 -0.670519 0.019284
vertex 0.490000 -0.674216 0.022981
endloop
endfacet
facet normal -1.000000 0.000000 0.000000
outer loop
vertex 0.490000 -0.566481 0.019284
vertex 0.490000 -0.674216 0.022981
vertex 0.490000 -0.678500 0.025981
endloop
endfacet
facet normal -1.000000 0.000000 0.000000
outer loop
vertex 0.490000 -0.065309 0.010261
vertex 0.490000 -0.000000 0.065000
vertex 0.490000 -0.063956 0.005209
endloop
endfacet
facet normal -1.000000 0.000000 0.000000
outer loop
vertex 0.490000 -0.063956 0.005209
vertex 0.490000 -0.000000 0.065000
vertex 0.490000 0.000000 0.000000
endloop
endfacet
facet normal -1.000000 -0.000000 0.000000
outer loop
vertex 0.490000 -0.063956 0.005209
vertex 0.490000 0.000000 0.000000
vertex 0.490000 -0.063500 -0.000000
endloop
endfacet
facet normal -1.000000 -0.000009 0.000000
outer loop
vertex 0.490000 -0.070519 0.019284
vertex 0.490000 -0.074216 0.022981
vertex 0.490000 -0.000000 0.065000
endloop
endfacet
facet normal -1.000000 0.000005 0.000000
outer loop
vertex 0.490000 -0.000000 0.065000
vertex 0.490000 -0.074216 0.022981
vertex 0.490000 -0.078500 0.025981
endloop
endfacet
facet normal -1.000000 -0.000001 0.000000
outer loop
vertex 0.490000 -0.000000 0.065000
vertex 0.490000 -0.078500 0.025981
vertex 0.490000 -0.083239 0.028191
endloop
endfacet
facet normal -1.000000 0.000000 0.000000
outer loop
vertex 0.490000 -0.119481 0.015000
vertex 0.490000 -0.220519 0.019284
vertex 0.490000 -0.116481 0.019284
endloop
endfacet
facet normal -1.000000 0.000001 0.000000
outer loop
vertex 0.490000 -0.116481 0.019284
vertex 0.490000 -0.220519 0.019284
vertex 0.490000 -0.224216 0.022981
endloop
endfacet
facet normal -1.000000 0.000000 0.000000
outer loop
vertex 0.490000 -0.116481 0.019284
vertex 0.490000 -0.224216 0.022981
vertex 0.490000 -0.228500 0.025981
endloop
endfacet
facet normal -1.000000 -0.000002 0.000000
outer loop
vertex 0.490000 -0.370519 0.019284
vertex 0.490000 -0.374216 0.022981
vertex 0.490000 -0.000000 0.065000
endloop
endfacet
facet normal -1.000000 -0.000001 0.000000
outer loop
vertex 0.490000 -0.000000 0.065000
vertex 0.490000 -0.374216 0.022981
vertex 0.490000 -0.378500 0.025981
endloop
endfacet
facet normal -1.000000 -0.000000 0.000000
outer loop
vertex 0.490000 -0.000000 0.065000
vertex 0.490000 -0.378500 0.025981
vertex 0.490000 -0.383239 0.028191
endloop
endfacet
facet normal -1.000000 0.000000 0.000000
outer loop
vertex 0.490000 -0.524216 0.022981
vertex 0.490000 -0.528500 0.025981
vertex 0.490000 -0.000000 0.065000
endloop
endfacet
facet normal -1.000000 -0.000002 0.000000
outer loop
vertex 0.490000 -0.000000 0.065000
vertex 0.490000 -0.528500 0.025981
vertex 0.490000 -0.533239 0.028191
endloop
endfacet
facet normal -1.000000 0.000004 0.000000
outer loop
vertex 0.490000 -0.533239 0.028191
vertex 0.490000 -0.538291 0.029544
vertex 0.490000 -0.000000 0.065000
endloop
endfacet
facet normal -1.000000 0.000003 0.000000
outer loop
vertex 0.490000 -0.000000 0.065000
vertex 0.490000 -0.538291 0.029544
vertex 0.490000 -0.543500 0.030000
endloop
endfacet
facet normal -1.000000 0.000000 0.000000
outer loop
vertex 0.490000 -0.000000 0.065000
vertex 0.490000 -0.543500 0.030000
vertex 0.490000 -0.787000 0.065000
endloop
endfacet
facet normal -1.000000 -0.000018 0.000000
outer loop
vertex 0.490000 -0.787000 0.065000
vertex 0.490000 -0.543500 0.030000
vertex 0.490000 -0.548709 0.029544
endloop
endfacet
facet normal -1.000000 0.000002 0.000000
outer loop
vertex 0.490000 -0.787000 0.065000
vertex 0.490000 -0.548709 0.029544
vertex 0.490000 -0.553761 0.028191
endloop
endfacet
facet normal -1.000000 0.000001 0.000000
outer loop
vertex 0.490000 -0.103761 0.028191
vertex 0.490000 -0.108500 0.025981
vertex 0.490000 -0.243500 0.030000
endloop
endfacet
facet normal -1.000000 0.000000 0.000000
outer loop
vertex 0.490000 -0.553761 0.028191
vertex 0.490000 -0.558500 0.025981
vertex 0.490000 -0.787000 0.065000
endloop
endfacet
facet normal -1.000000 0.000002 0.000000
outer loop
vertex 0.490000 -0.787000 0.065000
vertex 0.490000 -0.558500 0.025981
vertex 0.490000 -0.562784 0.022981
endloop
endfacet
facet normal -1.000000 0.000002 0.000000
outer loop
vertex 0.490000 -0.787000 0.065000
vertex 0.490000 -0.562784 0.022981
vertex 0.490000 -0.566481 0.019284
endloop
endfacet
facet normal -1.000000 0.000000 0.000000
outer loop
vertex 0.490000 -0.573500 -0.000000
vertex 0.490000 -0.663500 -0.000000
vertex 0.490000 -0.573044 0.005209
endloop
endfacet
facet normal -1.000000 0.000000 0.000000
outer loop
vertex 0.490000 -0.573044 0.005209
vertex 0.490000 -0.663500 -0.000000
vertex 0.490000 -0.663956 0.005209
endloop
endfacet
facet normal -1.000000 0.000000 0.000000
outer loop
vertex 0.490000 -0.573044 0.005209
vertex 0.490000 -0.663956 0.005209
vertex 0.490000 -0.571691 0.010261
endloop
endfacet
facet normal -1.000000 0.000000 0.000000
outer loop
vertex 0.490000 -0.571691 0.010261
vertex 0.490000 -0.663956 0.005209
vertex 0.490000 -0.665309 0.010261
endloop
endfacet
facet normal -1.000000 0.000001 0.000000
outer loop
vertex 0.490000 -0.571691 0.010261
vertex 0.490000 -0.665309 0.010261
vertex 0.490000 -0.667519 0.015000
endloop
endfacet
facet normal -1.000000 0.000000 0.000000
outer loop
vertex 0.490000 -0.678500 0.025981
vertex 0.490000 -0.683239 0.028191
vertex 0.490000 -0.566481 0.019284
endloop
endfacet
facet normal -1.000000 0.000001 0.000000
outer loop
vertex 0.490000 -0.566481 0.019284
vertex 0.490000 -0.683239 0.028191
vertex 0.490000 -0.688291 0.029544
endloop
endfacet
facet normal -1.000000 -0.000001 0.000000
outer loop
vertex 0.490000 -0.566481 0.019284
vertex 0.490000 -0.688291 0.029544
vertex 0.490000 -0.787000 0.065000
endloop
endfacet
facet normal -1.000000 0.000010 0.000000
outer loop
vertex 0.490000 -0.787000 0.065000
vertex 0.490000 -0.688291 0.029544
vertex 0.490000 -0.693500 0.030000
endloop
endfacet
facet normal -1.000000 -0.000006 0.000000
outer loop
vertex 0.490000 -0.787000 0.065000
vertex 0.490000 -0.693500 0.030000
vertex 0.490000 -0.698709 0.029544
endloop
endfacet
facet normal -1.000000 0.000000 0.000000
outer loop
vertex 0.490000 -0.698709 0.029544
vertex 0.490000 -0.703761 0.028191
vertex 0.490000 -0.787000 0.065000
endloop
endfacet
facet normal -1.000000 0.000001 0.000000
outer loop
vertex 0.490000 -0.787000 0.065000
vertex 0.490000 -0.703761 0.028191
vertex 0.490000 -0.708500 0.025981
endloop
endfacet
facet normal -1.000000 0.000004 0.000000
outer loop
vertex 0.490000 -0.787000 0.065000
vertex 0.490000 -0.708500 0.025981
vertex 0.490000 -0.712784 0.022981
endloop
endfacet
facet normal -1.000000 -0.000008 0.000000
outer loop
vertex 0.490000 -0.716481 0.019284
vertex 0.490000 -0.719481 0.015000
vertex 0.490000 -0.787000 0.065000
endloop
endfacet
facet normal -1.000000 -0.000002 0.000000
outer loop
vertex 0.490000 -0.787000 0.065000
vertex 0.490000 -0.719481 0.015000
vertex 0.490000 -0.721691 0.010261
endloop
endfacet
facet normal -1.000000 -0.000001 0.000000
outer loop
vertex 0.490000 -0.787000 0.065000
vertex 0.490000 -0.721691 0.010261
vertex 0.490000 -0.787000 -0.000000
endloop
endfacet
facet normal -1.000000 0.000001 0.000000
outer loop
vertex 0.490000 -0.787000 -0.000000
vertex 0.490000 -0.721691 0.010261
vertex 0.490000 -0.723044 0.005209
endloop
endfacet
facet normal -1.000000 0.000000 0.000000
outer loop
vertex 0.490000 -0.787000 -0.000000
vertex 0.490000 -0.723044 0.005209
vertex 0.490000 -0.723500 -0.000000
endloop
endfacet
facet normal -1.000000 0.000000 0.000000
outer loop
vertex 0.490000 -0.233239 0.028191
vertex 0.490000 -0.238291 0.029544
vertex 0.490000 -0.116481 0.019284
endloop
endfacet
facet normal -1.000000 -0.000197 0.000000
outer loop
vertex 0.490000 -0.116481 0.019284
vertex 0.490000 -0.238291 0.029544
vertex 0.490000 -0.243500 0.030000
endloop
endfacet
facet normal -1.000000 0.000000 0.000000
outer loop
vertex 0.490000 -0.116481 0.019284
vertex 0.490000 -0.243500 0.030000
vertex 0.490000 -0.112784 0.022981
endloop
endfacet
facet normal -1.000000 -0.000001 0.000000
outer loop
vertex 0.490000 -0.112784 0.022981
vertex 0.490000 -0.243500 0.030000
vertex 0.490000 -0.108500 0.025981
endloop
endfacet
facet normal -1.000000 0.000000 0.000000
outer loop
vertex 0.490000 -0.123500 -0.000000
vertex 0.490000 -0.213500 -0.000000
vertex 0.490000 -0.123044 0.005209
endloop
endfacet
facet normal -1.000000 0.000000 0.000000
outer loop
vertex 0.490000 -0.123044 0.005209
vertex 0.490000 -0.213500 -0.000000
vertex 0.490000 -0.213956 0.005209
endloop
endfacet
facet normal -1.000000 0.000000 0.000000
outer loop
vertex 0.490000 -0.123044 0.005209
vertex 0.490000 -0.213956 0.005209
vertex 0.490000 -0.121691 0.010261
endloop
endfacet
facet normal -1.000000 0.000000 0.000000
outer loop
vertex 0.490000 -0.121691 0.010261
vertex 0.490000 -0.213956 0.005209
vertex 0.490000 -0.215309 0.010261
endloop
endfacet
facet normal -1.000000 0.000001 0.000000
outer loop
vertex 0.490000 -0.121691 0.010261
vertex 0.490000 -0.215309 0.010261
vertex 0.490000 -0.217519 0.015000
endloop
endfacet
facet normal -1.000000 0.000000 0.000000
outer loop
vertex 0.490000 -0.398709 0.029544
vertex 0.490000 -0.403761 0.028191
vertex 0.490000 -0.517519 0.015000
endloop
endfacet
facet normal -1.000000 0.000001 0.000000
outer loop
vertex 0.490000 -0.517519 0.015000
vertex 0.490000 -0.403761 0.028191
vertex 0.490000 -0.408500 0.025981
endloop
endfacet
facet normal -1.000000 -0.000001 0.000000
outer loop
vertex 0.490000 -0.419481 0.015000
vertex 0.490000 -0.421691 0.010261
vertex 0.490000 -0.517519 0.015000
endloop
endfacet
facet normal -1.000000 0.000000 0.000000
outer loop
vertex 0.490000 -0.517519 0.015000
vertex 0.490000 -0.421691 0.010261
vertex 0.490000 -0.423044 0.005209
endloop
endfacet
facet normal -1.000000 0.000001 0.000000
outer loop
vertex 0.490000 -0.517519 0.015000
vertex 0.490000 -0.423044 0.005209
vertex 0.490000 -0.515309 0.010261
endloop
endfacet
facet normal -1.000000 -0.000003 0.000000
outer loop
vertex 0.490000 -0.365309 0.010261
vertex 0.490000 -0.248709 0.029544
vertex 0.490000 -0.363956 0.005209
endloop
endfacet
facet normal -1.000000 0.000025 0.000000
outer loop
vertex 0.490000 -0.363956 0.005209
vertex 0.490000 -0.248709 0.029544
vertex 0.490000 -0.253761 0.028191
endloop
endfacet
facet normal -1.000000 0.000002 0.000000
outer loop
vertex 0.490000 -0.363956 0.005209
vertex 0.490000 -0.253761 0.028191
vertex 0.490000 -0.258500 0.025981
endloop
endfacet
facet normal -1.000000 0.000000 0.000000
outer loop
vertex 0.490000 -0.408500 0.025981
vertex 0.490000 -0.412784 0.022981
vertex 0.490000 -0.517519 0.015000
endloop
endfacet
facet normal -1.000000 0.000001 0.000000
outer loop
vertex 0.490000 -0.517519 0.015000
vertex 0.490000 -0.412784 0.022981
vertex 0.490000 -0.416481 0.019284
endloop
endfacet
facet normal -1.000000 0.000000 0.000000
outer loop
vertex 0.490000 -0.517519 0.015000
vertex 0.490000 -0.416481 0.019284
vertex 0.490000 -0.419481 0.015000
endloop
endfacet
facet normal -1.000000 0.000005 0.000000
outer loop
vertex 0.490000 -0.383239 0.028191
vertex 0.490000 -0.388290 0.029544
vertex 0.490000 -0.000000 0.065000
endloop
endfacet
facet normal -1.000000 0.000004 0.000000
outer loop
vertex 0.490000 -0.000000 0.065000
vertex 0.490000 -0.388290 0.029544
vertex 0.490000 -0.393500 0.030000
endloop
endfacet
facet normal -1.000000 -0.000001 0.000000
outer loop
vertex 0.490000 -0.000000 0.065000
vertex 0.490000 -0.393500 0.030000
vertex 0.490000 -0.524216 0.022981
endloop
endfacet
facet normal -1.000000 -0.000003 0.000000
outer loop
vertex 0.490000 -0.524216 0.022981
vertex 0.490000 -0.393500 0.030000
vertex 0.490000 -0.398709 0.029544
endloop
endfacet
facet normal -1.000000 0.000000 0.000000
outer loop
vertex 0.490000 -0.524216 0.022981
vertex 0.490000 -0.398709 0.029544
vertex 0.490000 -0.520519 0.019284
endloop
endfacet
facet normal -1.000000 0.000000 0.000000
outer loop
vertex 0.490000 -0.520519 0.019284
vertex 0.490000 -0.398709 0.029544
vertex 0.490000 -0.517519 0.015000
endloop
endfacet
facet normal -1.000000 0.000000 0.000000
outer loop
vertex 0.490000 -0.083239 0.028191
vertex 0.490000 -0.088291 0.029544
vertex 0.490000 -0.000000 0.065000
endloop
endfacet
facet normal -1.000000 0.000006 0.000000
outer loop
vertex 0.490000 -0.000000 0.065000
vertex 0.490000 -0.088291 0.029544
vertex 0.490000 -0.093500 0.030000
endloop
endfacet
facet normal -1.000000 -0.000010 0.000000
outer loop
vertex 0.490000 -0.000000 0.065000
vertex 0.490000 -0.093500 0.030000
vertex 0.490000 -0.098709 0.029544
endloop
endfacet
facet normal -1.000000 0.000000 0.000000
outer loop
vertex 0.490000 -0.423500 -0.000000
vertex 0.490000 -0.513500 -0.000000
vertex 0.490000 -0.423044 0.005209
endloop
endfacet
facet normal -1.000000 0.000000 0.000000
outer loop
vertex 0.490000 -0.423044 0.005209
vertex 0.490000 -0.513500 -0.000000
vertex 0.490000 -0.513956 0.005209
endloop
endfacet
facet normal -1.000000 0.000000 0.000000
outer loop
vertex 0.490000 -0.423044 0.005209
vertex 0.490000 -0.513956 0.005209
vertex 0.490000 -0.515309 0.010261
endloop
endfacet
facet normal -1.000000 0.000002 0.000000
outer loop
vertex 0.490000 -0.365309 0.010261
vertex 0.490000 -0.367519 0.015000
vertex 0.490000 -0.248709 0.029544
endloop
endfacet
facet normal -1.000000 0.000000 0.000000
outer loop
vertex 0.490000 -0.248709 0.029544
vertex 0.490000 -0.367519 0.015000
vertex 0.490000 -0.000000 0.065000
endloop
endfacet
facet normal -1.000000 0.000000 0.000000
outer loop
vertex 0.490000 -0.248709 0.029544
vertex 0.490000 -0.000000 0.065000
vertex 0.490000 -0.243500 0.030000
endloop
endfacet
facet normal -1.000000 0.000000 0.000000
outer loop
vertex 0.490000 -0.243500 0.030000
vertex 0.490000 -0.000000 0.065000
vertex 0.490000 -0.098709 0.029544
endloop
endfacet
facet normal -1.000000 0.000000 0.000000
outer loop
vertex 0.490000 -0.243500 0.030000
vertex 0.490000 -0.098709 0.029544
vertex 0.490000 -0.103761 0.028191
endloop
endfacet
facet normal 0.000000 0.996194 -0.087160
outer loop
vertex 0.505000 -0.423500 -0.000000
vertex 0.490000 -0.423500 -0.000000
vertex 0.505000 -0.423044 0.005209
endloop
endfacet
facet normal 0.000000 0.996193 -0.087172
outer loop
vertex 0.505000 -0.423044 0.005209
vertex 0.490000 -0.423500 -0.000000
vertex 0.490000 -0.423044 0.005209
endloop
endfacet
facet normal 0.000000 0.965928 -0.258809
outer loop
vertex 0.505000 -0.423044 0.005209
vertex 0.490000 -0.423044 0.005209
vertex 0.505000 -0.421691 0.010261
endloop
endfacet
facet normal 0.000000 0.965925 -0.258820
outer loop
vertex 0.505000 -0.421691 0.010261
vertex 0.490000 -0.423044 0.005209
vertex 0.490000 -0.421691 0.010261
endloop
endfacet
facet normal 0.000000 0.906312 -0.422610
outer loop
vertex 0.505000 -0.421691 0.010261
vertex 0.490000 -0.421691 0.010261
vertex 0.505000 -0.419481 0.015000
endloop
endfacet
facet normal 0.000000 0.906312 -0.422610
outer loop
vertex 0.505000 -0.419481 0.015000
vertex 0.490000 -0.421691 0.010261
vertex 0.490000 -0.419481 0.015000
endloop
endfacet
facet normal 0.000000 0.819141 -0.573592
outer loop
vertex 0.505000 -0.419481 0.015000
vertex 0.490000 -0.419481 0.015000
vertex 0.505000 -0.416481 0.019284
endloop
endfacet
facet normal 0.000000 0.819147 -0.573584
outer loop
vertex 0.505000 -0.416481 0.019284
vertex 0.490000 -0.419481 0.015000
vertex 0.490000 -0.416481 0.019284
endloop
endfacet
facet normal 0.000000 0.707110 -0.707104
outer loop
vertex 0.505000 -0.416481 0.019284
vertex 0.490000 -0.416481 0.019284
vertex 0.505000 -0.412784 0.022981
endloop
endfacet
facet normal 0.000000 0.707111 -0.707102
outer loop
vertex 0.505000 -0.412784 0.022981
vertex 0.490000 -0.416481 0.019284
vertex 0.490000 -0.412784 0.022981
endloop
endfacet
facet normal 0.000000 0.573573 -0.819154
outer loop
vertex 0.505000 -0.412784 0.022981
vertex 0.490000 -0.412784 0.022981
vertex 0.505000 -0.408500 0.025981
endloop
endfacet
facet normal 0.000000 0.573581 -0.819149
outer loop
vertex 0.505000 -0.408500 0.025981
vertex 0.490000 -0.412784 0.022981
vertex 0.490000 -0.408500 0.025981
endloop
endfacet
facet normal 0.000000 0.422622 -0.906306
outer loop
vertex 0.505000 -0.408500 0.025981
vertex 0.490000 -0.408500 0.025981
vertex 0.505000 -0.403761 0.028191
endloop
endfacet
facet normal 0.000000 0.422610 -0.906312
outer loop
vertex 0.505000 -0.403761 0.028191
vertex 0.490000 -0.408500 0.025981
vertex 0.490000 -0.403761 0.028191
endloop
endfacet
facet normal 0.000000 0.258818 -0.965926
outer loop
vertex 0.505000 -0.403761 0.028191
vertex 0.490000 -0.403761 0.028191
vertex 0.505000 -0.398709 0.029544
endloop
endfacet
facet normal 0.000000 0.258818 -0.965926
outer loop
vertex 0.505000 -0.398709 0.029544
vertex 0.490000 -0.403761 0.028191
vertex 0.490000 -0.398709 0.029544
endloop
endfacet
facet normal 0.000000 0.087157 -0.996195
outer loop
vertex 0.505000 -0.398709 0.029544
vertex 0.490000 -0.398709 0.029544
vertex 0.505000 -0.393500 0.030000
endloop
endfacet
facet normal 0.000000 0.087157 -0.996195
outer loop
vertex 0.505000 -0.393500 0.030000
vertex 0.490000 -0.398709 0.029544
vertex 0.490000 -0.393500 0.030000
endloop
endfacet
facet normal 0.000000 -0.087155 -0.996195
outer loop
vertex 0.505000 -0.393500 0.030000
vertex 0.490000 -0.393500 0.030000
vertex 0.505000 -0.388290 0.029544
endloop
endfacet
facet normal 0.000000 -0.087155 -0.996195
outer loop
vertex 0.505000 -0.388290 0.029544
vertex 0.490000 -0.393500 0.030000
vertex 0.490000 -0.388290 0.029544
endloop
endfacet
facet normal 0.000000 -0.258824 -0.965925
outer loop
vertex 0.505000 -0.388290 0.029544
vertex 0.490000 -0.388290 0.029544
vertex 0.505000 -0.383239 0.028191
endloop
endfacet
facet normal 0.000000 -0.258821 -0.965925
outer loop
vertex 0.505000 -0.383239 0.028191
vertex 0.490000 -0.388290 0.029544
vertex 0.490000 -0.383239 0.028191
endloop
endfacet
facet normal 0.000000 -0.422622 -0.906306
outer loop
vertex 0.505000 -0.383239 0.028191
vertex 0.490000 -0.383239 0.028191
vertex 0.505000 -0.378500 0.025981
endloop
endfacet
facet normal 0.000000 -0.422619 -0.906307
outer loop
vertex 0.505000 -0.378500 0.025981
vertex 0.490000 -0.383239 0.028191
vertex 0.490000 -0.378500 0.025981
endloop
endfacet
facet normal 0.000000 -0.573579 -0.819150
outer loop
vertex 0.505000 -0.378500 0.025981
vertex 0.490000 -0.378500 0.025981
vertex 0.505000 -0.374216 0.022981
endloop
endfacet
facet normal 0.000000 -0.573581 -0.819149
outer loop
vertex 0.505000 -0.374216 0.022981
vertex 0.490000 -0.378500 0.025981
vertex 0.490000 -0.374216 0.022981
endloop
endfacet
facet normal 0.000000 -0.707092 -0.707122
outer loop
vertex 0.505000 -0.374216 0.022981
vertex 0.490000 -0.374216 0.022981
vertex 0.505000 -0.370519 0.019284
endloop
endfacet
facet normal 0.000000 -0.707099 -0.707114
outer loop
vertex 0.505000 -0.370519 0.019284
vertex 0.490000 -0.374216 0.022981
vertex 0.490000 -0.370519 0.019284
endloop
endfacet
facet normal 0.000000 -0.819158 -0.573568
outer loop
vertex 0.505000 -0.370519 0.019284
vertex 0.490000 -0.370519 0.019284
vertex 0.505000 -0.367519 0.015000
endloop
endfacet
facet normal 0.000000 -0.819158 -0.573568
outer loop
vertex 0.505000 -0.367519 0.015000
vertex 0.490000 -0.370519 0.019284
vertex 0.490000 -0.367519 0.015000
endloop
endfacet
facet normal 0.000000 -0.906307 -0.422619
outer loop
vertex 0.505000 -0.367519 0.015000
vertex 0.490000 -0.367519 0.015000
vertex 0.505000 -0.365309 0.010261
endloop
endfacet
facet normal 0.000000 -0.906307 -0.422619
outer loop
vertex 0.505000 -0.365309 0.010261
vertex 0.490000 -0.367519 0.015000
vertex 0.490000 -0.365309 0.010261
endloop
endfacet
facet normal 0.000000 -0.965922 -0.258832
outer loop
vertex 0.505000 -0.365309 0.010261
vertex 0.490000 -0.365309 0.010261
vertex 0.505000 -0.363956 0.005209
endloop
endfacet
facet normal 0.000000 -0.965925 -0.258820
outer loop
vertex 0.505000 -0.363956 0.005209
vertex 0.490000 -0.365309 0.010261
vertex 0.490000 -0.363956 0.005209
endloop
endfacet
facet normal 0.000000 -0.996196 -0.087136
outer loop
vertex 0.505000 -0.363956 0.005209
vertex 0.490000 -0.363956 0.005209
vertex 0.505000 -0.363500 -0.000000
endloop
endfacet
facet normal 0.000000 -0.996194 -0.087160
outer loop
vertex 0.505000 -0.363500 -0.000000
vertex 0.490000 -0.363956 0.005209
vertex 0.490000 -0.363500 -0.000000
endloop
endfacet
facet normal 0.000000 0.996193 -0.087172
outer loop
vertex 0.505000 -0.573500 -0.000000
vertex 0.490000 -0.573500 -0.000000
vertex 0.505000 -0.573044 0.005209
endloop
endfacet
facet normal 0.000000 0.996195 -0.087148
outer loop
vertex 0.505000 -0.573044 0.005209
vertex 0.490000 -0.573500 -0.000000
vertex 0.490000 -0.573044 0.005209
endloop
endfacet
facet normal 0.000000 0.965928 -0.258809
outer loop
vertex 0.505000 -0.573044 0.005209
vertex 0.490000 -0.573044 0.005209
vertex 0.505000 -0.571691 0.010261
endloop
endfacet
facet normal 0.000000 0.965922 -0.258832
outer loop
vertex 0.505000 -0.571691 0.010261
vertex 0.490000 -0.573044 0.005209
vertex 0.490000 -0.571691 0.010261
endloop
endfacet
facet normal 0.000000 0.906321 -0.422590
outer loop
vertex 0.505000 -0.571691 0.010261
vertex 0.490000 -0.571691 0.010261
vertex 0.505000 -0.569481 0.015000
endloop
endfacet
facet normal 0.000000 0.906303 -0.422629
outer loop
vertex 0.505000 -0.569481 0.015000
vertex 0.490000 -0.571691 0.010261
vertex 0.490000 -0.569481 0.015000
endloop
endfacet
facet normal 0.000000 0.819147 -0.573584
outer loop
vertex 0.505000 -0.569481 0.015000
vertex 0.490000 -0.569481 0.015000
vertex 0.505000 -0.566481 0.019284
endloop
endfacet
facet normal 0.000000 0.819136 -0.573600
outer loop
vertex 0.505000 -0.566481 0.019284
vertex 0.490000 -0.569481 0.015000
vertex 0.490000 -0.566481 0.019284
endloop
endfacet
facet normal 0.000000 0.707116 -0.707098
outer loop
vertex 0.505000 -0.566481 0.019284
vertex 0.490000 -0.566481 0.019284
vertex 0.505000 -0.562784 0.022981
endloop
endfacet
facet normal 0.000000 0.707117 -0.707096
outer loop
vertex 0.505000 -0.562784 0.022981
vertex 0.490000 -0.566481 0.019284
vertex 0.490000 -0.562784 0.022981
endloop
endfacet
facet normal 0.000000 0.573568 -0.819158
outer loop
vertex 0.505000 -0.562784 0.022981
vertex 0.490000 -0.562784 0.022981
vertex 0.505000 -0.558500 0.025981
endloop
endfacet
facet normal 0.000000 0.573569 -0.819157
outer loop
vertex 0.505000 -0.558500 0.025981
vertex 0.490000 -0.562784 0.022981
vertex 0.490000 -0.558500 0.025981
endloop
endfacet
facet normal 0.000000 0.422626 -0.906304
outer loop
vertex 0.505000 -0.558500 0.025981
vertex 0.490000 -0.558500 0.025981
vertex 0.505000 -0.553761 0.028191
endloop
endfacet
facet normal 0.000000 0.422615 -0.906310
outer loop
vertex 0.505000 -0.553761 0.028191
vertex 0.490000 -0.558500 0.025981
vertex 0.490000 -0.553761 0.028191
endloop
endfacet
facet normal 0.000000 0.258815 -0.965927
outer loop
vertex 0.505000 -0.553761 0.028191
vertex 0.490000 -0.553761 0.028191
vertex 0.505000 -0.548709 0.029544
endloop
endfacet
facet normal 0.000000 0.258821 -0.965925
outer loop
vertex 0.505000 -0.548709 0.029544
vertex 0.490000 -0.553761 0.028191
vertex 0.490000 -0.548709 0.029544
endloop
endfacet
facet normal 0.000000 0.087156 -0.996195
outer loop
vertex 0.505000 -0.548709 0.029544
vertex 0.490000 -0.548709 0.029544
vertex 0.505000 -0.543500 0.030000
endloop
endfacet
facet normal 0.000000 0.087158 -0.996194
outer loop
vertex 0.505000 -0.543500 0.030000
vertex 0.490000 -0.548709 0.029544
vertex 0.490000 -0.543500 0.030000
endloop
endfacet
facet normal 0.000000 -0.087154 -0.996195
outer loop
vertex 0.505000 -0.543500 0.030000
vertex 0.490000 -0.543500 0.030000
vertex 0.505000 -0.538291 0.029544
endloop
endfacet
facet normal 0.000000 -0.087156 -0.996195
outer loop
vertex 0.505000 -0.538291 0.029544
vertex 0.490000 -0.543500 0.030000
vertex 0.490000 -0.538291 0.029544
endloop
endfacet
facet normal 0.000000 -0.258821 -0.965925
outer loop
vertex 0.505000 -0.538291 0.029544
vertex 0.490000 -0.538291 0.029544
vertex 0.505000 -0.533239 0.028191
endloop
endfacet
facet normal 0.000000 -0.258826 -0.965924
outer loop
vertex 0.505000 -0.533239 0.028191
vertex 0.490000 -0.538291 0.029544
vertex 0.490000 -0.533239 0.028191
endloop
endfacet
facet normal 0.000000 -0.422617 -0.906308
outer loop
vertex 0.505000 -0.533239 0.028191
vertex 0.490000 -0.533239 0.028191
vertex 0.505000 -0.528500 0.025981
endloop
endfacet
facet normal 0.000000 -0.422624 -0.906305
outer loop
vertex 0.505000 -0.528500 0.025981
vertex 0.490000 -0.533239 0.028191
vertex 0.490000 -0.528500 0.025981
endloop
endfacet
facet normal 0.000000 -0.573579 -0.819150
outer loop
vertex 0.505000 -0.528500 0.025981
vertex 0.490000 -0.528500 0.025981
vertex 0.505000 -0.524216 0.022981
endloop
endfacet
facet normal 0.000000 -0.573569 -0.819157
outer loop
vertex 0.505000 -0.524216 0.022981
vertex 0.490000 -0.528500 0.025981
vertex 0.490000 -0.524216 0.022981
endloop
endfacet
facet normal 0.000000 -0.707116 -0.707098
outer loop
vertex 0.505000 -0.524216 0.022981
vertex 0.490000 -0.524216 0.022981
vertex 0.505000 -0.520519 0.019284
endloop
endfacet
facet normal 0.000000 -0.707105 -0.707108
outer loop
vertex 0.505000 -0.520519 0.019284
vertex 0.490000 -0.524216 0.022981
vertex 0.490000 -0.520519 0.019284
endloop
endfacet
facet normal 0.000000 -0.819141 -0.573592
outer loop
vertex 0.505000 -0.520519 0.019284
vertex 0.490000 -0.520519 0.019284
vertex 0.505000 -0.517519 0.015000
endloop
endfacet
facet normal 0.000000 -0.819141 -0.573592
outer loop
vertex 0.505000 -0.517519 0.015000
vertex 0.490000 -0.520519 0.019284
vertex 0.490000 -0.517519 0.015000
endloop
endfacet
facet normal 0.000000 -0.906307 -0.422619
outer loop
vertex 0.505000 -0.517519 0.015000
vertex 0.490000 -0.517519 0.015000
vertex 0.505000 -0.515309 0.010261
endloop
endfacet
facet normal 0.000000 -0.906316 -0.422600
outer loop
vertex 0.505000 -0.515309 0.010261
vertex 0.490000 -0.517519 0.015000
vertex 0.490000 -0.515309 0.010261
endloop
endfacet
facet normal 0.000000 -0.965922 -0.258832
outer loop
vertex 0.505000 -0.515309 0.010261
vertex 0.490000 -0.515309 0.010261
vertex 0.505000 -0.513956 0.005209
endloop
endfacet
facet normal 0.000000 -0.965928 -0.258809
outer loop
vertex 0.505000 -0.513956 0.005209
vertex 0.490000 -0.515309 0.010261
vertex 0.490000 -0.513956 0.005209
endloop
endfacet
facet normal 0.000000 -0.996195 -0.087148
outer loop
vertex 0.505000 -0.513956 0.005209
vertex 0.490000 -0.513956 0.005209
vertex 0.505000 -0.513500 -0.000000
endloop
endfacet
facet normal 0.000000 -0.996195 -0.087148
outer loop
vertex 0.505000 -0.513500 -0.000000
vertex 0.490000 -0.513956 0.005209
vertex 0.490000 -0.513500 -0.000000
endloop
endfacet
facet normal 0.000000 0.996194 -0.087160
outer loop
vertex 0.505000 -0.123500 -0.000000
vertex 0.490000 -0.123500 -0.000000
vertex 0.505000 -0.123044 0.005209
endloop
endfacet
facet normal 0.000000 0.996194 -0.087163
outer loop
vertex 0.505000 -0.123044 0.005209
vertex 0.490000 -0.123500 -0.000000
vertex 0.490000 -0.123044 0.005209
endloop
endfacet
facet normal 0.000000 0.965928 -0.258812
outer loop
vertex 0.505000 -0.123044 0.005209
vertex 0.490000 -0.123044 0.005209
vertex 0.505000 -0.121691 0.010261
endloop
endfacet
facet normal 0.000000 0.965929 -0.258807
outer loop
vertex 0.505000 -0.121691 0.010261
vertex 0.490000 -0.123044 0.005209
vertex 0.490000 -0.121691 0.010261
endloop
endfacet
facet normal 0.000000 0.906308 -0.422617
outer loop
vertex 0.505000 -0.121691 0.010261
vertex 0.490000 -0.121691 0.010261
vertex 0.505000 -0.119481 0.015000
endloop
endfacet
facet normal 0.000000 0.906311 -0.422612
outer loop
vertex 0.505000 -0.119481 0.015000
vertex 0.490000 -0.121691 0.010261
vertex 0.490000 -0.119481 0.015000
endloop
endfacet
facet normal 0.000000 0.819145 -0.573586
outer loop
vertex 0.505000 -0.119481 0.015000
vertex 0.490000 -0.119481 0.015000
vertex 0.505000 -0.116481 0.019284
endloop
endfacet
facet normal 0.000000 0.819144 -0.573588
outer loop
vertex 0.505000 -0.116481 0.019284
vertex 0.490000 -0.119481 0.015000
vertex 0.490000 -0.116481 0.019284
endloop
endfacet
facet normal 0.000000 0.707108 -0.707105
outer loop
vertex 0.505000 -0.116481 0.019284
vertex 0.490000 -0.116481 0.019284
vertex 0.505000 -0.112784 0.022981
endloop
endfacet
facet normal 0.000000 0.707107 -0.707107
outer loop
vertex 0.505000 -0.112784 0.022981
vertex 0.490000 -0.116481 0.019284
vertex 0.490000 -0.112784 0.022981
endloop
endfacet
facet normal 0.000000 0.573579 -0.819150
outer loop
vertex 0.505000 -0.112784 0.022981
vertex 0.490000 -0.112784 0.022981
vertex 0.505000 -0.108500 0.025981
endloop
endfacet
facet normal 0.000000 0.573579 -0.819150
outer loop
vertex 0.505000 -0.108500 0.025981
vertex 0.490000 -0.112784 0.022981
vertex 0.490000 -0.108500 0.025981
endloop
endfacet
facet normal 0.000000 0.422619 -0.906307
outer loop
vertex 0.505000 -0.108500 0.025981
vertex 0.490000 -0.108500 0.025981
vertex 0.505000 -0.103761 0.028191
endloop
endfacet
facet normal 0.000000 0.422618 -0.906308
outer loop
vertex 0.505000 -0.103761 0.028191
vertex 0.490000 -0.108500 0.025981
vertex 0.490000 -0.103761 0.028191
endloop
endfacet
facet normal 0.000000 0.258818 -0.965926
outer loop
vertex 0.505000 -0.103761 0.028191
vertex 0.490000 -0.103761 0.028191
vertex 0.505000 -0.098709 0.029544
endloop
endfacet
facet normal 0.000000 0.258820 -0.965926
outer loop
vertex 0.505000 -0.098709 0.029544
vertex 0.490000 -0.103761 0.028191
vertex 0.490000 -0.098709 0.029544
endloop
endfacet
facet normal 0.000000 0.087156 -0.996195
outer loop
vertex 0.505000 -0.098709 0.029544
vertex 0.490000 -0.098709 0.029544
vertex 0.505000 -0.093500 0.030000
endloop
endfacet
facet normal 0.000000 0.087156 -0.996195
outer loop
vertex 0.505000 -0.093500 0.030000
vertex 0.490000 -0.098709 0.029544
vertex 0.490000 -0.093500 0.030000
endloop
endfacet
facet normal 0.000000 -0.087156 -0.996195
outer loop
vertex 0.505000 -0.093500 0.030000
vertex 0.490000 -0.093500 0.030000
vertex 0.505000 -0.088291 0.029544
endloop
endfacet
facet normal 0.000000 -0.087156 -0.996195
outer loop
vertex 0.505000 -0.088291 0.029544
vertex 0.490000 -0.093500 0.030000
vertex 0.490000 -0.088291 0.029544
endloop
endfacet
facet normal 0.000000 -0.258818 -0.965926
outer loop
vertex 0.505000 -0.088291 0.029544
vertex 0.490000 -0.088291 0.029544
vertex 0.505000 -0.083239 0.028191
endloop
endfacet
facet normal 0.000000 -0.258818 -0.965926
outer loop
vertex 0.505000 -0.083239 0.028191
vertex 0.490000 -0.088291 0.029544
vertex 0.490000 -0.083239 0.028191
endloop
endfacet
facet normal 0.000000 -0.422622 -0.906306
outer loop
vertex 0.505000 -0.083239 0.028191
vertex 0.490000 -0.083239 0.028191
vertex 0.505000 -0.078500 0.025981
endloop
endfacet
facet normal 0.000000 -0.422619 -0.906307
outer loop
vertex 0.505000 -0.078500 0.025981
vertex 0.490000 -0.083239 0.028191
vertex 0.490000 -0.078500 0.025981
endloop
endfacet
facet normal 0.000000 -0.573577 -0.819151
outer loop
vertex 0.505000 -0.078500 0.025981
vertex 0.490000 -0.078500 0.025981
vertex 0.505000 -0.074216 0.022981
endloop
endfacet
facet normal 0.000000 -0.573579 -0.819150
outer loop
vertex 0.505000 -0.074216 0.022981
vertex 0.490000 -0.078500 0.025981
vertex 0.490000 -0.074216 0.022981
endloop
endfacet
facet normal 0.000000 -0.707102 -0.707111
outer loop
vertex 0.505000 -0.074216 0.022981
vertex 0.490000 -0.074216 0.022981
vertex 0.505000 -0.070519 0.019284
endloop
endfacet
facet normal 0.000000 -0.707105 -0.707108
outer loop
vertex 0.505000 -0.070519 0.019284
vertex 0.490000 -0.074216 0.022981
vertex 0.490000 -0.070519 0.019284
endloop
endfacet
facet normal 0.000000 -0.819155 -0.573572
outer loop
vertex 0.505000 -0.070519 0.019284
vertex 0.490000 -0.070519 0.019284
vertex 0.505000 -0.067519 0.015000
endloop
endfacet
facet normal 0.000000 -0.819154 -0.573574
outer loop
vertex 0.505000 -0.067519 0.015000
vertex 0.490000 -0.070519 0.019284
vertex 0.490000 -0.067519 0.015000
endloop
endfacet
facet normal 0.000000 -0.906305 -0.422624
outer loop
vertex 0.505000 -0.067519 0.015000
vertex 0.490000 -0.067519 0.015000
vertex 0.505000 -0.065309 0.010261
endloop
endfacet
facet normal 0.000000 -0.906306 -0.422622
outer loop
vertex 0.505000 -0.065309 0.010261
vertex 0.490000 -0.067519 0.015000
vertex 0.490000 -0.065309 0.010261
endloop
endfacet
facet normal 0.000000 -0.965926 -0.258818
outer loop
vertex 0.505000 -0.065309 0.010261
vertex 0.490000 -0.065309 0.010261
vertex 0.505000 -0.063956 0.005209
endloop
endfacet
facet normal 0.000000 -0.965927 -0.258816
outer loop
vertex 0.505000 -0.063956 0.005209
vertex 0.490000 -0.065309 0.010261
vertex 0.490000 -0.063956 0.005209
endloop
endfacet
facet normal 0.000000 -0.996195 -0.087155
outer loop
vertex 0.505000 -0.063956 0.005209
vertex 0.490000 -0.063956 0.005209
vertex 0.505000 -0.063500 -0.000000
endloop
endfacet
facet normal 0.000000 -0.996195 -0.087155
outer loop
vertex 0.505000 -0.063500 -0.000000
vertex 0.490000 -0.063956 0.005209
vertex 0.490000 -0.063500 -0.000000
endloop
endfacet
facet normal 0.000000 0.996194 -0.087160
outer loop
vertex 0.505000 -0.273500 -0.000000
vertex 0.490000 -0.273500 -0.000000
vertex 0.505000 -0.273044 0.005209
endloop
endfacet
facet normal 0.000000 0.996194 -0.087160
outer loop
vertex 0.505000 -0.273044 0.005209
vertex 0.490000 -0.273500 -0.000000
vertex 0.490000 -0.273044 0.005209
endloop
endfacet
facet normal 0.000000 0.965928 -0.258809
outer loop
vertex 0.505000 -0.273044 0.005209
vertex 0.490000 -0.273044 0.005209
vertex 0.505000 -0.271691 0.010261
endloop
endfacet
facet normal 0.000000 0.965928 -0.258809
outer loop
vertex 0.505000 -0.271691 0.010261
vertex 0.490000 -0.273044 0.005209
vertex 0.490000 -0.271691 0.010261
endloop
endfacet
facet normal 0.000000 0.906312 -0.422610
outer loop
vertex 0.505000 -0.271691 0.010261
vertex 0.490000 -0.271691 0.010261
vertex 0.505000 -0.269481 0.015000
endloop
endfacet
facet normal 0.000000 0.906307 -0.422619
outer loop
vertex 0.505000 -0.269481 0.015000
vertex 0.490000 -0.271691 0.010261
vertex 0.490000 -0.269481 0.015000
endloop
endfacet
facet normal 0.000000 0.819147 -0.573584
outer loop
vertex 0.505000 -0.269481 0.015000
vertex 0.490000 -0.269481 0.015000
vertex 0.505000 -0.266481 0.019284
endloop
endfacet
facet normal 0.000000 0.819147 -0.573584
outer loop
vertex 0.505000 -0.266481 0.019284
vertex 0.490000 -0.269481 0.015000
vertex 0.490000 -0.266481 0.019284
endloop
endfacet
facet normal 0.000000 0.707104 -0.707110
outer loop
vertex 0.505000 -0.266481 0.019284
vertex 0.490000 -0.266481 0.019284
vertex 0.505000 -0.262784 0.022981
endloop
endfacet
facet normal 0.000000 0.707111 -0.707102
outer loop
vertex 0.505000 -0.262784 0.022981
vertex 0.490000 -0.266481 0.019284
vertex 0.490000 -0.262784 0.022981
endloop
endfacet
facet normal 0.000000 0.573573 -0.819154
outer loop
vertex 0.505000 -0.262784 0.022981
vertex 0.490000 -0.262784 0.022981
vertex 0.505000 -0.258500 0.025981
endloop
endfacet
facet normal 0.000000 0.573581 -0.819149
outer loop
vertex 0.505000 -0.258500 0.025981
vertex 0.490000 -0.262784 0.022981
vertex 0.490000 -0.258500 0.025981
endloop
endfacet
facet normal 0.000000 0.422622 -0.906306
outer loop
vertex 0.505000 -0.258500 0.025981
vertex 0.490000 -0.258500 0.025981
vertex 0.505000 -0.253761 0.028191
endloop
endfacet
facet normal 0.000000 0.422617 -0.906308
outer loop
vertex 0.505000 -0.253761 0.028191
vertex 0.490000 -0.258500 0.025981
vertex 0.490000 -0.253761 0.028191
endloop
endfacet
facet normal 0.000000 0.258818 -0.965926
outer loop
vertex 0.505000 -0.253761 0.028191
vertex 0.490000 -0.253761 0.028191
vertex 0.505000 -0.248709 0.029544
endloop
endfacet
facet normal 0.000000 0.258816 -0.965927
outer loop
vertex 0.505000 -0.248709 0.029544
vertex 0.490000 -0.253761 0.028191
vertex 0.490000 -0.248709 0.029544
endloop
endfacet
facet normal 0.000000 0.087156 -0.996195
outer loop
vertex 0.505000 -0.248709 0.029544
vertex 0.490000 -0.248709 0.029544
vertex 0.505000 -0.243500 0.030000
endloop
endfacet
facet normal 0.000000 0.087157 -0.996195
outer loop
vertex 0.505000 -0.243500 0.030000
vertex 0.490000 -0.248709 0.029544
vertex 0.490000 -0.243500 0.030000
endloop
endfacet
facet normal 0.000000 -0.087155 -0.996195
outer loop
vertex 0.505000 -0.243500 0.030000
vertex 0.490000 -0.243500 0.030000
vertex 0.505000 -0.238291 0.029544
endloop
endfacet
facet normal 0.000000 -0.087156 -0.996195
outer loop
vertex 0.505000 -0.238291 0.029544
vertex 0.490000 -0.243500 0.030000
vertex 0.490000 -0.238291 0.029544
endloop
endfacet
facet normal 0.000000 -0.258821 -0.965925
outer loop
vertex 0.505000 -0.238291 0.029544
vertex 0.490000 -0.238291 0.029544
vertex 0.505000 -0.233239 0.028191
endloop
endfacet
facet normal 0.000000 -0.258821 -0.965925
outer loop
vertex 0.505000 -0.233239 0.028191
vertex 0.490000 -0.238291 0.029544
vertex 0.490000 -0.233239 0.028191
endloop
endfacet
facet normal 0.000000 -0.422624 -0.906305
outer loop
vertex 0.505000 -0.233239 0.028191
vertex 0.490000 -0.233239 0.028191
vertex 0.505000 -0.228500 0.025981
endloop
endfacet
facet normal 0.000000 -0.422617 -0.906308
outer loop
vertex 0.505000 -0.228500 0.025981
vertex 0.490000 -0.233239 0.028191
vertex 0.490000 -0.228500 0.025981
endloop
endfacet
facet normal 0.000000 -0.573576 -0.819152
outer loop
vertex 0.505000 -0.228500 0.025981
vertex 0.490000 -0.228500 0.025981
vertex 0.505000 -0.224216 0.022981
endloop
endfacet
facet normal 0.000000 -0.573578 -0.819151
outer loop
vertex 0.505000 -0.224216 0.022981
vertex 0.490000 -0.228500 0.025981
vertex 0.490000 -0.224216 0.022981
endloop
endfacet
facet normal 0.000000 -0.707098 -0.707116
outer loop
vertex 0.505000 -0.224216 0.022981
vertex 0.490000 -0.224216 0.022981
vertex 0.505000 -0.220519 0.019284
endloop
endfacet
facet normal 0.000000 -0.707096 -0.707117
outer loop
vertex 0.505000 -0.220519 0.019284
vertex 0.490000 -0.224216 0.022981
vertex 0.490000 -0.220519 0.019284
endloop
endfacet
facet normal 0.000000 -0.819158 -0.573568
outer loop
vertex 0.505000 -0.220519 0.019284
vertex 0.490000 -0.220519 0.019284
vertex 0.505000 -0.217519 0.015000
endloop
endfacet
facet normal 0.000000 -0.819155 -0.573572
outer loop
vertex 0.505000 -0.217519 0.015000
vertex 0.490000 -0.220519 0.019284
vertex 0.490000 -0.217519 0.015000
endloop
endfacet
facet normal 0.000000 -0.906307 -0.422619
outer loop
vertex 0.505000 -0.217519 0.015000
vertex 0.490000 -0.217519 0.015000
vertex 0.505000 -0.215309 0.010261
endloop
endfacet
facet normal 0.000000 -0.906310 -0.422614
outer loop
vertex 0.505000 -0.215309 0.010261
vertex 0.490000 -0.217519 0.015000
vertex 0.490000 -0.215309 0.010261
endloop
endfacet
facet normal 0.000000 -0.965922 -0.258832
outer loop
vertex 0.505000 -0.215309 0.010261
vertex 0.490000 -0.215309 0.010261
vertex 0.505000 -0.213956 0.005209
endloop
endfacet
facet normal 0.000000 -0.965924 -0.258826
outer loop
vertex 0.505000 -0.213956 0.005209
vertex 0.490000 -0.215309 0.010261
vertex 0.490000 -0.213956 0.005209
endloop
endfacet
facet normal 0.000000 -0.996196 -0.087136
outer loop
vertex 0.505000 -0.213956 0.005209
vertex 0.490000 -0.213956 0.005209
vertex 0.505000 -0.213500 -0.000000
endloop
endfacet
facet normal 0.000000 -0.996196 -0.087142
outer loop
vertex 0.505000 -0.213500 -0.000000
vertex 0.490000 -0.213956 0.005209
vertex 0.490000 -0.213500 -0.000000
endloop
endfacet
facet normal 0.000000 0.996193 -0.087172
outer loop
vertex 0.505000 -0.723500 -0.000000
vertex 0.490000 -0.723500 -0.000000
vertex 0.505000 -0.723044 0.005209
endloop
endfacet
facet normal 0.000000 0.996195 -0.087148
outer loop
vertex 0.505000 -0.723044 0.005209
vertex 0.490000 -0.723500 -0.000000
vertex 0.490000 -0.723044 0.005209
endloop
endfacet
facet normal 0.000000 0.965928 -0.258809
outer loop
vertex 0.505000 -0.723044 0.005209
vertex 0.490000 -0.723044 0.005209
vertex 0.505000 -0.721691 0.010261
endloop
endfacet
facet normal 0.000000 0.965928 -0.258809
outer loop
vertex 0.505000 -0.721691 0.010261
vertex 0.490000 -0.723044 0.005209
vertex 0.490000 -0.721691 0.010261
endloop
endfacet
facet normal 0.000000 0.906312 -0.422610
outer loop
vertex 0.505000 -0.721691 0.010261
vertex 0.490000 -0.721691 0.010261
vertex 0.505000 -0.719481 0.015000
endloop
endfacet
facet normal 0.000000 0.906312 -0.422610
outer loop
vertex 0.505000 -0.719481 0.015000
vertex 0.490000 -0.721691 0.010261
vertex 0.490000 -0.719481 0.015000
endloop
endfacet
facet normal 0.000000 0.819147 -0.573584
outer loop
vertex 0.505000 -0.719481 0.015000
vertex 0.490000 -0.719481 0.015000
vertex 0.505000 -0.716481 0.019284
endloop
endfacet
facet normal 0.000000 0.819147 -0.573584
outer loop
vertex 0.505000 -0.716481 0.019284
vertex 0.490000 -0.719481 0.015000
vertex 0.490000 -0.716481 0.019284
endloop
endfacet
facet normal 0.000000 0.707104 -0.707110
outer loop
vertex 0.505000 -0.716481 0.019284
vertex 0.490000 -0.716481 0.019284
vertex 0.505000 -0.712784 0.022981
endloop
endfacet
facet normal 0.000000 0.707105 -0.707108
outer loop
vertex 0.505000 -0.712784 0.022981
vertex 0.490000 -0.716481 0.019284
vertex 0.490000 -0.712784 0.022981
endloop
endfacet
facet normal 0.000000 0.573579 -0.819150
outer loop
vertex 0.505000 -0.712784 0.022981
vertex 0.490000 -0.712784 0.022981
vertex 0.505000 -0.708500 0.025981
endloop
endfacet
facet normal 0.000000 0.573581 -0.819149
outer loop
vertex 0.505000 -0.708500 0.025981
vertex 0.490000 -0.712784 0.022981
vertex 0.490000 -0.708500 0.025981
endloop
endfacet
facet normal 0.000000 0.422608 -0.906313
outer loop
vertex 0.505000 -0.708500 0.025981
vertex 0.490000 -0.708500 0.025981
vertex 0.505000 -0.703761 0.028191
endloop
endfacet
facet normal 0.000000 0.422615 -0.906310
outer loop
vertex 0.505000 -0.703761 0.028191
vertex 0.490000 -0.708500 0.025981
vertex 0.490000 -0.703761 0.028191
endloop
endfacet
facet normal 0.000000 0.258821 -0.965925
outer loop
vertex 0.505000 -0.703761 0.028191
vertex 0.490000 -0.703761 0.028191
vertex 0.505000 -0.698709 0.029544
endloop
endfacet
facet normal 0.000000 0.258821 -0.965925
outer loop
vertex 0.505000 -0.698709 0.029544
vertex 0.490000 -0.703761 0.028191
vertex 0.490000 -0.698709 0.029544
endloop
endfacet
facet normal 0.000000 0.087156 -0.996195
outer loop
vertex 0.505000 -0.698709 0.029544
vertex 0.490000 -0.698709 0.029544
vertex 0.505000 -0.693500 0.030000
endloop
endfacet
facet normal 0.000000 0.087156 -0.996195
outer loop
vertex 0.505000 -0.693500 0.030000
vertex 0.490000 -0.698709 0.029544
vertex 0.490000 -0.693500 0.030000
endloop
endfacet
facet normal 0.000000 -0.087156 -0.996195
outer loop
vertex 0.505000 -0.693500 0.030000
vertex 0.490000 -0.693500 0.030000
vertex 0.505000 -0.688291 0.029544
endloop
endfacet
facet normal 0.000000 -0.087156 -0.996195
outer loop
vertex 0.505000 -0.688291 0.029544
vertex 0.490000 -0.693500 0.030000
vertex 0.490000 -0.688291 0.029544
endloop
endfacet
facet normal 0.000000 -0.258821 -0.965925
outer loop
vertex 0.505000 -0.688291 0.029544
vertex 0.490000 -0.688291 0.029544
vertex 0.505000 -0.683239 0.028191
endloop
endfacet
facet normal 0.000000 -0.258821 -0.965925
outer loop
vertex 0.505000 -0.683239 0.028191
vertex 0.490000 -0.688291 0.029544
vertex 0.490000 -0.683239 0.028191
endloop
endfacet
facet normal 0.000000 -0.422626 -0.906304
outer loop
vertex 0.505000 -0.683239 0.028191
vertex 0.490000 -0.683239 0.028191
vertex 0.505000 -0.678500 0.025981
endloop
endfacet
facet normal 0.000000 -0.422615 -0.906310
outer loop
vertex 0.505000 -0.678500 0.025981
vertex 0.490000 -0.683239 0.028191
vertex 0.490000 -0.678500 0.025981
endloop
endfacet
facet normal 0.000000 -0.573579 -0.819150
outer loop
vertex 0.505000 -0.678500 0.025981
vertex 0.490000 -0.678500 0.025981
vertex 0.505000 -0.674216 0.022981
endloop
endfacet
facet normal 0.000000 -0.573592 -0.819141
outer loop
vertex 0.505000 -0.674216 0.022981
vertex 0.490000 -0.678500 0.025981
vertex 0.490000 -0.674216 0.022981
endloop
endfacet
facet normal 0.000000 -0.707092 -0.707122
outer loop
vertex 0.505000 -0.674216 0.022981
vertex 0.490000 -0.674216 0.022981
vertex 0.505000 -0.670519 0.019284
endloop
endfacet
facet normal 0.000000 -0.707105 -0.707108
outer loop
vertex 0.505000 -0.670519 0.019284
vertex 0.490000 -0.674216 0.022981
vertex 0.490000 -0.670519 0.019284
endloop
endfacet
facet normal 0.000000 -0.819158 -0.573568
outer loop
vertex 0.505000 -0.670519 0.019284
vertex 0.490000 -0.670519 0.019284
vertex 0.505000 -0.667519 0.015000
endloop
endfacet
facet normal 0.000000 -0.819136 -0.573600
outer loop
vertex 0.505000 -0.667519 0.015000
vertex 0.490000 -0.670519 0.019284
vertex 0.490000 -0.667519 0.015000
endloop
endfacet
facet normal 0.000000 -0.906312 -0.422610
outer loop
vertex 0.505000 -0.667519 0.015000
vertex 0.490000 -0.667519 0.015000
vertex 0.505000 -0.665309 0.010261
endloop
endfacet
facet normal 0.000000 -0.906303 -0.422629
outer loop
vertex 0.505000 -0.665309 0.010261
vertex 0.490000 -0.667519 0.015000
vertex 0.490000 -0.665309 0.010261
endloop
endfacet
facet normal 0.000000 -0.965928 -0.258809
outer loop
vertex 0.505000 -0.665309 0.010261
vertex 0.490000 -0.665309 0.010261
vertex 0.505000 -0.663956 0.005209
endloop
endfacet
facet normal 0.000000 -0.965934 -0.258787
outer loop
vertex 0.505000 -0.663956 0.005209
vertex 0.490000 -0.665309 0.010261
vertex 0.490000 -0.663956 0.005209
endloop
endfacet
facet normal 0.000000 -0.996193 -0.087172
outer loop
vertex 0.505000 -0.663956 0.005209
vertex 0.490000 -0.663956 0.005209
vertex 0.505000 -0.663500 -0.000000
endloop
endfacet
facet normal 0.000000 -0.996193 -0.087172
outer loop
vertex 0.505000 -0.663500 -0.000000
vertex 0.490000 -0.663956 0.005209
vertex 0.490000 -0.663500 -0.000000
endloop
endfacet
endsolid baffle3
