solid baffle1
facet normal 0.000000 0.000000 -1.000000
outer loop
vertex 0.170000 -0.213500 -0.000000
vertex 0.170000 -0.123500 -0.000000
vertex 0.185000 -0.213500 -0.000000
endloop
endfacet
facet normal 0.000000 0.000000 -1.000000
outer loop
vertex 0.185000 -0.213500 -0.000000
vertex 0.170000 -0.123500 -0.000000
vertex 0.185000 -0.123500 -0.000000
endloop
endfacet
facet normal 0.000000 0.000000 -1.000000
outer loop
vertex 0.170000 -0.063500 -0.000000
vertex 0.170000 0.000000 0.000000
vertex 0.185000 -0.063500 -0.000000
endloop
endfacet
facet normal 0.000000 0.000000 -1.000000
outer loop
vertex 0.185000 -0.063500 -0.000000
vertex 0.170000 0.000000 0.000000
vertex 0.185000 0.000000 0.000000
endloop
endfacet
facet normal 0.000000 0.000000 -1.000000
outer loop
vertex 0.170000 -0.663500 -0.000000
vertex 0.170000 -0.573500 -0.000000
vertex 0.185000 -0.663500 -0.000000
endloop
endfacet
facet normal 0.000000 0.000000 -1.000000
outer loop
vertex 0.185000 -0.663500 -0.000000
vertex 0.170000 -0.573500 -0.000000
vertex 0.185000 -0.573500 -0.000000
endloop
endfacet
facet normal 0.000000 0.000000 -1.000000
outer loop
vertex 0.170000 -0.513500 -0.000000
vertex 0.170000 -0.423500 -0.000000
vertex 0.185000 -0.513500 -0.000000
endloop
endfacet
facet normal 0.000000 0.000000 -1.000000
outer loop
vertex 0.185000 -0.513500 -0.000000
vertex 0.170000 -0.423500 -0.000000
vertex 0.185000 -0.423500 -0.000000
endloop
endfacet
facet normal 0.000000 0.000000 -1.000000
outer loop
vertex 0.185000 -0.273500 -0.000000
vertex 0.185000 -0.363500 -0.000000
vertex 0.170000 -0.273500 -0.000000
endloop
endfacet
facet normal 0.000000 0.000000 -1.000000
outer loop
vertex 0.170000 -0.273500 -0.000000
vertex 0.185000 -0.363500 -0.000000
vertex 0.170000 -0.363500 -0.000000
endloop
endfacet
facet normal 0.000000 -1.000000 0.000000
outer loop
vertex 0.185000 -0.787000 -0.000000
vertex 0.185000 -0.787000 0.065000
vertex 0.170000 -0.787000 -0.000000
endloop
endfacet
facet normal 0.000000 -1.000000 0.000000
outer loop
vertex 0.170000 -0.787000 -0.000000
vertex 0.185000 -0.787000 0.065000
vertex 0.170000 -0.787000 0.065000
endloop
endfacet
facet normal 0.000000 0.000000 -1.000000
outer loop
vertex 0.185000 -0.723500 -0.000000
vertex 0.185000 -0.787000 -0.000000
vertex 0.170000 -0.723500 -0.000000
endloop
endfacet
facet normal 0.000000 0.000000 -1.000000
outer loop
vertex 0.170000 -0.723500 -0.000000
vertex 0.185000 -0.787000 -0.000000
vertex 0.170000 -0.787000 -0.000000
endloop
endfacet
facet normal 0.000000 1.000000 0.000000
outer loop
vertex 0.185000 -0.000000 0.065000
vertex 0.185000 0.000000 0.000000
vertex 0.170000 -0.000000 0.065000
endloop
endfacet
facet normal 0.000000 1.000000 0.000000
outer loop
vertex 0.170000 -0.000000 0.065000
vertex 0.185000 0.000000 0.000000
vertex 0.170000 0.000000 0.000000
endloop
endfacet
facet normal 0.000000 -0.000000 1.000000
outer loop
vertex 0.185000 -0.787000 0.065000
vertex 0.185000 -0.000000 0.065000
vertex 0.170000 -0.787000 0.065000
endloop
endfacet
facet normal 0.000000 -0.000000 1.000000
outer loop
vertex 0.170000 -0.787000 0.065000
vertex 0.185000 -0.000000 0.065000
vertex 0.170000 -0.000000 0.065000
endloop
endfacet
facet normal 1.000000 0.000000 0.000000
outer loop
vertex 0.185000 -0.403761 0.028191
vertex 0.185000 -0.398709 0.029544
vertex 0.185000 -0.517519 0.015000
endloop
endfacet
facet normal 1.000000 0.000000 0.000000
outer loop
vertex 0.185000 -0.670519 0.019284
vertex 0.185000 -0.667519 0.015000
vertex 0.185000 -0.566481 0.019284
endloop
endfacet
facet normal 1.000000 0.000000 0.000000
outer loop
vertex 0.185000 -0.383239 0.028191
vertex 0.185000 -0.378500 0.025981
vertex 0.185000 -0.000000 0.065000
endloop
endfacet
facet normal 1.000000 0.000000 0.000000
outer loop
vertex 0.185000 -0.378500 0.025981
vertex 0.185000 -0.374216 0.022981
vertex 0.185000 -0.000000 0.065000
endloop
endfacet
facet normal 1.000000 0.000000 0.000000
outer loop
vertex 0.185000 -0.000000 0.065000
vertex 0.185000 -0.374216 0.022981
vertex 0.185000 -0.370519 0.019284
endloop
endfacet
facet normal 1.000000 0.000001 0.000000
outer loop
vertex 0.185000 -0.000000 0.065000
vertex 0.185000 -0.370519 0.019284
vertex 0.185000 -0.367519 0.015000
endloop
endfacet
facet normal 1.000000 0.000000 0.000000
outer loop
vertex 0.185000 -0.688291 0.029544
vertex 0.185000 -0.683239 0.028191
vertex 0.185000 -0.566481 0.019284
endloop
endfacet
facet normal 1.000000 0.000000 0.000000
outer loop
vertex 0.185000 -0.558500 0.025981
vertex 0.185000 -0.553761 0.028191
vertex 0.185000 -0.787000 0.065000
endloop
endfacet
facet normal 1.000000 -0.000000 0.000000
outer loop
vertex 0.185000 -0.363500 -0.000000
vertex 0.185000 -0.273500 -0.000000
vertex 0.185000 -0.363956 0.005209
endloop
endfacet
facet normal 1.000000 0.000000 0.000000
outer loop
vertex 0.185000 -0.363956 0.005209
vertex 0.185000 -0.273500 -0.000000
vertex 0.185000 -0.273044 0.005209
endloop
endfacet
facet normal 1.000000 0.000000 0.000000
outer loop
vertex 0.185000 -0.363956 0.005209
vertex 0.185000 -0.273044 0.005209
vertex 0.185000 -0.365309 0.010261
endloop
endfacet
facet normal 1.000000 0.000000 0.000000
outer loop
vertex 0.185000 -0.365309 0.010261
vertex 0.185000 -0.273044 0.005209
vertex 0.185000 -0.271691 0.010261
endloop
endfacet
facet normal 1.000000 -0.000000 0.000000
outer loop
vertex 0.185000 -0.365309 0.010261
vertex 0.185000 -0.271691 0.010261
vertex 0.185000 -0.367519 0.015000
endloop
endfacet
facet normal 1.000000 0.000000 0.000000
outer loop
vertex 0.185000 -0.367519 0.015000
vertex 0.185000 -0.271691 0.010261
vertex 0.185000 -0.269481 0.015000
endloop
endfacet
facet normal 1.000000 0.000000 0.000000
outer loop
vertex 0.185000 -0.716481 0.019284
vertex 0.185000 -0.787000 0.065000
vertex 0.185000 -0.719481 0.015000
endloop
endfacet
facet normal 1.000000 0.000004 0.000000
outer loop
vertex 0.185000 -0.719481 0.015000
vertex 0.185000 -0.787000 0.065000
vertex 0.185000 -0.721691 0.010261
endloop
endfacet
facet normal 1.000000 -0.000002 0.000000
outer loop
vertex 0.185000 -0.716481 0.019284
vertex 0.185000 -0.712784 0.022981
vertex 0.185000 -0.787000 0.065000
endloop
endfacet
facet normal 1.000000 -0.000001 0.000000
outer loop
vertex 0.185000 -0.787000 0.065000
vertex 0.185000 -0.712784 0.022981
vertex 0.185000 -0.708500 0.025981
endloop
endfacet
facet normal 1.000000 -0.000000 0.000000
outer loop
vertex 0.185000 -0.787000 0.065000
vertex 0.185000 -0.708500 0.025981
vertex 0.185000 -0.703761 0.028191
endloop
endfacet
facet normal 1.000000 0.000003 0.000000
outer loop
vertex 0.185000 -0.703761 0.028191
vertex 0.185000 -0.698709 0.029544
vertex 0.185000 -0.787000 0.065000
endloop
endfacet
facet normal 1.000000 0.000001 0.000000
outer loop
vertex 0.185000 -0.787000 0.065000
vertex 0.185000 -0.698709 0.029544
vertex 0.185000 -0.693500 0.030000
endloop
endfacet
facet normal 1.000000 -0.000001 0.000000
outer loop
vertex 0.185000 -0.787000 0.065000
vertex 0.185000 -0.693500 0.030000
vertex 0.185000 -0.688291 0.029544
endloop
endfacet
facet normal 1.000000 -0.000001 0.000000
outer loop
vertex 0.185000 -0.683239 0.028191
vertex 0.185000 -0.678500 0.025981
vertex 0.185000 -0.566481 0.019284
endloop
endfacet
facet normal 1.000000 0.000000 0.000000
outer loop
vertex 0.185000 -0.566481 0.019284
vertex 0.185000 -0.678500 0.025981
vertex 0.185000 -0.674216 0.022981
endloop
endfacet
facet normal 1.000000 0.000000 0.000000
outer loop
vertex 0.185000 -0.566481 0.019284
vertex 0.185000 -0.674216 0.022981
vertex 0.185000 -0.670519 0.019284
endloop
endfacet
facet normal 1.000000 -0.000000 0.000000
outer loop
vertex 0.185000 -0.667519 0.015000
vertex 0.185000 -0.665309 0.010261
vertex 0.185000 -0.566481 0.019284
endloop
endfacet
facet normal 1.000000 0.000000 0.000000
outer loop
vertex 0.185000 -0.566481 0.019284
vertex 0.185000 -0.665309 0.010261
vertex 0.185000 -0.663956 0.005209
endloop
endfacet
facet normal 1.000000 -0.000001 0.000000
outer loop
vertex 0.185000 -0.566481 0.019284
vertex 0.185000 -0.663956 0.005209
vertex 0.185000 -0.569481 0.015000
endloop
endfacet
facet normal 1.000000 0.000000 0.000000
outer loop
vertex 0.185000 -0.569481 0.015000
vertex 0.185000 -0.663956 0.005209
vertex 0.185000 -0.571691 0.010261
endloop
endfacet
facet normal 1.000000 -0.000005 0.000000
outer loop
vertex 0.185000 -0.721691 0.010261
vertex 0.185000 -0.787000 0.065000
vertex 0.185000 -0.723044 0.005209
endloop
endfacet
facet normal 1.000000 0.000000 0.000000
outer loop
vertex 0.185000 -0.723044 0.005209
vertex 0.185000 -0.787000 0.065000
vertex 0.185000 -0.787000 -0.000000
endloop
endfacet
facet normal 1.000000 0.000000 0.000000
outer loop
vertex 0.185000 -0.723044 0.005209
vertex 0.185000 -0.787000 -0.000000
vertex 0.185000 -0.723500 -0.000000
endloop
endfacet
facet normal 1.000000 -0.000000 0.000000
outer loop
vertex 0.185000 -0.663500 -0.000000
vertex 0.185000 -0.573500 -0.000000
vertex 0.185000 -0.663956 0.005209
endloop
endfacet
facet normal 1.000000 0.000000 0.000000
outer loop
vertex 0.185000 -0.663956 0.005209
vertex 0.185000 -0.573500 -0.000000
vertex 0.185000 -0.573044 0.005209
endloop
endfacet
facet normal 1.000000 0.000000 0.000000
outer loop
vertex 0.185000 -0.663956 0.005209
vertex 0.185000 -0.573044 0.005209
vertex 0.185000 -0.571691 0.010261
endloop
endfacet
facet normal 1.000000 0.000000 0.000000
outer loop
vertex 0.185000 -0.688291 0.029544
vertex 0.185000 -0.566481 0.019284
vertex 0.185000 -0.787000 0.065000
endloop
endfacet
facet normal 1.000000 -0.000000 0.000000
outer loop
vertex 0.185000 -0.787000 0.065000
vertex 0.185000 -0.566481 0.019284
vertex 0.185000 -0.562784 0.022981
endloop
endfacet
facet normal 1.000000 -0.000000 0.000000
outer loop
vertex 0.185000 -0.787000 0.065000
vertex 0.185000 -0.562784 0.022981
vertex 0.185000 -0.558500 0.025981
endloop
endfacet
facet normal 1.000000 0.000002 0.000000
outer loop
vertex 0.185000 -0.553761 0.028191
vertex 0.185000 -0.548709 0.029544
vertex 0.185000 -0.787000 0.065000
endloop
endfacet
facet normal 1.000000 0.000004 0.000000
outer loop
vertex 0.185000 -0.787000 0.065000
vertex 0.185000 -0.548709 0.029544
vertex 0.185000 -0.543500 0.030000
endloop
endfacet
facet normal 1.000000 0.000000 0.000000
outer loop
vertex 0.185000 -0.787000 0.065000
vertex 0.185000 -0.543500 0.030000
vertex 0.185000 -0.000000 0.065000
endloop
endfacet
facet normal 1.000000 -0.000002 0.000000
outer loop
vertex 0.185000 -0.000000 0.065000
vertex 0.185000 -0.543500 0.030000
vertex 0.185000 -0.538291 0.029544
endloop
endfacet
facet normal 1.000000 -0.000001 0.000000
outer loop
vertex 0.185000 -0.000000 0.065000
vertex 0.185000 -0.538291 0.029544
vertex 0.185000 -0.533239 0.028191
endloop
endfacet
facet normal 1.000000 0.000000 0.000000
outer loop
vertex 0.185000 -0.533239 0.028191
vertex 0.185000 -0.528500 0.025981
vertex 0.185000 -0.000000 0.065000
endloop
endfacet
facet normal 1.000000 0.000001 0.000000
outer loop
vertex 0.185000 -0.000000 0.065000
vertex 0.185000 -0.528500 0.025981
vertex 0.185000 -0.524216 0.022981
endloop
endfacet
facet normal 1.000000 -0.000000 0.000000
outer loop
vertex 0.185000 -0.000000 0.065000
vertex 0.185000 -0.524216 0.022981
vertex 0.185000 -0.520519 0.019284
endloop
endfacet
facet normal 1.000000 -0.000000 0.000000
outer loop
vertex 0.185000 -0.423044 0.005209
vertex 0.185000 -0.421691 0.010261
vertex 0.185000 -0.517519 0.015000
endloop
endfacet
facet normal 1.000000 0.000000 0.000000
outer loop
vertex 0.185000 -0.517519 0.015000
vertex 0.185000 -0.421691 0.010261
vertex 0.185000 -0.419481 0.015000
endloop
endfacet
facet normal 1.000000 0.000000 0.000000
outer loop
vertex 0.185000 -0.517519 0.015000
vertex 0.185000 -0.419481 0.015000
vertex 0.185000 -0.416481 0.019284
endloop
endfacet
facet normal 1.000000 -0.000001 0.000000
outer loop
vertex 0.185000 -0.233239 0.028191
vertex 0.185000 -0.228500 0.025981
vertex 0.185000 -0.116481 0.019284
endloop
endfacet
facet normal 1.000000 0.000000 0.000000
outer loop
vertex 0.185000 -0.116481 0.019284
vertex 0.185000 -0.228500 0.025981
vertex 0.185000 -0.224216 0.022981
endloop
endfacet
facet normal 1.000000 0.000000 0.000000
outer loop
vertex 0.185000 -0.116481 0.019284
vertex 0.185000 -0.224216 0.022981
vertex 0.185000 -0.220519 0.019284
endloop
endfacet
facet normal 1.000000 0.000000 0.000000
outer loop
vertex 0.185000 -0.217519 0.015000
vertex 0.185000 -0.121691 0.010261
vertex 0.185000 -0.220519 0.019284
endloop
endfacet
facet normal 1.000000 0.000000 0.000000
outer loop
vertex 0.185000 -0.220519 0.019284
vertex 0.185000 -0.121691 0.010261
vertex 0.185000 -0.119481 0.015000
endloop
endfacet
facet normal 1.000000 0.000000 0.000000
outer loop
vertex 0.185000 -0.220519 0.019284
vertex 0.185000 -0.119481 0.015000
vertex 0.185000 -0.116481 0.019284
endloop
endfacet
facet normal 1.000000 0.000000 0.000000
outer loop
vertex 0.185000 -0.083239 0.028191
vertex 0.185000 -0.078500 0.025981
vertex 0.185000 -0.000000 0.065000
endloop
endfacet
facet normal 1.000000 -0.000002 0.000000
outer loop
vertex 0.185000 -0.000000 0.065000
vertex 0.185000 -0.078500 0.025981
vertex 0.185000 -0.074216 0.022981
endloop
endfacet
facet normal 1.000000 0.000003 0.000000
outer loop
vertex 0.185000 -0.000000 0.065000
vertex 0.185000 -0.074216 0.022981
vertex 0.185000 -0.070519 0.019284
endloop
endfacet
facet normal 1.000000 0.000000 0.000000
outer loop
vertex 0.185000 -0.070519 0.019284
vertex 0.185000 -0.067519 0.015000
vertex 0.185000 -0.000000 0.065000
endloop
endfacet
facet normal 1.000000 0.000001 0.000000
outer loop
vertex 0.185000 -0.000000 0.065000
vertex 0.185000 -0.067519 0.015000
vertex 0.185000 -0.065309 0.010261
endloop
endfacet
facet normal 1.000000 0.000000 0.000000
outer loop
vertex 0.185000 -0.000000 0.065000
vertex 0.185000 -0.065309 0.010261
vertex 0.185000 0.000000 0.000000
endloop
endfacet
facet normal 1.000000 -0.000000 0.000000
outer loop
vertex 0.185000 0.000000 0.000000
vertex 0.185000 -0.065309 0.010261
vertex 0.185000 -0.063956 0.005209
endloop
endfacet
facet normal 1.000000 0.000000 0.000000
outer loop
vertex 0.185000 0.000000 0.000000
vertex 0.185000 -0.063956 0.005209
vertex 0.185000 -0.063500 -0.000000
endloop
endfacet
facet normal 1.000000 -0.000000 0.000000
outer loop
vertex 0.185000 -0.213956 0.005209
vertex 0.185000 -0.213500 -0.000000
vertex 0.185000 -0.123500 -0.000000
endloop
endfacet
facet normal 1.000000 -0.000000 0.000000
outer loop
vertex 0.185000 -0.517519 0.015000
vertex 0.185000 -0.398709 0.029544
vertex 0.185000 -0.520519 0.019284
endloop
endfacet
facet normal 1.000000 -0.000049 0.000000
outer loop
vertex 0.185000 -0.520519 0.019284
vertex 0.185000 -0.398709 0.029544
vertex 0.185000 -0.393500 0.030000
endloop
endfacet
facet normal 1.000000 0.000004 0.000000
outer loop
vertex 0.185000 -0.520519 0.019284
vertex 0.185000 -0.393500 0.030000
vertex 0.185000 -0.000000 0.065000
endloop
endfacet
facet normal 1.000000 -0.000003 0.000000
outer loop
vertex 0.185000 -0.000000 0.065000
vertex 0.185000 -0.393500 0.030000
vertex 0.185000 -0.388290 0.029544
endloop
endfacet
facet normal 1.000000 -0.000001 0.000000
outer loop
vertex 0.185000 -0.000000 0.065000
vertex 0.185000 -0.388290 0.029544
vertex 0.185000 -0.383239 0.028191
endloop
endfacet
facet normal 1.000000 -0.000000 0.000000
outer loop
vertex 0.185000 -0.513500 -0.000000
vertex 0.185000 -0.423500 -0.000000
vertex 0.185000 -0.513956 0.005209
endloop
endfacet
facet normal 1.000000 0.000000 0.000000
outer loop
vertex 0.185000 -0.513956 0.005209
vertex 0.185000 -0.423500 -0.000000
vertex 0.185000 -0.423044 0.005209
endloop
endfacet
facet normal 1.000000 0.000000 0.000000
outer loop
vertex 0.185000 -0.513956 0.005209
vertex 0.185000 -0.423044 0.005209
vertex 0.185000 -0.515309 0.010261
endloop
endfacet
facet normal 1.000000 0.000000 0.000000
outer loop
vertex 0.185000 -0.515309 0.010261
vertex 0.185000 -0.423044 0.005209
vertex 0.185000 -0.517519 0.015000
endloop
endfacet
facet normal 1.000000 -0.000001 0.000000
outer loop
vertex 0.185000 -0.416481 0.019284
vertex 0.185000 -0.412784 0.022981
vertex 0.185000 -0.517519 0.015000
endloop
endfacet
facet normal 1.000000 0.000000 0.000000
outer loop
vertex 0.185000 -0.517519 0.015000
vertex 0.185000 -0.412784 0.022981
vertex 0.185000 -0.408500 0.025981
endloop
endfacet
facet normal 1.000000 0.000001 0.000000
outer loop
vertex 0.185000 -0.517519 0.015000
vertex 0.185000 -0.408500 0.025981
vertex 0.185000 -0.403761 0.028191
endloop
endfacet
facet normal 1.000000 -0.000000 0.000000
outer loop
vertex 0.185000 -0.217519 0.015000
vertex 0.185000 -0.215309 0.010261
vertex 0.185000 -0.121691 0.010261
endloop
endfacet
facet normal 1.000000 0.000000 0.000000
outer loop
vertex 0.185000 -0.121691 0.010261
vertex 0.185000 -0.215309 0.010261
vertex 0.185000 -0.213956 0.005209
endloop
endfacet
facet normal 1.000000 0.000000 0.000000
outer loop
vertex 0.185000 -0.121691 0.010261
vertex 0.185000 -0.213956 0.005209
vertex 0.185000 -0.123044 0.005209
endloop
endfacet
facet normal 1.000000 0.000000 0.000000
outer loop
vertex 0.185000 -0.123044 0.005209
vertex 0.185000 -0.213956 0.005209
vertex 0.185000 -0.123500 -0.000000
endloop
endfacet
facet normal 1.000000 -0.000000 0.000000
outer loop
vertex 0.185000 -0.269481 0.015000
vertex 0.185000 -0.266481 0.019284
vertex 0.185000 -0.367519 0.015000
endloop
endfacet
facet normal 1.000000 0.000000 0.000000
outer loop
vertex 0.185000 -0.367519 0.015000
vertex 0.185000 -0.266481 0.019284
vertex 0.185000 -0.262784 0.022981
endloop
endfacet
facet normal 1.000000 0.000000 0.000000
outer loop
vertex 0.185000 -0.367519 0.015000
vertex 0.185000 -0.262784 0.022981
vertex 0.185000 -0.258500 0.025981
endloop
endfacet
facet normal 1.000000 0.000000 0.000000
outer loop
vertex 0.185000 -0.098709 0.029544
vertex 0.185000 -0.093500 0.030000
vertex 0.185000 -0.000000 0.065000
endloop
endfacet
facet normal 1.000000 -0.000001 0.000000
outer loop
vertex 0.185000 -0.000000 0.065000
vertex 0.185000 -0.093500 0.030000
vertex 0.185000 -0.088291 0.029544
endloop
endfacet
facet normal 1.000000 0.000001 0.000000
outer loop
vertex 0.185000 -0.000000 0.065000
vertex 0.185000 -0.088291 0.029544
vertex 0.185000 -0.083239 0.028191
endloop
endfacet
facet normal 1.000000 0.000000 0.000000
outer loop
vertex 0.185000 -0.233239 0.028191
vertex 0.185000 -0.116481 0.019284
vertex 0.185000 -0.238291 0.029544
endloop
endfacet
facet normal 1.000000 0.000000 0.000000
outer loop
vertex 0.185000 -0.238291 0.029544
vertex 0.185000 -0.116481 0.019284
vertex 0.185000 -0.112784 0.022981
endloop
endfacet
facet normal 1.000000 0.000000 0.000000
outer loop
vertex 0.185000 -0.238291 0.029544
vertex 0.185000 -0.112784 0.022981
vertex 0.185000 -0.243500 0.030000
endloop
endfacet
facet normal 1.000000 -0.000000 0.000000
outer loop
vertex 0.185000 -0.243500 0.030000
vertex 0.185000 -0.112784 0.022981
vertex 0.185000 -0.108500 0.025981
endloop
endfacet
facet normal 1.000000 -0.000000 0.000000
outer loop
vertex 0.185000 -0.243500 0.030000
vertex 0.185000 -0.108500 0.025981
vertex 0.185000 -0.103761 0.028191
endloop
endfacet
facet normal 1.000000 0.000000 0.000000
outer loop
vertex 0.185000 -0.103761 0.028191
vertex 0.185000 -0.098709 0.029544
vertex 0.185000 -0.243500 0.030000
endloop
endfacet
facet normal 1.000000 0.000000 0.000000
outer loop
vertex 0.185000 -0.243500 0.030000
vertex 0.185000 -0.098709 0.029544
vertex 0.185000 -0.000000 0.065000
endloop
endfacet
facet normal 1.000000 0.000000 0.000000
outer loop
vertex 0.185000 -0.243500 0.030000
vertex 0.185000 -0.000000 0.065000
vertex 0.185000 -0.248709 0.029544
endloop
endfacet
facet normal 1.000000 -0.000003 0.000000
outer loop
vertex 0.185000 -0.248709 0.029544
vertex 0.185000 -0.000000 0.065000
vertex 0.185000 -0.367519 0.015000
endloop
endfacet
facet normal 1.000000 0.000000 0.000000
outer loop
vertex 0.185000 -0.248709 0.029544
vertex 0.185000 -0.367519 0.015000
vertex 0.185000 -0.253761 0.028191
endloop
endfacet
facet normal 1.000000 0.000000 0.000000
outer loop
vertex 0.185000 -0.253761 0.028191
vertex 0.185000 -0.367519 0.015000
vertex 0.185000 -0.258500 0.025981
endloop
endfacet
facet normal -1.000000 -0.000001 0.000000
outer loop
vertex 0.170000 -0.217519 0.015000
vertex 0.170000 -0.220519 0.019284
vertex 0.170000 -0.121691 0.010261
endloop
endfacet
facet normal -1.000000 0.000000 0.000000
outer loop
vertex 0.170000 -0.258500 0.025981
vertex 0.170000 -0.262784 0.022981
vertex 0.170000 -0.363956 0.005209
endloop
endfacet
facet normal -1.000000 -0.000001 0.000000
outer loop
vertex 0.170000 -0.363956 0.005209
vertex 0.170000 -0.262784 0.022981
vertex 0.170000 -0.266481 0.019284
endloop
endfacet
facet normal -1.000000 0.000000 0.000000
outer loop
vertex 0.170000 -0.363956 0.005209
vertex 0.170000 -0.266481 0.019284
vertex 0.170000 -0.269481 0.015000
endloop
endfacet
facet normal -1.000000 0.000000 0.000000
outer loop
vertex 0.170000 -0.121691 0.010261
vertex 0.170000 -0.220519 0.019284
vertex 0.170000 -0.119481 0.015000
endloop
endfacet
facet normal -1.000000 0.000001 0.000000
outer loop
vertex 0.170000 -0.000000 0.065000
vertex 0.170000 -0.367519 0.015000
vertex 0.170000 -0.370519 0.019284
endloop
endfacet
facet normal -1.000000 0.000002 0.000000
outer loop
vertex 0.170000 -0.712784 0.022981
vertex 0.170000 -0.716481 0.019284
vertex 0.170000 -0.787000 0.065000
endloop
endfacet
facet normal -1.000000 0.000000 0.000000
outer loop
vertex 0.170000 -0.273500 -0.000000
vertex 0.170000 -0.363500 -0.000000
vertex 0.170000 -0.273044 0.005209
endloop
endfacet
facet normal -1.000000 0.000000 0.000000
outer loop
vertex 0.170000 -0.273044 0.005209
vertex 0.170000 -0.363500 -0.000000
vertex 0.170000 -0.363956 0.005209
endloop
endfacet
facet normal -1.000000 0.000000 0.000000
outer loop
vertex 0.170000 -0.273044 0.005209
vertex 0.170000 -0.363956 0.005209
vertex 0.170000 -0.271691 0.010261
endloop
endfacet
facet normal -1.000000 0.000000 0.000000
outer loop
vertex 0.170000 -0.271691 0.010261
vertex 0.170000 -0.363956 0.005209
vertex 0.170000 -0.269481 0.015000
endloop
endfacet
facet normal -1.000000 0.000004 0.000000
outer loop
vertex 0.170000 -0.070519 0.019284
vertex 0.170000 -0.000000 0.065000
vertex 0.170000 -0.067519 0.015000
endloop
endfacet
facet normal -1.000000 -0.000004 0.000000
outer loop
vertex 0.170000 -0.067519 0.015000
vertex 0.170000 -0.000000 0.065000
vertex 0.170000 -0.065309 0.010261
endloop
endfacet
facet normal -1.000000 0.000000 0.000000
outer loop
vertex 0.170000 -0.228500 0.025981
vertex 0.170000 -0.233239 0.028191
vertex 0.170000 -0.116481 0.019284
endloop
endfacet
facet normal -1.000000 0.000000 0.000000
outer loop
vertex 0.170000 -0.571691 0.010261
vertex 0.170000 -0.667519 0.015000
vertex 0.170000 -0.569481 0.015000
endloop
endfacet
facet normal -1.000000 0.000000 0.000000
outer loop
vertex 0.170000 -0.569481 0.015000
vertex 0.170000 -0.667519 0.015000
vertex 0.170000 -0.566481 0.019284
endloop
endfacet
facet normal -1.000000 -0.000000 0.000000
outer loop
vertex 0.170000 -0.667519 0.015000
vertex 0.170000 -0.670519 0.019284
vertex 0.170000 -0.566481 0.019284
endloop
endfacet
facet normal -1.000000 0.000000 0.000000
outer loop
vertex 0.170000 -0.566481 0.019284
vertex 0.170000 -0.670519 0.019284
vertex 0.170000 -0.674216 0.022981
endloop
endfacet
facet normal -1.000000 0.000000 0.000000
outer loop
vertex 0.170000 -0.566481 0.019284
vertex 0.170000 -0.674216 0.022981
vertex 0.170000 -0.678500 0.025981
endloop
endfacet
facet normal -1.000000 0.000005 0.000000
outer loop
vertex 0.170000 -0.065309 0.010261
vertex 0.170000 -0.000000 0.065000
vertex 0.170000 -0.063956 0.005209
endloop
endfacet
facet normal -1.000000 0.000000 0.000000
outer loop
vertex 0.170000 -0.063956 0.005209
vertex 0.170000 -0.000000 0.065000
vertex 0.170000 0.000000 0.000000
endloop
endfacet
facet normal -1.000000 0.000000 0.000000
outer loop
vertex 0.170000 -0.063956 0.005209
vertex 0.170000 0.000000 0.000000
vertex 0.170000 -0.063500 -0.000000
endloop
endfacet
facet normal -1.000000 -0.000002 0.000000
outer loop
vertex 0.170000 -0.070519 0.019284
vertex 0.170000 -0.074216 0.022981
vertex 0.170000 -0.000000 0.065000
endloop
endfacet
facet normal -1.000000 0.000003 0.000000
outer loop
vertex 0.170000 -0.000000 0.065000
vertex 0.170000 -0.074216 0.022981
vertex 0.170000 -0.078500 0.025981
endloop
endfacet
facet normal -1.000000 -0.000001 0.000000
outer loop
vertex 0.170000 -0.000000 0.065000
vertex 0.170000 -0.078500 0.025981
vertex 0.170000 -0.083239 0.028191
endloop
endfacet
facet normal -1.000000 0.000000 0.000000
outer loop
vertex 0.170000 -0.119481 0.015000
vertex 0.170000 -0.220519 0.019284
vertex 0.170000 -0.116481 0.019284
endloop
endfacet
facet normal -1.000000 0.000000 0.000000
outer loop
vertex 0.170000 -0.116481 0.019284
vertex 0.170000 -0.220519 0.019284
vertex 0.170000 -0.224216 0.022981
endloop
endfacet
facet normal -1.000000 -0.000000 0.000000
outer loop
vertex 0.170000 -0.116481 0.019284
vertex 0.170000 -0.224216 0.022981
vertex 0.170000 -0.228500 0.025981
endloop
endfacet
facet normal -1.000000 -0.000001 0.000000
outer loop
vertex 0.170000 -0.370519 0.019284
vertex 0.170000 -0.374216 0.022981
vertex 0.170000 -0.000000 0.065000
endloop
endfacet
facet normal -1.000000 -0.000001 0.000000
outer loop
vertex 0.170000 -0.000000 0.065000
vertex 0.170000 -0.374216 0.022981
vertex 0.170000 -0.378500 0.025981
endloop
endfacet
facet normal -1.000000 -0.000000 0.000000
outer loop
vertex 0.170000 -0.000000 0.065000
vertex 0.170000 -0.378500 0.025981
vertex 0.170000 -0.383239 0.028191
endloop
endfacet
facet normal -1.000000 -0.000001 0.000000
outer loop
vertex 0.170000 -0.524216 0.022981
vertex 0.170000 -0.528500 0.025981
vertex 0.170000 -0.000000 0.065000
endloop
endfacet
facet normal -1.000000 -0.000000 0.000000
outer loop
vertex 0.170000 -0.000000 0.065000
vertex 0.170000 -0.528500 0.025981
vertex 0.170000 -0.533239 0.028191
endloop
endfacet
facet normal -1.000000 0.000000 0.000000
outer loop
vertex 0.170000 -0.533239 0.028191
vertex 0.170000 -0.538291 0.029544
vertex 0.170000 -0.000000 0.065000
endloop
endfacet
facet normal -1.000000 0.000001 0.000000
outer loop
vertex 0.170000 -0.000000 0.065000
vertex 0.170000 -0.538291 0.029544
vertex 0.170000 -0.543500 0.030000
endloop
endfacet
facet normal -1.000000 0.000000 0.000000
outer loop
vertex 0.170000 -0.000000 0.065000
vertex 0.170000 -0.543500 0.030000
vertex 0.170000 -0.787000 0.065000
endloop
endfacet
facet normal -1.000000 -0.000002 0.000000
outer loop
vertex 0.170000 -0.787000 0.065000
vertex 0.170000 -0.543500 0.030000
vertex 0.170000 -0.548709 0.029544
endloop
endfacet
facet normal -1.000000 -0.000002 0.000000
outer loop
vertex 0.170000 -0.787000 0.065000
vertex 0.170000 -0.548709 0.029544
vertex 0.170000 -0.553761 0.028191
endloop
endfacet
facet normal -1.000000 0.000000 0.000000
outer loop
vertex 0.170000 -0.103761 0.028191
vertex 0.170000 -0.108500 0.025981
vertex 0.170000 -0.243500 0.030000
endloop
endfacet
facet normal -1.000000 0.000000 0.000000
outer loop
vertex 0.170000 -0.553761 0.028191
vertex 0.170000 -0.558500 0.025981
vertex 0.170000 -0.787000 0.065000
endloop
endfacet
facet normal -1.000000 0.000001 0.000000
outer loop
vertex 0.170000 -0.787000 0.065000
vertex 0.170000 -0.558500 0.025981
vertex 0.170000 -0.562784 0.022981
endloop
endfacet
facet normal -1.000000 0.000000 0.000000
outer loop
vertex 0.170000 -0.787000 0.065000
vertex 0.170000 -0.562784 0.022981
vertex 0.170000 -0.566481 0.019284
endloop
endfacet
facet normal -1.000000 0.000000 0.000000
outer loop
vertex 0.170000 -0.573500 -0.000000
vertex 0.170000 -0.663500 -0.000000
vertex 0.170000 -0.573044 0.005209
endloop
endfacet
facet normal -1.000000 0.000000 0.000000
outer loop
vertex 0.170000 -0.573044 0.005209
vertex 0.170000 -0.663500 -0.000000
vertex 0.170000 -0.663956 0.005209
endloop
endfacet
facet normal -1.000000 0.000000 0.000000
outer loop
vertex 0.170000 -0.573044 0.005209
vertex 0.170000 -0.663956 0.005209
vertex 0.170000 -0.571691 0.010261
endloop
endfacet
facet normal -1.000000 0.000000 0.000000
outer loop
vertex 0.170000 -0.571691 0.010261
vertex 0.170000 -0.663956 0.005209
vertex 0.170000 -0.665309 0.010261
endloop
endfacet
facet normal -1.000000 0.000000 0.000000
outer loop
vertex 0.170000 -0.571691 0.010261
vertex 0.170000 -0.665309 0.010261
vertex 0.170000 -0.667519 0.015000
endloop
endfacet
facet normal -1.000000 0.000000 0.000000
outer loop
vertex 0.170000 -0.678500 0.025981
vertex 0.170000 -0.683239 0.028191
vertex 0.170000 -0.566481 0.019284
endloop
endfacet
facet normal -1.000000 0.000000 0.000000
outer loop
vertex 0.170000 -0.566481 0.019284
vertex 0.170000 -0.683239 0.028191
vertex 0.170000 -0.688291 0.029544
endloop
endfacet
facet normal -1.000000 0.000000 0.000000
outer loop
vertex 0.170000 -0.566481 0.019284
vertex 0.170000 -0.688291 0.029544
vertex 0.170000 -0.787000 0.065000
endloop
endfacet
facet normal -1.000000 -0.000003 0.000000
outer loop
vertex 0.170000 -0.787000 0.065000
vertex 0.170000 -0.688291 0.029544
vertex 0.170000 -0.693500 0.030000
endloop
endfacet
facet normal -1.000000 0.000002 0.000000
outer loop
vertex 0.170000 -0.787000 0.065000
vertex 0.170000 -0.693500 0.030000
vertex 0.170000 -0.698709 0.029544
endloop
endfacet
facet normal -1.000000 -0.000003 0.000000
outer loop
vertex 0.170000 -0.698709 0.029544
vertex 0.170000 -0.703761 0.028191
vertex 0.170000 -0.787000 0.065000
endloop
endfacet
facet normal -1.000000 -0.000002 0.000000
outer loop
vertex 0.170000 -0.787000 0.065000
vertex 0.170000 -0.703761 0.028191
vertex 0.170000 -0.708500 0.025981
endloop
endfacet
facet normal -1.000000 0.000002 0.000000
outer loop
vertex 0.170000 -0.787000 0.065000
vertex 0.170000 -0.708500 0.025981
vertex 0.170000 -0.712784 0.022981
endloop
endfacet
facet normal -1.000000 0.000000 0.000000
outer loop
vertex 0.170000 -0.716481 0.019284
vertex 0.170000 -0.719481 0.015000
vertex 0.170000 -0.787000 0.065000
endloop
endfacet
facet normal -1.000000 -0.000001 0.000000
outer loop
vertex 0.170000 -0.787000 0.065000
vertex 0.170000 -0.719481 0.015000
vertex 0.170000 -0.721691 0.010261
endloop
endfacet
facet normal -1.000000 -0.000000 0.000000
outer loop
vertex 0.170000 -0.787000 0.065000
vertex 0.170000 -0.721691 0.010261
vertex 0.170000 -0.787000 -0.000000
endloop
endfacet
facet normal -1.000000 0.000000 0.000000
outer loop
vertex 0.170000 -0.787000 -0.000000
vertex 0.170000 -0.721691 0.010261
vertex 0.170000 -0.723044 0.005209
endloop
endfacet
facet normal -1.000000 -0.000000 0.000000
outer loop
vertex 0.170000 -0.787000 -0.000000
vertex 0.170000 -0.723044 0.005209
vertex 0.170000 -0.723500 -0.000000
endloop
endfacet
facet normal -1.000000 0.000002 0.000000
outer loop
vertex 0.170000 -0.233239 0.028191
vertex 0.170000 -0.238291 0.029544
vertex 0.170000 -0.116481 0.019284
endloop
endfacet
facet normal -1.000000 -0.000007 0.000000
outer loop
vertex 0.170000 -0.116481 0.019284
vertex 0.170000 -0.238291 0.029544
vertex 0.170000 -0.243500 0.030000
endloop
endfacet
facet normal -1.000000 -0.000000 0.000000
outer loop
vertex 0.170000 -0.116481 0.019284
vertex 0.170000 -0.243500 0.030000
vertex 0.170000 -0.112784 0.022981
endloop
endfacet
facet normal -1.000000 0.000000 0.000000
outer loop
vertex 0.170000 -0.112784 0.022981
vertex 0.170000 -0.243500 0.030000
vertex 0.170000 -0.108500 0.025981
endloop
endfacet
facet normal -1.000000 0.000000 0.000000
outer loop
vertex 0.170000 -0.123500 -0.000000
vertex 0.170000 -0.213500 -0.000000
vertex 0.170000 -0.123044 0.005209
endloop
endfacet
facet normal -1.000000 0.000000 0.000000
outer loop
vertex 0.170000 -0.123044 0.005209
vertex 0.170000 -0.213500 -0.000000
vertex 0.170000 -0.213956 0.005209
endloop
endfacet
facet normal -1.000000 0.000000 0.000000
outer loop
vertex 0.170000 -0.123044 0.005209
vertex 0.170000 -0.213956 0.005209
vertex 0.170000 -0.121691 0.010261
endloop
endfacet
facet normal -1.000000 0.000000 0.000000
outer loop
vertex 0.170000 -0.121691 0.010261
vertex 0.170000 -0.213956 0.005209
vertex 0.170000 -0.215309 0.010261
endloop
endfacet
facet normal -1.000000 0.000000 0.000000
outer loop
vertex 0.170000 -0.121691 0.010261
vertex 0.170000 -0.215309 0.010261
vertex 0.170000 -0.217519 0.015000
endloop
endfacet
facet normal -1.000000 0.000000 0.000000
outer loop
vertex 0.170000 -0.398709 0.029544
vertex 0.170000 -0.403761 0.028191
vertex 0.170000 -0.517519 0.015000
endloop
endfacet
facet normal -1.000000 -0.000000 0.000000
outer loop
vertex 0.170000 -0.517519 0.015000
vertex 0.170000 -0.403761 0.028191
vertex 0.170000 -0.408500 0.025981
endloop
endfacet
facet normal -1.000000 0.000000 0.000000
outer loop
vertex 0.170000 -0.419481 0.015000
vertex 0.170000 -0.421691 0.010261
vertex 0.170000 -0.517519 0.015000
endloop
endfacet
facet normal -1.000000 0.000000 0.000000
outer loop
vertex 0.170000 -0.517519 0.015000
vertex 0.170000 -0.421691 0.010261
vertex 0.170000 -0.423044 0.005209
endloop
endfacet
facet normal -1.000000 0.000000 0.000000
outer loop
vertex 0.170000 -0.517519 0.015000
vertex 0.170000 -0.423044 0.005209
vertex 0.170000 -0.515309 0.010261
endloop
endfacet
facet normal -1.000000 0.000000 0.000000
outer loop
vertex 0.170000 -0.365309 0.010261
vertex 0.170000 -0.248709 0.029544
vertex 0.170000 -0.363956 0.005209
endloop
endfacet
facet normal -1.000000 -0.000008 0.000000
outer loop
vertex 0.170000 -0.363956 0.005209
vertex 0.170000 -0.248709 0.029544
vertex 0.170000 -0.253761 0.028191
endloop
endfacet
facet normal -1.000000 -0.000001 0.000000
outer loop
vertex 0.170000 -0.363956 0.005209
vertex 0.170000 -0.253761 0.028191
vertex 0.170000 -0.258500 0.025981
endloop
endfacet
facet normal -1.000000 0.000000 0.000000
outer loop
vertex 0.170000 -0.408500 0.025981
vertex 0.170000 -0.412784 0.022981
vertex 0.170000 -0.517519 0.015000
endloop
endfacet
facet normal -1.000000 -0.000000 0.000000
outer loop
vertex 0.170000 -0.517519 0.015000
vertex 0.170000 -0.412784 0.022981
vertex 0.170000 -0.416481 0.019284
endloop
endfacet
facet normal -1.000000 0.000000 0.000000
outer loop
vertex 0.170000 -0.517519 0.015000
vertex 0.170000 -0.416481 0.019284
vertex 0.170000 -0.419481 0.015000
endloop
endfacet
facet normal -1.000000 0.000001 0.000000
outer loop
vertex 0.170000 -0.383239 0.028191
vertex 0.170000 -0.388290 0.029544
vertex 0.170000 -0.000000 0.065000
endloop
endfacet
facet normal -1.000000 0.000001 0.000000
outer loop
vertex 0.170000 -0.000000 0.065000
vertex 0.170000 -0.388290 0.029544
vertex 0.170000 -0.393500 0.030000
endloop
endfacet
facet normal -1.000000 0.000000 0.000000
outer loop
vertex 0.170000 -0.000000 0.065000
vertex 0.170000 -0.393500 0.030000
vertex 0.170000 -0.524216 0.022981
endloop
endfacet
facet normal -1.000000 0.000001 0.000000
outer loop
vertex 0.170000 -0.524216 0.022981
vertex 0.170000 -0.393500 0.030000
vertex 0.170000 -0.398709 0.029544
endloop
endfacet
facet normal -1.000000 0.000000 0.000000
outer loop
vertex 0.170000 -0.524216 0.022981
vertex 0.170000 -0.398709 0.029544
vertex 0.170000 -0.520519 0.019284
endloop
endfacet
facet normal -1.000000 0.000000 0.000000
outer loop
vertex 0.170000 -0.520519 0.019284
vertex 0.170000 -0.398709 0.029544
vertex 0.170000 -0.517519 0.015000
endloop
endfacet
facet normal -1.000000 -0.000003 0.000000
outer loop
vertex 0.170000 -0.083239 0.028191
vertex 0.170000 -0.088291 0.029544
vertex 0.170000 -0.000000 0.065000
endloop
endfacet
facet normal -1.000000 0.000002 0.000000
outer loop
vertex 0.170000 -0.000000 0.065000
vertex 0.170000 -0.088291 0.029544
vertex 0.170000 -0.093500 0.030000
endloop
endfacet
facet normal -1.000000 -0.000003 0.000000
outer loop
vertex 0.170000 -0.000000 0.065000
vertex 0.170000 -0.093500 0.030000
vertex 0.170000 -0.098709 0.029544
endloop
endfacet
facet normal -1.000000 0.000000 0.000000
outer loop
vertex 0.170000 -0.423500 -0.000000
vertex 0.170000 -0.513500 -0.000000
vertex 0.170000 -0.423044 0.005209
endloop
endfacet
facet normal -1.000000 0.000000 0.000000
outer loop
vertex 0.170000 -0.423044 0.005209
vertex 0.170000 -0.513500 -0.000000
vertex 0.170000 -0.513956 0.005209
endloop
endfacet
facet normal -1.000000 0.000000 0.000000
outer loop
vertex 0.170000 -0.423044 0.005209
vertex 0.170000 -0.513956 0.005209
vertex 0.170000 -0.515309 0.010261
endloop
endfacet
facet normal -1.000000 0.000000 0.000000
outer loop
vertex 0.170000 -0.365309 0.010261
vertex 0.170000 -0.367519 0.015000
vertex 0.170000 -0.248709 0.029544
endloop
endfacet
facet normal -1.000000 0.000000 0.000000
outer loop
vertex 0.170000 -0.248709 0.029544
vertex 0.170000 -0.367519 0.015000
vertex 0.170000 -0.000000 0.065000
endloop
endfacet
facet normal -1.000000 0.000000 0.000000
outer loop
vertex 0.170000 -0.248709 0.029544
vertex 0.170000 -0.000000 0.065000
vertex 0.170000 -0.243500 0.030000
endloop
endfacet
facet normal -1.000000 0.000000 0.000000
outer loop
vertex 0.170000 -0.243500 0.030000
vertex 0.170000 -0.000000 0.065000
vertex 0.170000 -0.098709 0.029544
endloop
endfacet
facet normal -1.000000 0.000000 0.000000
outer loop
vertex 0.170000 -0.243500 0.030000
vertex 0.170000 -0.098709 0.029544
vertex 0.170000 -0.103761 0.028191
endloop
endfacet
facet normal 0.000000 0.996194 -0.087160
outer loop
vertex 0.185000 -0.423500 -0.000000
vertex 0.170000 -0.423500 -0.000000
vertex 0.185000 -0.423044 0.005209
endloop
endfacet
facet normal 0.000000 0.996193 -0.087172
outer loop
vertex 0.185000 -0.423044 0.005209
vertex 0.170000 -0.423500 -0.000000
vertex 0.170000 -0.423044 0.005209
endloop
endfacet
facet normal 0.000000 0.965928 -0.258809
outer loop
vertex 0.185000 -0.423044 0.005209
vertex 0.170000 -0.423044 0.005209
vertex 0.185000 -0.421691 0.010261
endloop
endfacet
facet normal 0.000000 0.965928 -0.258809
outer loop
vertex 0.185000 -0.421691 0.010261
vertex 0.170000 -0.423044 0.005209
vertex 0.170000 -0.421691 0.010261
endloop
endfacet
facet normal 0.000000 0.906311 -0.422611
outer loop
vertex 0.185000 -0.421691 0.010261
vertex 0.170000 -0.421691 0.010261
vertex 0.185000 -0.419481 0.015000
endloop
endfacet
facet normal 0.000000 0.906307 -0.422619
outer loop
vertex 0.185000 -0.419481 0.015000
vertex 0.170000 -0.421691 0.010261
vertex 0.170000 -0.419481 0.015000
endloop
endfacet
facet normal 0.000000 0.819147 -0.573583
outer loop
vertex 0.185000 -0.419481 0.015000
vertex 0.170000 -0.419481 0.015000
vertex 0.185000 -0.416481 0.019284
endloop
endfacet
facet normal 0.000000 0.819148 -0.573582
outer loop
vertex 0.185000 -0.416481 0.019284
vertex 0.170000 -0.419481 0.015000
vertex 0.170000 -0.416481 0.019284
endloop
endfacet
facet normal 0.000000 0.707104 -0.707110
outer loop
vertex 0.185000 -0.416481 0.019284
vertex 0.170000 -0.416481 0.019284
vertex 0.185000 -0.412784 0.022981
endloop
endfacet
facet normal 0.000000 0.707111 -0.707102
outer loop
vertex 0.185000 -0.412784 0.022981
vertex 0.170000 -0.416481 0.019284
vertex 0.170000 -0.412784 0.022981
endloop
endfacet
facet normal 0.000000 0.573575 -0.819153
outer loop
vertex 0.185000 -0.412784 0.022981
vertex 0.170000 -0.412784 0.022981
vertex 0.185000 -0.408500 0.025981
endloop
endfacet
facet normal 0.000000 0.573581 -0.819149
outer loop
vertex 0.185000 -0.408500 0.025981
vertex 0.170000 -0.412784 0.022981
vertex 0.170000 -0.408500 0.025981
endloop
endfacet
facet normal 0.000000 0.422620 -0.906307
outer loop
vertex 0.185000 -0.408500 0.025981
vertex 0.170000 -0.408500 0.025981
vertex 0.185000 -0.403761 0.028191
endloop
endfacet
facet normal 0.000000 0.422612 -0.906310
outer loop
vertex 0.185000 -0.403761 0.028191
vertex 0.170000 -0.408500 0.025981
vertex 0.170000 -0.403761 0.028191
endloop
endfacet
facet normal 0.000000 0.258817 -0.965926
outer loop
vertex 0.185000 -0.403761 0.028191
vertex 0.170000 -0.403761 0.028191
vertex 0.185000 -0.398709 0.029544
endloop
endfacet
facet normal 0.000000 0.258818 -0.965926
outer loop
vertex 0.185000 -0.398709 0.029544
vertex 0.170000 -0.403761 0.028191
vertex 0.170000 -0.398709 0.029544
endloop
endfacet
facet normal 0.000000 0.087157 -0.996195
outer loop
vertex 0.185000 -0.398709 0.029544
vertex 0.170000 -0.398709 0.029544
vertex 0.185000 -0.393500 0.030000
endloop
endfacet
facet normal 0.000000 0.087157 -0.996195
outer loop
vertex 0.185000 -0.393500 0.030000
vertex 0.170000 -0.398709 0.029544
vertex 0.170000 -0.393500 0.030000
endloop
endfacet
facet normal 0.000000 -0.087155 -0.996195
outer loop
vertex 0.185000 -0.393500 0.030000
vertex 0.170000 -0.393500 0.030000
vertex 0.185000 -0.388290 0.029544
endloop
endfacet
facet normal 0.000000 -0.087155 -0.996195
outer loop
vertex 0.185000 -0.388290 0.029544
vertex 0.170000 -0.393500 0.030000
vertex 0.170000 -0.388290 0.029544
endloop
endfacet
facet normal 0.000000 -0.258823 -0.965925
outer loop
vertex 0.185000 -0.388290 0.029544
vertex 0.170000 -0.388290 0.029544
vertex 0.185000 -0.383239 0.028191
endloop
endfacet
facet normal 0.000000 -0.258818 -0.965926
outer loop
vertex 0.185000 -0.383239 0.028191
vertex 0.170000 -0.388290 0.029544
vertex 0.170000 -0.383239 0.028191
endloop
endfacet
facet normal 0.000000 -0.422620 -0.906307
outer loop
vertex 0.185000 -0.383239 0.028191
vertex 0.170000 -0.383239 0.028191
vertex 0.185000 -0.378500 0.025981
endloop
endfacet
facet normal 0.000000 -0.422620 -0.906307
outer loop
vertex 0.185000 -0.378500 0.025981
vertex 0.170000 -0.383239 0.028191
vertex 0.170000 -0.378500 0.025981
endloop
endfacet
facet normal 0.000000 -0.573581 -0.819149
outer loop
vertex 0.185000 -0.378500 0.025981
vertex 0.170000 -0.378500 0.025981
vertex 0.185000 -0.374216 0.022981
endloop
endfacet
facet normal 0.000000 -0.573581 -0.819149
outer loop
vertex 0.185000 -0.374216 0.022981
vertex 0.170000 -0.378500 0.025981
vertex 0.170000 -0.374216 0.022981
endloop
endfacet
facet normal 0.000000 -0.707092 -0.707122
outer loop
vertex 0.185000 -0.374216 0.022981
vertex 0.170000 -0.374216 0.022981
vertex 0.185000 -0.370519 0.019284
endloop
endfacet
facet normal 0.000000 -0.707099 -0.707114
outer loop
vertex 0.185000 -0.370519 0.019284
vertex 0.170000 -0.374216 0.022981
vertex 0.170000 -0.370519 0.019284
endloop
endfacet
facet normal 0.000000 -0.819158 -0.573567
outer loop
vertex 0.185000 -0.370519 0.019284
vertex 0.170000 -0.370519 0.019284
vertex 0.185000 -0.367519 0.015000
endloop
endfacet
facet normal 0.000000 -0.819159 -0.573567
outer loop
vertex 0.185000 -0.367519 0.015000
vertex 0.170000 -0.370519 0.019284
vertex 0.170000 -0.367519 0.015000
endloop
endfacet
facet normal 0.000000 -0.906307 -0.422620
outer loop
vertex 0.185000 -0.367519 0.015000
vertex 0.170000 -0.367519 0.015000
vertex 0.185000 -0.365309 0.010261
endloop
endfacet
facet normal 0.000000 -0.906307 -0.422619
outer loop
vertex 0.185000 -0.365309 0.010261
vertex 0.170000 -0.367519 0.015000
vertex 0.170000 -0.365309 0.010261
endloop
endfacet
facet normal 0.000000 -0.965922 -0.258832
outer loop
vertex 0.185000 -0.365309 0.010261
vertex 0.170000 -0.365309 0.010261
vertex 0.185000 -0.363956 0.005209
endloop
endfacet
facet normal 0.000000 -0.965923 -0.258831
outer loop
vertex 0.185000 -0.363956 0.005209
vertex 0.170000 -0.365309 0.010261
vertex 0.170000 -0.363956 0.005209
endloop
endfacet
facet normal 0.000000 -0.996196 -0.087136
outer loop
vertex 0.185000 -0.363956 0.005209
vertex 0.170000 -0.363956 0.005209
vertex 0.185000 -0.363500 -0.000000
endloop
endfacet
facet normal 0.000000 -0.996195 -0.087148
outer loop
vertex 0.185000 -0.363500 -0.000000
vertex 0.170000 -0.363956 0.005209
vertex 0.170000 -0.363500 -0.000000
endloop
endfacet
facet normal 0.000000 0.996193 -0.087172
outer loop
vertex 0.185000 -0.573500 -0.000000
vertex 0.170000 -0.573500 -0.000000
vertex 0.185000 -0.573044 0.005209
endloop
endfacet
facet normal 0.000000 0.996195 -0.087148
outer loop
vertex 0.185000 -0.573044 0.005209
vertex 0.170000 -0.573500 -0.000000
vertex 0.170000 -0.573044 0.005209
endloop
endfacet
facet normal 0.000000 0.965928 -0.258809
outer loop
vertex 0.185000 -0.573044 0.005209
vertex 0.170000 -0.573044 0.005209
vertex 0.185000 -0.571691 0.010261
endloop
endfacet
facet normal 0.000000 0.965923 -0.258831
outer loop
vertex 0.185000 -0.571691 0.010261
vertex 0.170000 -0.573044 0.005209
vertex 0.170000 -0.571691 0.010261
endloop
endfacet
facet normal 0.000000 0.906320 -0.422591
outer loop
vertex 0.185000 -0.571691 0.010261
vertex 0.170000 -0.571691 0.010261
vertex 0.185000 -0.569481 0.015000
endloop
endfacet
facet normal 0.000000 0.906303 -0.422629
outer loop
vertex 0.185000 -0.569481 0.015000
vertex 0.170000 -0.571691 0.010261
vertex 0.170000 -0.569481 0.015000
endloop
endfacet
facet normal 0.000000 0.819147 -0.573583
outer loop
vertex 0.185000 -0.569481 0.015000
vertex 0.170000 -0.569481 0.015000
vertex 0.185000 -0.566481 0.019284
endloop
endfacet
facet normal 0.000000 0.819137 -0.573598
outer loop
vertex 0.185000 -0.566481 0.019284
vertex 0.170000 -0.569481 0.015000
vertex 0.170000 -0.566481 0.019284
endloop
endfacet
facet normal 0.000000 0.707116 -0.707098
outer loop
vertex 0.185000 -0.566481 0.019284
vertex 0.170000 -0.566481 0.019284
vertex 0.185000 -0.562784 0.022981
endloop
endfacet
facet normal 0.000000 0.707117 -0.707096
outer loop
vertex 0.185000 -0.562784 0.022981
vertex 0.170000 -0.566481 0.019284
vertex 0.170000 -0.562784 0.022981
endloop
endfacet
facet normal 0.000000 0.573569 -0.819157
outer loop
vertex 0.185000 -0.562784 0.022981
vertex 0.170000 -0.562784 0.022981
vertex 0.185000 -0.558500 0.025981
endloop
endfacet
facet normal 0.000000 0.573569 -0.819157
outer loop
vertex 0.185000 -0.558500 0.025981
vertex 0.170000 -0.562784 0.022981
vertex 0.170000 -0.558500 0.025981
endloop
endfacet
facet normal 0.000000 0.422625 -0.906305
outer loop
vertex 0.185000 -0.558500 0.025981
vertex 0.170000 -0.558500 0.025981
vertex 0.185000 -0.553761 0.028191
endloop
endfacet
facet normal 0.000000 0.422616 -0.906309
outer loop
vertex 0.185000 -0.553761 0.028191
vertex 0.170000 -0.558500 0.025981
vertex 0.170000 -0.553761 0.028191
endloop
endfacet
facet normal 0.000000 0.258814 -0.965927
outer loop
vertex 0.185000 -0.553761 0.028191
vertex 0.170000 -0.553761 0.028191
vertex 0.185000 -0.548709 0.029544
endloop
endfacet
facet normal 0.000000 0.258821 -0.965925
outer loop
vertex 0.185000 -0.548709 0.029544
vertex 0.170000 -0.553761 0.028191
vertex 0.170000 -0.548709 0.029544
endloop
endfacet
facet normal 0.000000 0.087156 -0.996195
outer loop
vertex 0.185000 -0.548709 0.029544
vertex 0.170000 -0.548709 0.029544
vertex 0.185000 -0.543500 0.030000
endloop
endfacet
facet normal 0.000000 0.087158 -0.996194
outer loop
vertex 0.185000 -0.543500 0.030000
vertex 0.170000 -0.548709 0.029544
vertex 0.170000 -0.543500 0.030000
endloop
endfacet
facet normal 0.000000 -0.087154 -0.996195
outer loop
vertex 0.185000 -0.543500 0.030000
vertex 0.170000 -0.543500 0.030000
vertex 0.185000 -0.538291 0.029544
endloop
endfacet
facet normal 0.000000 -0.087156 -0.996195
outer loop
vertex 0.185000 -0.538291 0.029544
vertex 0.170000 -0.543500 0.030000
vertex 0.170000 -0.538291 0.029544
endloop
endfacet
facet normal 0.000000 -0.258820 -0.965926
outer loop
vertex 0.185000 -0.538291 0.029544
vertex 0.170000 -0.538291 0.029544
vertex 0.185000 -0.533239 0.028191
endloop
endfacet
facet normal 0.000000 -0.258821 -0.965925
outer loop
vertex 0.185000 -0.533239 0.028191
vertex 0.170000 -0.538291 0.029544
vertex 0.170000 -0.533239 0.028191
endloop
endfacet
facet normal 0.000000 -0.422624 -0.906305
outer loop
vertex 0.185000 -0.533239 0.028191
vertex 0.170000 -0.533239 0.028191
vertex 0.185000 -0.528500 0.025981
endloop
endfacet
facet normal 0.000000 -0.422616 -0.906309
outer loop
vertex 0.185000 -0.528500 0.025981
vertex 0.170000 -0.533239 0.028191
vertex 0.170000 -0.528500 0.025981
endloop
endfacet
facet normal 0.000000 -0.573581 -0.819149
outer loop
vertex 0.185000 -0.528500 0.025981
vertex 0.170000 -0.528500 0.025981
vertex 0.185000 -0.524216 0.022981
endloop
endfacet
facet normal 0.000000 -0.573581 -0.819149
outer loop
vertex 0.185000 -0.524216 0.022981
vertex 0.170000 -0.528500 0.025981
vertex 0.170000 -0.524216 0.022981
endloop
endfacet
facet normal 0.000000 -0.707104 -0.707110
outer loop
vertex 0.185000 -0.524216 0.022981
vertex 0.170000 -0.524216 0.022981
vertex 0.185000 -0.520519 0.019284
endloop
endfacet
facet normal 0.000000 -0.707105 -0.707108
outer loop
vertex 0.185000 -0.520519 0.019284
vertex 0.170000 -0.524216 0.022981
vertex 0.170000 -0.520519 0.019284
endloop
endfacet
facet normal 0.000000 -0.819142 -0.573591
outer loop
vertex 0.185000 -0.520519 0.019284
vertex 0.170000 -0.520519 0.019284
vertex 0.185000 -0.517519 0.015000
endloop
endfacet
facet normal 0.000000 -0.819142 -0.573590
outer loop
vertex 0.185000 -0.517519 0.015000
vertex 0.170000 -0.520519 0.019284
vertex 0.170000 -0.517519 0.015000
endloop
endfacet
facet normal 0.000000 -0.906307 -0.422620
outer loop
vertex 0.185000 -0.517519 0.015000
vertex 0.170000 -0.517519 0.015000
vertex 0.185000 -0.515309 0.010261
endloop
endfacet
facet normal 0.000000 -0.906316 -0.422600
outer loop
vertex 0.185000 -0.515309 0.010261
vertex 0.170000 -0.517519 0.015000
vertex 0.170000 -0.515309 0.010261
endloop
endfacet
facet normal 0.000000 -0.965925 -0.258820
outer loop
vertex 0.185000 -0.515309 0.010261
vertex 0.170000 -0.515309 0.010261
vertex 0.185000 -0.513956 0.005209
endloop
endfacet
facet normal 0.000000 -0.965928 -0.258809
outer loop
vertex 0.185000 -0.513956 0.005209
vertex 0.170000 -0.515309 0.010261
vertex 0.170000 -0.513956 0.005209
endloop
endfacet
facet normal 0.000000 -0.996195 -0.087148
outer loop
vertex 0.185000 -0.513956 0.005209
vertex 0.170000 -0.513956 0.005209
vertex 0.185000 -0.513500 -0.000000
endloop
endfacet
facet normal 0.000000 -0.996195 -0.087148
outer loop
vertex 0.185000 -0.513500 -0.000000
vertex 0.170000 -0.513956 0.005209
vertex 0.170000 -0.513500 -0.000000
endloop
endfacet
facet normal 0.000000 0.996194 -0.087160
outer loop
vertex 0.185000 -0.123500 -0.000000
vertex 0.170000 -0.123500 -0.000000
vertex 0.185000 -0.123044 0.005209
endloop
endfacet
facet normal 0.000000 0.996194 -0.087163
outer loop
vertex 0.185000 -0.123044 0.005209
vertex 0.170000 -0.123500 -0.000000
vertex 0.170000 -0.123044 0.005209
endloop
endfacet
facet normal 0.000000 0.965928 -0.258812
outer loop
vertex 0.185000 -0.123044 0.005209
vertex 0.170000 -0.123044 0.005209
vertex 0.185000 -0.121691 0.010261
endloop
endfacet
facet normal 0.000000 0.965928 -0.258809
outer loop
vertex 0.185000 -0.121691 0.010261
vertex 0.170000 -0.123044 0.005209
vertex 0.170000 -0.121691 0.010261
endloop
endfacet
facet normal 0.000000 0.906309 -0.422616
outer loop
vertex 0.185000 -0.121691 0.010261
vertex 0.170000 -0.121691 0.010261
vertex 0.185000 -0.119481 0.015000
endloop
endfacet
facet normal 0.000000 0.906310 -0.422614
outer loop
vertex 0.185000 -0.119481 0.015000
vertex 0.170000 -0.121691 0.010261
vertex 0.170000 -0.119481 0.015000
endloop
endfacet
facet normal 0.000000 0.819146 -0.573585
outer loop
vertex 0.185000 -0.119481 0.015000
vertex 0.170000 -0.119481 0.015000
vertex 0.185000 -0.116481 0.019284
endloop
endfacet
facet normal 0.000000 0.819145 -0.573586
outer loop
vertex 0.185000 -0.116481 0.019284
vertex 0.170000 -0.119481 0.015000
vertex 0.170000 -0.116481 0.019284
endloop
endfacet
facet normal 0.000000 0.707107 -0.707107
outer loop
vertex 0.185000 -0.116481 0.019284
vertex 0.170000 -0.116481 0.019284
vertex 0.185000 -0.112784 0.022981
endloop
endfacet
facet normal 0.000000 0.707107 -0.707107
outer loop
vertex 0.185000 -0.112784 0.022981
vertex 0.170000 -0.116481 0.019284
vertex 0.170000 -0.112784 0.022981
endloop
endfacet
facet normal 0.000000 0.573581 -0.819149
outer loop
vertex 0.185000 -0.112784 0.022981
vertex 0.170000 -0.112784 0.022981
vertex 0.185000 -0.108500 0.025981
endloop
endfacet
facet normal 0.000000 0.573579 -0.819150
outer loop
vertex 0.185000 -0.108500 0.025981
vertex 0.170000 -0.112784 0.022981
vertex 0.170000 -0.108500 0.025981
endloop
endfacet
facet normal 0.000000 0.422618 -0.906308
outer loop
vertex 0.185000 -0.108500 0.025981
vertex 0.170000 -0.108500 0.025981
vertex 0.185000 -0.103761 0.028191
endloop
endfacet
facet normal 0.000000 0.422619 -0.906307
outer loop
vertex 0.185000 -0.103761 0.028191
vertex 0.170000 -0.108500 0.025981
vertex 0.170000 -0.103761 0.028191
endloop
endfacet
facet normal 0.000000 0.258818 -0.965926
outer loop
vertex 0.185000 -0.103761 0.028191
vertex 0.170000 -0.103761 0.028191
vertex 0.185000 -0.098709 0.029544
endloop
endfacet
facet normal 0.000000 0.258819 -0.965926
outer loop
vertex 0.185000 -0.098709 0.029544
vertex 0.170000 -0.103761 0.028191
vertex 0.170000 -0.098709 0.029544
endloop
endfacet
facet normal 0.000000 0.087156 -0.996195
outer loop
vertex 0.185000 -0.098709 0.029544
vertex 0.170000 -0.098709 0.029544
vertex 0.185000 -0.093500 0.030000
endloop
endfacet
facet normal 0.000000 0.087156 -0.996195
outer loop
vertex 0.185000 -0.093500 0.030000
vertex 0.170000 -0.098709 0.029544
vertex 0.170000 -0.093500 0.030000
endloop
endfacet
facet normal 0.000000 -0.087156 -0.996195
outer loop
vertex 0.185000 -0.093500 0.030000
vertex 0.170000 -0.093500 0.030000
vertex 0.185000 -0.088291 0.029544
endloop
endfacet
facet normal 0.000000 -0.087156 -0.996195
outer loop
vertex 0.185000 -0.088291 0.029544
vertex 0.170000 -0.093500 0.030000
vertex 0.170000 -0.088291 0.029544
endloop
endfacet
facet normal 0.000000 -0.258817 -0.965926
outer loop
vertex 0.185000 -0.088291 0.029544
vertex 0.170000 -0.088291 0.029544
vertex 0.185000 -0.083239 0.028191
endloop
endfacet
facet normal 0.000000 -0.258818 -0.965926
outer loop
vertex 0.185000 -0.083239 0.028191
vertex 0.170000 -0.088291 0.029544
vertex 0.170000 -0.083239 0.028191
endloop
endfacet
facet normal 0.000000 -0.422620 -0.906307
outer loop
vertex 0.185000 -0.083239 0.028191
vertex 0.170000 -0.083239 0.028191
vertex 0.185000 -0.078500 0.025981
endloop
endfacet
facet normal 0.000000 -0.422619 -0.906307
outer loop
vertex 0.185000 -0.078500 0.025981
vertex 0.170000 -0.083239 0.028191
vertex 0.170000 -0.078500 0.025981
endloop
endfacet
facet normal 0.000000 -0.573579 -0.819150
outer loop
vertex 0.185000 -0.078500 0.025981
vertex 0.170000 -0.078500 0.025981
vertex 0.185000 -0.074216 0.022981
endloop
endfacet
facet normal 0.000000 -0.573578 -0.819151
outer loop
vertex 0.185000 -0.074216 0.022981
vertex 0.170000 -0.078500 0.025981
vertex 0.170000 -0.074216 0.022981
endloop
endfacet
facet normal 0.000000 -0.707102 -0.707111
outer loop
vertex 0.185000 -0.074216 0.022981
vertex 0.170000 -0.074216 0.022981
vertex 0.185000 -0.070519 0.019284
endloop
endfacet
facet normal 0.000000 -0.707105 -0.707108
outer loop
vertex 0.185000 -0.070519 0.019284
vertex 0.170000 -0.074216 0.022981
vertex 0.170000 -0.070519 0.019284
endloop
endfacet
facet normal 0.000000 -0.819156 -0.573571
outer loop
vertex 0.185000 -0.070519 0.019284
vertex 0.170000 -0.070519 0.019284
vertex 0.185000 -0.067519 0.015000
endloop
endfacet
facet normal 0.000000 -0.819153 -0.573575
outer loop
vertex 0.185000 -0.067519 0.015000
vertex 0.170000 -0.070519 0.019284
vertex 0.170000 -0.067519 0.015000
endloop
endfacet
facet normal 0.000000 -0.906306 -0.422623
outer loop
vertex 0.185000 -0.067519 0.015000
vertex 0.170000 -0.067519 0.015000
vertex 0.185000 -0.065309 0.010261
endloop
endfacet
facet normal 0.000000 -0.906305 -0.422624
outer loop
vertex 0.185000 -0.065309 0.010261
vertex 0.170000 -0.067519 0.015000
vertex 0.170000 -0.065309 0.010261
endloop
endfacet
facet normal 0.000000 -0.965927 -0.258816
outer loop
vertex 0.185000 -0.065309 0.010261
vertex 0.170000 -0.065309 0.010261
vertex 0.185000 -0.063956 0.005209
endloop
endfacet
facet normal 0.000000 -0.965926 -0.258817
outer loop
vertex 0.185000 -0.063956 0.005209
vertex 0.170000 -0.065309 0.010261
vertex 0.170000 -0.063956 0.005209
endloop
endfacet
facet normal 0.000000 -0.996195 -0.087156
outer loop
vertex 0.185000 -0.063956 0.005209
vertex 0.170000 -0.063956 0.005209
vertex 0.185000 -0.063500 -0.000000
endloop
endfacet
facet normal 0.000000 -0.996195 -0.087155
outer loop
vertex 0.185000 -0.063500 -0.000000
vertex 0.170000 -0.063956 0.005209
vertex 0.170000 -0.063500 -0.000000
endloop
endfacet
facet normal 0.000000 0.996194 -0.087160
outer loop
vertex 0.185000 -0.273500 -0.000000
vertex 0.170000 -0.273500 -0.000000
vertex 0.185000 -0.273044 0.005209
endloop
endfacet
facet normal 0.000000 0.996194 -0.087160
outer loop
vertex 0.185000 -0.273044 0.005209
vertex 0.170000 -0.273500 -0.000000
vertex 0.170000 -0.273044 0.005209
endloop
endfacet
facet normal 0.000000 0.965928 -0.258809
outer loop
vertex 0.185000 -0.273044 0.005209
vertex 0.170000 -0.273044 0.005209
vertex 0.185000 -0.271691 0.010261
endloop
endfacet
facet normal 0.000000 0.965928 -0.258809
outer loop
vertex 0.185000 -0.271691 0.010261
vertex 0.170000 -0.273044 0.005209
vertex 0.170000 -0.271691 0.010261
endloop
endfacet
facet normal 0.000000 0.906307 -0.422620
outer loop
vertex 0.185000 -0.271691 0.010261
vertex 0.170000 -0.271691 0.010261
vertex 0.185000 -0.269481 0.015000
endloop
endfacet
facet normal 0.000000 0.906307 -0.422619
outer loop
vertex 0.185000 -0.269481 0.015000
vertex 0.170000 -0.271691 0.010261
vertex 0.170000 -0.269481 0.015000
endloop
endfacet
facet normal 0.000000 0.819147 -0.573583
outer loop
vertex 0.185000 -0.269481 0.015000
vertex 0.170000 -0.269481 0.015000
vertex 0.185000 -0.266481 0.019284
endloop
endfacet
facet normal 0.000000 0.819148 -0.573582
outer loop
vertex 0.185000 -0.266481 0.019284
vertex 0.170000 -0.269481 0.015000
vertex 0.170000 -0.266481 0.019284
endloop
endfacet
facet normal 0.000000 0.707110 -0.707104
outer loop
vertex 0.185000 -0.266481 0.019284
vertex 0.170000 -0.266481 0.019284
vertex 0.185000 -0.262784 0.022981
endloop
endfacet
facet normal 0.000000 0.707105 -0.707108
outer loop
vertex 0.185000 -0.262784 0.022981
vertex 0.170000 -0.266481 0.019284
vertex 0.170000 -0.262784 0.022981
endloop
endfacet
facet normal 0.000000 0.573581 -0.819149
outer loop
vertex 0.185000 -0.262784 0.022981
vertex 0.170000 -0.262784 0.022981
vertex 0.185000 -0.258500 0.025981
endloop
endfacet
facet normal 0.000000 0.573578 -0.819151
outer loop
vertex 0.185000 -0.258500 0.025981
vertex 0.170000 -0.262784 0.022981
vertex 0.170000 -0.258500 0.025981
endloop
endfacet
facet normal 0.000000 0.422618 -0.906308
outer loop
vertex 0.185000 -0.258500 0.025981
vertex 0.170000 -0.258500 0.025981
vertex 0.185000 -0.253761 0.028191
endloop
endfacet
facet normal 0.000000 0.422618 -0.906308
outer loop
vertex 0.185000 -0.253761 0.028191
vertex 0.170000 -0.258500 0.025981
vertex 0.170000 -0.253761 0.028191
endloop
endfacet
facet normal 0.000000 0.258817 -0.965926
outer loop
vertex 0.185000 -0.253761 0.028191
vertex 0.170000 -0.253761 0.028191
vertex 0.185000 -0.248709 0.029544
endloop
endfacet
facet normal 0.000000 0.258815 -0.965927
outer loop
vertex 0.185000 -0.248709 0.029544
vertex 0.170000 -0.253761 0.028191
vertex 0.170000 -0.248709 0.029544
endloop
endfacet
facet normal 0.000000 0.087156 -0.996195
outer loop
vertex 0.185000 -0.248709 0.029544
vertex 0.170000 -0.248709 0.029544
vertex 0.185000 -0.243500 0.030000
endloop
endfacet
facet normal 0.000000 0.087157 -0.996195
outer loop
vertex 0.185000 -0.243500 0.030000
vertex 0.170000 -0.248709 0.029544
vertex 0.170000 -0.243500 0.030000
endloop
endfacet
facet normal 0.000000 -0.087155 -0.996195
outer loop
vertex 0.185000 -0.243500 0.030000
vertex 0.170000 -0.243500 0.030000
vertex 0.185000 -0.238291 0.029544
endloop
endfacet
facet normal 0.000000 -0.087156 -0.996195
outer loop
vertex 0.185000 -0.238291 0.029544
vertex 0.170000 -0.243500 0.030000
vertex 0.170000 -0.238291 0.029544
endloop
endfacet
facet normal 0.000000 -0.258822 -0.965925
outer loop
vertex 0.185000 -0.238291 0.029544
vertex 0.170000 -0.238291 0.029544
vertex 0.185000 -0.233239 0.028191
endloop
endfacet
facet normal 0.000000 -0.258821 -0.965925
outer loop
vertex 0.185000 -0.233239 0.028191
vertex 0.170000 -0.238291 0.029544
vertex 0.170000 -0.233239 0.028191
endloop
endfacet
facet normal 0.000000 -0.422620 -0.906307
outer loop
vertex 0.185000 -0.233239 0.028191
vertex 0.170000 -0.233239 0.028191
vertex 0.185000 -0.228500 0.025981
endloop
endfacet
facet normal 0.000000 -0.422620 -0.906307
outer loop
vertex 0.185000 -0.228500 0.025981
vertex 0.170000 -0.233239 0.028191
vertex 0.170000 -0.228500 0.025981
endloop
endfacet
facet normal 0.000000 -0.573578 -0.819151
outer loop
vertex 0.185000 -0.228500 0.025981
vertex 0.170000 -0.228500 0.025981
vertex 0.185000 -0.224216 0.022981
endloop
endfacet
facet normal 0.000000 -0.573575 -0.819153
outer loop
vertex 0.185000 -0.224216 0.022981
vertex 0.170000 -0.228500 0.025981
vertex 0.170000 -0.224216 0.022981
endloop
endfacet
facet normal 0.000000 -0.707098 -0.707116
outer loop
vertex 0.185000 -0.224216 0.022981
vertex 0.170000 -0.224216 0.022981
vertex 0.185000 -0.220519 0.019284
endloop
endfacet
facet normal 0.000000 -0.707096 -0.707117
outer loop
vertex 0.185000 -0.220519 0.019284
vertex 0.170000 -0.224216 0.022981
vertex 0.170000 -0.220519 0.019284
endloop
endfacet
facet normal 0.000000 -0.819158 -0.573567
outer loop
vertex 0.185000 -0.220519 0.019284
vertex 0.170000 -0.220519 0.019284
vertex 0.185000 -0.217519 0.015000
endloop
endfacet
facet normal 0.000000 -0.819156 -0.573570
outer loop
vertex 0.185000 -0.217519 0.015000
vertex 0.170000 -0.220519 0.019284
vertex 0.170000 -0.217519 0.015000
endloop
endfacet
facet normal 0.000000 -0.906307 -0.422620
outer loop
vertex 0.185000 -0.217519 0.015000
vertex 0.170000 -0.217519 0.015000
vertex 0.185000 -0.215309 0.010261
endloop
endfacet
facet normal 0.000000 -0.906307 -0.422619
outer loop
vertex 0.185000 -0.215309 0.010261
vertex 0.170000 -0.217519 0.015000
vertex 0.170000 -0.215309 0.010261
endloop
endfacet
facet normal 0.000000 -0.965924 -0.258826
outer loop
vertex 0.185000 -0.215309 0.010261
vertex 0.170000 -0.215309 0.010261
vertex 0.185000 -0.213956 0.005209
endloop
endfacet
facet normal 0.000000 -0.965924 -0.258826
outer loop
vertex 0.185000 -0.213956 0.005209
vertex 0.170000 -0.215309 0.010261
vertex 0.170000 -0.213956 0.005209
endloop
endfacet
facet normal 0.000000 -0.996196 -0.087142
outer loop
vertex 0.185000 -0.213956 0.005209
vertex 0.170000 -0.213956 0.005209
vertex 0.185000 -0.213500 -0.000000
endloop
endfacet
facet normal 0.000000 -0.996196 -0.087136
outer loop
vertex 0.185000 -0.213500 -0.000000
vertex 0.170000 -0.213956 0.005209
vertex 0.170000 -0.213500 -0.000000
endloop
endfacet
facet normal 0.000000 0.996193 -0.087172
outer loop
vertex 0.185000 -0.723500 -0.000000
vertex 0.170000 -0.723500 -0.000000
vertex 0.185000 -0.723044 0.005209
endloop
endfacet
facet normal 0.000000 0.996195 -0.087148
outer loop
vertex 0.185000 -0.723044 0.005209
vertex 0.170000 -0.723500 -0.000000
vertex 0.170000 -0.723044 0.005209
endloop
endfacet
facet normal 0.000000 0.965928 -0.258809
outer loop
vertex 0.185000 -0.723044 0.005209
vertex 0.170000 -0.723044 0.005209
vertex 0.185000 -0.721691 0.010261
endloop
endfacet
facet normal 0.000000 0.965928 -0.258809
outer loop
vertex 0.185000 -0.721691 0.010261
vertex 0.170000 -0.723044 0.005209
vertex 0.170000 -0.721691 0.010261
endloop
endfacet
facet normal 0.000000 0.906311 -0.422611
outer loop
vertex 0.185000 -0.721691 0.010261
vertex 0.170000 -0.721691 0.010261
vertex 0.185000 -0.719481 0.015000
endloop
endfacet
facet normal 0.000000 0.906303 -0.422629
outer loop
vertex 0.185000 -0.719481 0.015000
vertex 0.170000 -0.721691 0.010261
vertex 0.170000 -0.719481 0.015000
endloop
endfacet
facet normal 0.000000 0.819147 -0.573583
outer loop
vertex 0.185000 -0.719481 0.015000
vertex 0.170000 -0.719481 0.015000
vertex 0.185000 -0.716481 0.019284
endloop
endfacet
facet normal 0.000000 0.819148 -0.573582
outer loop
vertex 0.185000 -0.716481 0.019284
vertex 0.170000 -0.719481 0.015000
vertex 0.170000 -0.716481 0.019284
endloop
endfacet
facet normal 0.000000 0.707116 -0.707098
outer loop
vertex 0.185000 -0.716481 0.019284
vertex 0.170000 -0.716481 0.019284
vertex 0.185000 -0.712784 0.022981
endloop
endfacet
facet normal 0.000000 0.707093 -0.707120
outer loop
vertex 0.185000 -0.712784 0.022981
vertex 0.170000 -0.716481 0.019284
vertex 0.170000 -0.712784 0.022981
endloop
endfacet
facet normal 0.000000 0.573592 -0.819141
outer loop
vertex 0.185000 -0.712784 0.022981
vertex 0.170000 -0.712784 0.022981
vertex 0.185000 -0.708500 0.025981
endloop
endfacet
facet normal 0.000000 0.573569 -0.819157
outer loop
vertex 0.185000 -0.708500 0.025981
vertex 0.170000 -0.712784 0.022981
vertex 0.170000 -0.708500 0.025981
endloop
endfacet
facet normal 0.000000 0.422607 -0.906313
outer loop
vertex 0.185000 -0.708500 0.025981
vertex 0.170000 -0.708500 0.025981
vertex 0.185000 -0.703761 0.028191
endloop
endfacet
facet normal 0.000000 0.422625 -0.906305
outer loop
vertex 0.185000 -0.703761 0.028191
vertex 0.170000 -0.708500 0.025981
vertex 0.170000 -0.703761 0.028191
endloop
endfacet
facet normal 0.000000 0.258821 -0.965925
outer loop
vertex 0.185000 -0.703761 0.028191
vertex 0.170000 -0.703761 0.028191
vertex 0.185000 -0.698709 0.029544
endloop
endfacet
facet normal 0.000000 0.258815 -0.965927
outer loop
vertex 0.185000 -0.698709 0.029544
vertex 0.170000 -0.703761 0.028191
vertex 0.170000 -0.698709 0.029544
endloop
endfacet
facet normal 0.000000 0.087156 -0.996195
outer loop
vertex 0.185000 -0.698709 0.029544
vertex 0.170000 -0.698709 0.029544
vertex 0.185000 -0.693500 0.030000
endloop
endfacet
facet normal 0.000000 0.087156 -0.996195
outer loop
vertex 0.185000 -0.693500 0.030000
vertex 0.170000 -0.698709 0.029544
vertex 0.170000 -0.693500 0.030000
endloop
endfacet
facet normal 0.000000 -0.087156 -0.996195
outer loop
vertex 0.185000 -0.693500 0.030000
vertex 0.170000 -0.693500 0.030000
vertex 0.185000 -0.688291 0.029544
endloop
endfacet
facet normal 0.000000 -0.087156 -0.996195
outer loop
vertex 0.185000 -0.688291 0.029544
vertex 0.170000 -0.693500 0.030000
vertex 0.170000 -0.688291 0.029544
endloop
endfacet
facet normal 0.000000 -0.258820 -0.965926
outer loop
vertex 0.185000 -0.688291 0.029544
vertex 0.170000 -0.688291 0.029544
vertex 0.185000 -0.683239 0.028191
endloop
endfacet
facet normal 0.000000 -0.258821 -0.965925
outer loop
vertex 0.185000 -0.683239 0.028191
vertex 0.170000 -0.688291 0.029544
vertex 0.170000 -0.683239 0.028191
endloop
endfacet
facet normal 0.000000 -0.422625 -0.906305
outer loop
vertex 0.185000 -0.683239 0.028191
vertex 0.170000 -0.683239 0.028191
vertex 0.185000 -0.678500 0.025981
endloop
endfacet
facet normal 0.000000 -0.422616 -0.906309
outer loop
vertex 0.185000 -0.678500 0.025981
vertex 0.170000 -0.683239 0.028191
vertex 0.170000 -0.678500 0.025981
endloop
endfacet
facet normal 0.000000 -0.573581 -0.819149
outer loop
vertex 0.185000 -0.678500 0.025981
vertex 0.170000 -0.678500 0.025981
vertex 0.185000 -0.674216 0.022981
endloop
endfacet
facet normal 0.000000 -0.573581 -0.819149
outer loop
vertex 0.185000 -0.674216 0.022981
vertex 0.170000 -0.678500 0.025981
vertex 0.170000 -0.674216 0.022981
endloop
endfacet
facet normal 0.000000 -0.707104 -0.707110
outer loop
vertex 0.185000 -0.674216 0.022981
vertex 0.170000 -0.674216 0.022981
vertex 0.185000 -0.670519 0.019284
endloop
endfacet
facet normal 0.000000 -0.707105 -0.707108
outer loop
vertex 0.185000 -0.670519 0.019284
vertex 0.170000 -0.674216 0.022981
vertex 0.170000 -0.670519 0.019284
endloop
endfacet
facet normal 0.000000 -0.819147 -0.573583
outer loop
vertex 0.185000 -0.670519 0.019284
vertex 0.170000 -0.670519 0.019284
vertex 0.185000 -0.667519 0.015000
endloop
endfacet
facet normal 0.000000 -0.819148 -0.573582
outer loop
vertex 0.185000 -0.667519 0.015000
vertex 0.170000 -0.670519 0.019284
vertex 0.170000 -0.667519 0.015000
endloop
endfacet
facet normal 0.000000 -0.906302 -0.422630
outer loop
vertex 0.185000 -0.667519 0.015000
vertex 0.170000 -0.667519 0.015000
vertex 0.185000 -0.665309 0.010261
endloop
endfacet
facet normal 0.000000 -0.906312 -0.422610
outer loop
vertex 0.185000 -0.665309 0.010261
vertex 0.170000 -0.667519 0.015000
vertex 0.170000 -0.665309 0.010261
endloop
endfacet
facet normal 0.000000 -0.965928 -0.258809
outer loop
vertex 0.185000 -0.665309 0.010261
vertex 0.170000 -0.665309 0.010261
vertex 0.185000 -0.663956 0.005209
endloop
endfacet
facet normal 0.000000 -0.965928 -0.258809
outer loop
vertex 0.185000 -0.663956 0.005209
vertex 0.170000 -0.665309 0.010261
vertex 0.170000 -0.663956 0.005209
endloop
endfacet
facet normal 0.000000 -0.996193 -0.087172
outer loop
vertex 0.185000 -0.663956 0.005209
vertex 0.170000 -0.663956 0.005209
vertex 0.185000 -0.663500 -0.000000
endloop
endfacet
facet normal 0.000000 -0.996195 -0.087148
outer loop
vertex 0.185000 -0.663500 -0.000000
vertex 0.170000 -0.663956 0.005209
vertex 0.170000 -0.663500 -0.000000
endloop
endfacet
endsolid baffle1
