solid wall1
facet normal 1.000000 0.000000 0.000000
outer loop
vertex 0.686000 -0.787000 0.272000
vertex 0.686000 -0.787000 0.000000
vertex 0.686000 0.000000 0.272000
endloop
endfacet
facet normal 1.000000 0.000000 0.000000
outer loop
vertex 0.686000 0.000000 0.272000
vertex 0.686000 -0.787000 0.000000
vertex 0.686000 0.000000 0.000000
endloop
endfacet
facet normal 0.000000 0.000000 1.000000
outer loop
vertex 0.528074 -0.364390 0.272000
vertex 0.533500 -0.360591 0.272000
vertex 0.419000 0.000000 0.272000
endloop
endfacet
facet normal -0.000004 0.000000 1.000000
outer loop
vertex 0.419000 -0.787000 0.272000
vertex 0.552500 -0.431500 0.272000
vertex 0.545901 -0.430923 0.272000
endloop
endfacet
facet normal 0.000007 0.000000 1.000000
outer loop
vertex 0.552500 -0.431500 0.272000
vertex 0.419000 -0.787000 0.272000
vertex 0.559099 -0.430923 0.272000
endloop
endfacet
facet normal 0.000000 0.000000 1.000000
outer loop
vertex 0.559099 -0.430923 0.272000
vertex 0.419000 -0.787000 0.272000
vertex 0.686000 -0.787000 0.272000
endloop
endfacet
facet normal 0.000000 0.000000 1.000000
outer loop
vertex 0.559099 -0.430923 0.272000
vertex 0.686000 -0.787000 0.272000
vertex 0.565497 -0.429208 0.272000
endloop
endfacet
facet normal 0.000000 0.000000 1.000000
outer loop
vertex 0.571500 -0.360591 0.272000
vertex 0.686000 0.000000 0.272000
vertex 0.565497 -0.357792 0.272000
endloop
endfacet
facet normal 0.000000 0.000000 1.000000
outer loop
vertex 0.565497 -0.357792 0.272000
vertex 0.686000 0.000000 0.272000
vertex 0.559099 -0.356077 0.272000
endloop
endfacet
facet normal 0.000005 0.000000 1.000000
outer loop
vertex 0.686000 0.000000 0.272000
vertex 0.585409 -0.374500 0.272000
vertex 0.588208 -0.380503 0.272000
endloop
endfacet
facet normal 0.000000 0.000000 1.000000
outer loop
vertex 0.533500 -0.360591 0.272000
vertex 0.539503 -0.357792 0.272000
vertex 0.419000 0.000000 0.272000
endloop
endfacet
facet normal -0.000000 0.000000 1.000000
outer loop
vertex 0.419000 0.000000 0.272000
vertex 0.539503 -0.357792 0.272000
vertex 0.545901 -0.356077 0.272000
endloop
endfacet
facet normal 0.000000 0.000000 1.000000
outer loop
vertex 0.419000 0.000000 0.272000
vertex 0.545901 -0.356077 0.272000
vertex 0.686000 0.000000 0.272000
endloop
endfacet
facet normal -0.000004 0.000000 1.000000
outer loop
vertex 0.686000 0.000000 0.272000
vertex 0.545901 -0.356077 0.272000
vertex 0.552500 -0.355500 0.272000
endloop
endfacet
facet normal 0.000004 0.000000 1.000000
outer loop
vertex 0.686000 0.000000 0.272000
vertex 0.552500 -0.355500 0.272000
vertex 0.559099 -0.356077 0.272000
endloop
endfacet
facet normal 0.000000 0.000000 1.000000
outer loop
vertex 0.571500 -0.360591 0.272000
vertex 0.576926 -0.364390 0.272000
vertex 0.686000 0.000000 0.272000
endloop
endfacet
facet normal -0.000001 0.000000 1.000000
outer loop
vertex 0.686000 0.000000 0.272000
vertex 0.576926 -0.364390 0.272000
vertex 0.581610 -0.369074 0.272000
endloop
endfacet
facet normal -0.000001 0.000000 1.000000
outer loop
vertex 0.686000 0.000000 0.272000
vertex 0.581610 -0.369074 0.272000
vertex 0.585409 -0.374500 0.272000
endloop
endfacet
facet normal 0.000000 0.000000 1.000000
outer loop
vertex 0.581610 -0.417926 0.272000
vertex 0.686000 -0.787000 0.272000
vertex 0.585409 -0.412500 0.272000
endloop
endfacet
facet normal 0.000009 0.000000 1.000000
outer loop
vertex 0.585409 -0.412500 0.272000
vertex 0.686000 -0.787000 0.272000
vertex 0.588208 -0.406497 0.272000
endloop
endfacet
facet normal 0.000000 0.000000 1.000000
outer loop
vertex 0.581610 -0.417926 0.272000
vertex 0.576926 -0.422610 0.272000
vertex 0.686000 -0.787000 0.272000
endloop
endfacet
facet normal -0.000002 0.000000 1.000000
outer loop
vertex 0.686000 -0.787000 0.272000
vertex 0.576926 -0.422610 0.272000
vertex 0.571500 -0.426409 0.272000
endloop
endfacet
facet normal -0.000001 0.000000 1.000000
outer loop
vertex 0.686000 -0.787000 0.272000
vertex 0.571500 -0.426409 0.272000
vertex 0.565497 -0.429208 0.272000
endloop
endfacet
facet normal 0.000000 0.000000 1.000000
outer loop
vertex 0.545901 -0.430923 0.272000
vertex 0.539503 -0.429208 0.272000
vertex 0.419000 -0.787000 0.272000
endloop
endfacet
facet normal 0.000001 0.000000 1.000000
outer loop
vertex 0.419000 -0.787000 0.272000
vertex 0.539503 -0.429208 0.272000
vertex 0.533500 -0.426409 0.272000
endloop
endfacet
facet normal 0.000002 0.000000 1.000000
outer loop
vertex 0.419000 -0.787000 0.272000
vertex 0.533500 -0.426409 0.272000
vertex 0.528074 -0.422610 0.272000
endloop
endfacet
facet normal -0.000009 0.000000 1.000000
outer loop
vertex 0.516792 -0.380503 0.272000
vertex 0.519591 -0.374500 0.272000
vertex 0.419000 0.000000 0.272000
endloop
endfacet
facet normal 0.000001 0.000000 1.000000
outer loop
vertex 0.419000 0.000000 0.272000
vertex 0.519591 -0.374500 0.272000
vertex 0.523390 -0.369074 0.272000
endloop
endfacet
facet normal 0.000001 0.000000 1.000000
outer loop
vertex 0.419000 0.000000 0.272000
vertex 0.523390 -0.369074 0.272000
vertex 0.528074 -0.364390 0.272000
endloop
endfacet
facet normal 0.000000 0.000000 1.000000
outer loop
vertex 0.588208 -0.380503 0.272000
vertex 0.589923 -0.386901 0.272000
vertex 0.686000 0.000000 0.272000
endloop
endfacet
facet normal -0.000009 0.000000 1.000000
outer loop
vertex 0.686000 0.000000 0.272000
vertex 0.589923 -0.386901 0.272000
vertex 0.590500 -0.393500 0.272000
endloop
endfacet
facet normal 0.000000 0.000000 1.000000
outer loop
vertex 0.686000 0.000000 0.272000
vertex 0.590500 -0.393500 0.272000
vertex 0.686000 -0.787000 0.272000
endloop
endfacet
facet normal -0.000009 0.000000 1.000000
outer loop
vertex 0.686000 -0.787000 0.272000
vertex 0.590500 -0.393500 0.272000
vertex 0.589923 -0.400099 0.272000
endloop
endfacet
facet normal -0.000001 0.000000 1.000000
outer loop
vertex 0.686000 -0.787000 0.272000
vertex 0.589923 -0.400099 0.272000
vertex 0.588208 -0.406497 0.272000
endloop
endfacet
facet normal 0.000000 0.000000 1.000000
outer loop
vertex 0.528074 -0.422610 0.272000
vertex 0.523390 -0.417926 0.272000
vertex 0.419000 -0.787000 0.272000
endloop
endfacet
facet normal 0.000001 0.000000 1.000000
outer loop
vertex 0.419000 -0.787000 0.272000
vertex 0.523390 -0.417926 0.272000
vertex 0.519591 -0.412500 0.272000
endloop
endfacet
facet normal -0.000005 0.000000 1.000000
outer loop
vertex 0.419000 -0.787000 0.272000
vertex 0.519591 -0.412500 0.272000
vertex 0.516792 -0.406497 0.272000
endloop
endfacet
facet normal 0.000000 0.000000 1.000000
outer loop
vertex 0.516792 -0.406497 0.272000
vertex 0.515077 -0.400099 0.272000
vertex 0.419000 -0.787000 0.272000
endloop
endfacet
facet normal 0.000009 0.000000 1.000000
outer loop
vertex 0.419000 -0.787000 0.272000
vertex 0.515077 -0.400099 0.272000
vertex 0.514500 -0.393500 0.272000
endloop
endfacet
facet normal 0.000000 0.000000 1.000000
outer loop
vertex 0.419000 -0.787000 0.272000
vertex 0.514500 -0.393500 0.272000
vertex 0.419000 0.000000 0.272000
endloop
endfacet
facet normal 0.000009 0.000000 1.000000
outer loop
vertex 0.419000 0.000000 0.272000
vertex 0.514500 -0.393500 0.272000
vertex 0.515077 -0.386901 0.272000
endloop
endfacet
facet normal 0.000001 0.000000 1.000000
outer loop
vertex 0.419000 0.000000 0.272000
vertex 0.515077 -0.386901 0.272000
vertex 0.516792 -0.380503 0.272000
endloop
endfacet
facet normal -0.508872 0.000000 0.860842
outer loop
vertex 0.216000 -0.787000 0.152000
vertex 0.419000 -0.787000 0.272000
vertex 0.216000 0.000000 0.152000
endloop
endfacet
facet normal -0.508872 0.000000 0.860842
outer loop
vertex 0.216000 0.000000 0.152000
vertex 0.419000 -0.787000 0.272000
vertex 0.419000 0.000000 0.272000
endloop
endfacet
facet normal 0.000000 0.000000 1.000000
outer loop
vertex 0.000000 -0.787000 0.152000
vertex 0.216000 -0.787000 0.152000
vertex 0.000000 0.000000 0.152000
endloop
endfacet
facet normal 0.000000 0.000000 1.000000
outer loop
vertex 0.000000 0.000000 0.152000
vertex 0.216000 -0.787000 0.152000
vertex 0.216000 0.000000 0.152000
endloop
endfacet
facet normal -1.000000 0.000000 0.000000
outer loop
vertex 0.000000 -0.787000 0.000000
vertex 0.000000 -0.787000 0.152000
vertex 0.000000 0.000000 0.000000
endloop
endfacet
facet normal -1.000000 0.000000 0.000000
outer loop
vertex 0.000000 0.000000 0.000000
vertex 0.000000 -0.787000 0.152000
vertex 0.000000 0.000000 0.152000
endloop
endfacet
facet normal 0.000000 0.000000 -1.000000
outer loop
vertex 0.565497 -0.357792 0.000000
vertex 0.559099 -0.356077 0.000000
vertex 0.686000 0.000000 0.000000
endloop
endfacet
facet normal 0.000000 0.000000 -1.000000
outer loop
vertex 0.559099 -0.356077 0.000000
vertex 0.552500 -0.355500 0.000000
vertex 0.686000 0.000000 0.000000
endloop
endfacet
facet normal 0.000000 0.000000 -1.000000
outer loop
vertex 0.686000 0.000000 0.000000
vertex 0.552500 -0.355500 0.000000
vertex 0.545901 -0.356077 0.000000
endloop
endfacet
facet normal 0.000000 0.000000 -1.000000
outer loop
vertex 0.686000 0.000000 0.000000
vertex 0.545901 -0.356077 0.000000
vertex 0.000000 0.000000 0.000000
endloop
endfacet
facet normal 0.000000 0.000000 -1.000000
outer loop
vertex 0.686000 -0.787000 0.000000
vertex 0.552500 -0.431500 0.000000
vertex 0.559099 -0.430923 0.000000
endloop
endfacet
facet normal 0.000000 0.000000 -1.000000
outer loop
vertex 0.545901 -0.356077 0.000000
vertex 0.539503 -0.357792 0.000000
vertex 0.000000 0.000000 0.000000
endloop
endfacet
facet normal 0.000000 0.000000 -1.000000
outer loop
vertex 0.000000 0.000000 0.000000
vertex 0.539503 -0.357792 0.000000
vertex 0.533500 -0.360591 0.000000
endloop
endfacet
facet normal 0.000000 0.000000 -1.000000
outer loop
vertex 0.000000 0.000000 0.000000
vertex 0.533500 -0.360591 0.000000
vertex 0.528074 -0.364390 0.000000
endloop
endfacet
facet normal 0.000000 0.000000 -1.000000
outer loop
vertex 0.588208 -0.380503 0.000000
vertex 0.585409 -0.374500 0.000000
vertex 0.686000 0.000000 0.000000
endloop
endfacet
facet normal 0.000000 0.000000 -1.000000
outer loop
vertex 0.686000 0.000000 0.000000
vertex 0.585409 -0.374500 0.000000
vertex 0.581610 -0.369074 0.000000
endloop
endfacet
facet normal 0.000000 0.000000 -1.000000
outer loop
vertex 0.581610 -0.369074 0.000000
vertex 0.576926 -0.364390 0.000000
vertex 0.686000 0.000000 0.000000
endloop
endfacet
facet normal 0.000000 0.000000 -1.000000
outer loop
vertex 0.686000 0.000000 0.000000
vertex 0.576926 -0.364390 0.000000
vertex 0.571500 -0.360591 0.000000
endloop
endfacet
facet normal 0.000000 0.000000 -1.000000
outer loop
vertex 0.686000 0.000000 0.000000
vertex 0.571500 -0.360591 0.000000
vertex 0.565497 -0.357792 0.000000
endloop
endfacet
facet normal 0.000000 0.000000 -1.000000
outer loop
vertex 0.528074 -0.364390 0.000000
vertex 0.523390 -0.369074 0.000000
vertex 0.000000 0.000000 0.000000
endloop
endfacet
facet normal 0.000000 0.000000 -1.000000
outer loop
vertex 0.000000 0.000000 0.000000
vertex 0.523390 -0.369074 0.000000
vertex 0.519591 -0.374500 0.000000
endloop
endfacet
facet normal 0.000000 0.000000 -1.000000
outer loop
vertex 0.000000 0.000000 0.000000
vertex 0.519591 -0.374500 0.000000
vertex 0.516792 -0.380503 0.000000
endloop
endfacet
facet normal 0.000000 0.000000 -1.000000
outer loop
vertex 0.559099 -0.430923 0.000000
vertex 0.565497 -0.429208 0.000000
vertex 0.686000 -0.787000 0.000000
endloop
endfacet
facet normal 0.000000 0.000000 -1.000000
outer loop
vertex 0.686000 -0.787000 0.000000
vertex 0.565497 -0.429208 0.000000
vertex 0.571500 -0.426409 0.000000
endloop
endfacet
facet normal 0.000000 0.000000 -1.000000
outer loop
vertex 0.686000 -0.787000 0.000000
vertex 0.571500 -0.426409 0.000000
vertex 0.576926 -0.422610 0.000000
endloop
endfacet
facet normal 0.000000 0.000000 -1.000000
outer loop
vertex 0.576926 -0.422610 0.000000
vertex 0.581610 -0.417926 0.000000
vertex 0.686000 -0.787000 0.000000
endloop
endfacet
facet normal 0.000000 0.000000 -1.000000
outer loop
vertex 0.686000 -0.787000 0.000000
vertex 0.581610 -0.417926 0.000000
vertex 0.585409 -0.412500 0.000000
endloop
endfacet
facet normal 0.000000 0.000000 -1.000000
outer loop
vertex 0.686000 -0.787000 0.000000
vertex 0.585409 -0.412500 0.000000
vertex 0.588208 -0.406497 0.000000
endloop
endfacet
facet normal 0.000000 0.000000 -1.000000
outer loop
vertex 0.516792 -0.406497 0.000000
vertex 0.519591 -0.412500 0.000000
vertex 0.000000 -0.787000 0.000000
endloop
endfacet
facet normal 0.000000 0.000000 -1.000000
outer loop
vertex 0.000000 -0.787000 0.000000
vertex 0.519591 -0.412500 0.000000
vertex 0.523390 -0.417926 0.000000
endloop
endfacet
facet normal 0.000000 0.000000 -1.000000
outer loop
vertex 0.000000 -0.787000 0.000000
vertex 0.523390 -0.417926 0.000000
vertex 0.528074 -0.422610 0.000000
endloop
endfacet
facet normal 0.000000 0.000000 -1.000000
outer loop
vertex 0.528074 -0.422610 0.000000
vertex 0.533500 -0.426409 0.000000
vertex 0.000000 -0.787000 0.000000
endloop
endfacet
facet normal 0.000000 0.000000 -1.000000
outer loop
vertex 0.000000 -0.787000 0.000000
vertex 0.533500 -0.426409 0.000000
vertex 0.539503 -0.429208 0.000000
endloop
endfacet
facet normal 0.000000 0.000000 -1.000000
outer loop
vertex 0.000000 -0.787000 0.000000
vertex 0.539503 -0.429208 0.000000
vertex 0.686000 -0.787000 0.000000
endloop
endfacet
facet normal 0.000000 0.000000 -1.000000
outer loop
vertex 0.686000 -0.787000 0.000000
vertex 0.539503 -0.429208 0.000000
vertex 0.545901 -0.430923 0.000000
endloop
endfacet
facet normal 0.000000 0.000000 -1.000000
outer loop
vertex 0.686000 -0.787000 0.000000
vertex 0.545901 -0.430923 0.000000
vertex 0.552500 -0.431500 0.000000
endloop
endfacet
facet normal 0.000000 0.000000 -1.000000
outer loop
vertex 0.516792 -0.380503 0.000000
vertex 0.515077 -0.386901 0.000000
vertex 0.000000 0.000000 0.000000
endloop
endfacet
facet normal 0.000000 0.000000 -1.000000
outer loop
vertex 0.000000 0.000000 0.000000
vertex 0.515077 -0.386901 0.000000
vertex 0.514500 -0.393500 0.000000
endloop
endfacet
facet normal 0.000000 0.000000 -1.000000
outer loop
vertex 0.000000 0.000000 0.000000
vertex 0.514500 -0.393500 0.000000
vertex 0.000000 -0.787000 0.000000
endloop
endfacet
facet normal 0.000000 0.000000 -1.000000
outer loop
vertex 0.000000 -0.787000 0.000000
vertex 0.514500 -0.393500 0.000000
vertex 0.515077 -0.400099 0.000000
endloop
endfacet
facet normal 0.000000 0.000000 -1.000000
outer loop
vertex 0.000000 -0.787000 0.000000
vertex 0.515077 -0.400099 0.000000
vertex 0.516792 -0.406497 0.000000
endloop
endfacet
facet normal 0.000000 0.000000 -1.000000
outer loop
vertex 0.588208 -0.406497 0.000000
vertex 0.589923 -0.400099 0.000000
vertex 0.686000 -0.787000 0.000000
endloop
endfacet
facet normal 0.000000 0.000000 -1.000000
outer loop
vertex 0.686000 -0.787000 0.000000
vertex 0.589923 -0.400099 0.000000
vertex 0.590500 -0.393500 0.000000
endloop
endfacet
facet normal 0.000000 0.000000 -1.000000
outer loop
vertex 0.686000 -0.787000 0.000000
vertex 0.590500 -0.393500 0.000000
vertex 0.686000 0.000000 0.000000
endloop
endfacet
facet normal 0.000000 0.000000 -1.000000
outer loop
vertex 0.686000 0.000000 0.000000
vertex 0.590500 -0.393500 0.000000
vertex 0.589923 -0.386901 0.000000
endloop
endfacet
facet normal 0.000000 0.000000 -1.000000
outer loop
vertex 0.686000 0.000000 0.000000
vertex 0.589923 -0.386901 0.000000
vertex 0.588208 -0.380503 0.000000
endloop
endfacet
facet normal 0.000000 -1.000000 0.000000
outer loop
vertex 0.000000 -0.787000 0.152000
vertex 0.000000 -0.787000 0.000000
vertex 0.216000 -0.787000 0.152000
endloop
endfacet
facet normal 0.000000 -1.000000 0.000001
outer loop
vertex 0.216000 -0.787000 0.152000
vertex 0.000000 -0.787000 0.000000
vertex 0.686000 -0.787000 0.000000
endloop
endfacet
facet normal 0.000000 -1.000000 -0.000000
outer loop
vertex 0.216000 -0.787000 0.152000
vertex 0.686000 -0.787000 0.000000
vertex 0.419000 -0.787000 0.272000
endloop
endfacet
facet normal 0.000000 -1.000000 0.000000
outer loop
vertex 0.419000 -0.787000 0.272000
vertex 0.686000 -0.787000 0.000000
vertex 0.686000 -0.787000 0.272000
endloop
endfacet
facet normal 0.000000 1.000000 0.000000
outer loop
vertex 0.000000 0.000000 0.000000
vertex 0.000000 0.000000 0.152000
vertex 0.216000 0.000000 0.152000
endloop
endfacet
facet normal 0.000000 1.000000 0.000000
outer loop
vertex 0.419000 0.000000 0.272000
vertex 0.686000 0.000000 0.272000
vertex 0.216000 0.000000 0.152000
endloop
endfacet
facet normal 0.000000 1.000000 0.000000
outer loop
vertex 0.216000 0.000000 0.152000
vertex 0.686000 0.000000 0.272000
vertex 0.686000 0.000000 0.000000
endloop
endfacet
facet normal 0.000000 1.000000 0.000000
outer loop
vertex 0.216000 0.000000 0.152000
vertex 0.686000 0.000000 0.000000
vertex 0.000000 0.000000 0.000000
endloop
endfacet
facet normal -0.087102 0.996199 0.000000
outer loop
vertex 0.552500 -0.431500 0.000000
vertex 0.552500 -0.431500 0.272000
vertex 0.559099 -0.430923 0.000000
endloop
endfacet
facet normal -0.087099 0.996200 0.000000
outer loop
vertex 0.559099 -0.430923 0.000000
vertex 0.552500 -0.431500 0.272000
vertex 0.559099 -0.430923 0.272000
endloop
endfacet
facet normal -0.258914 0.965900 0.000000
outer loop
vertex 0.559099 -0.430923 0.000000
vertex 0.559099 -0.430923 0.272000
vertex 0.565497 -0.429208 0.000000
endloop
endfacet
facet normal -0.258918 0.965899 0.000000
outer loop
vertex 0.565497 -0.429208 0.000000
vertex 0.559099 -0.430923 0.272000
vertex 0.565497 -0.429208 0.272000
endloop
endfacet
facet normal -0.422583 0.906324 0.000000
outer loop
vertex 0.565497 -0.429208 0.000000
vertex 0.565497 -0.429208 0.272000
vertex 0.571500 -0.426409 0.000000
endloop
endfacet
facet normal -0.422590 0.906321 0.000000
outer loop
vertex 0.571500 -0.426409 0.000000
vertex 0.565497 -0.429208 0.272000
vertex 0.571500 -0.426409 0.272000
endloop
endfacet
facet normal -0.573535 0.819181 0.000000
outer loop
vertex 0.571500 -0.426409 0.000000
vertex 0.571500 -0.426409 0.272000
vertex 0.576926 -0.422610 0.000000
endloop
endfacet
facet normal -0.573551 0.819170 0.000000
outer loop
vertex 0.576926 -0.422610 0.000000
vertex 0.571500 -0.426409 0.272000
vertex 0.576926 -0.422610 0.272000
endloop
endfacet
facet normal -0.707106 0.707107 0.000000
outer loop
vertex 0.576926 -0.422610 0.000000
vertex 0.576926 -0.422610 0.272000
vertex 0.581610 -0.417926 0.000000
endloop
endfacet
facet normal -0.707098 0.707115 0.000000
outer loop
vertex 0.581610 -0.417926 0.000000
vertex 0.576926 -0.422610 0.272000
vertex 0.581610 -0.417926 0.272000
endloop
endfacet
facet normal -0.819182 0.573534 0.000000
outer loop
vertex 0.581610 -0.417926 0.000000
vertex 0.581610 -0.417926 0.272000
vertex 0.585409 -0.412500 0.000000
endloop
endfacet
facet normal -0.819182 0.573534 0.000000
outer loop
vertex 0.585409 -0.412500 0.000000
vertex 0.581610 -0.417926 0.272000
vertex 0.585409 -0.412500 0.272000
endloop
endfacet
facet normal -0.906315 0.422603 0.000000
outer loop
vertex 0.585409 -0.412500 0.000000
vertex 0.585409 -0.412500 0.272000
vertex 0.588208 -0.406497 0.000000
endloop
endfacet
facet normal -0.906321 0.422589 0.000000
outer loop
vertex 0.588208 -0.406497 0.000000
vertex 0.585409 -0.412500 0.272000
vertex 0.588208 -0.406497 0.272000
endloop
endfacet
facet normal -0.965899 0.258921 0.000000
outer loop
vertex 0.588208 -0.406497 0.000000
vertex 0.588208 -0.406497 0.272000
vertex 0.589923 -0.400099 0.000000
endloop
endfacet
facet normal -0.965903 0.258905 0.000000
outer loop
vertex 0.589923 -0.400099 0.000000
vertex 0.588208 -0.406497 0.272000
vertex 0.589923 -0.400099 0.272000
endloop
endfacet
facet normal -0.996199 0.087102 0.000000
outer loop
vertex 0.589923 -0.400099 0.000000
vertex 0.589923 -0.400099 0.272000
vertex 0.590500 -0.393500 0.000000
endloop
endfacet
facet normal -0.996199 0.087102 0.000000
outer loop
vertex 0.590500 -0.393500 0.000000
vertex 0.589923 -0.400099 0.272000
vertex 0.590500 -0.393500 0.272000
endloop
endfacet
facet normal -0.996199 -0.087102 0.000000
outer loop
vertex 0.590500 -0.393500 0.000000
vertex 0.590500 -0.393500 0.272000
vertex 0.589923 -0.386901 0.000000
endloop
endfacet
facet normal -0.996199 -0.087102 0.000000
outer loop
vertex 0.589923 -0.386901 0.000000
vertex 0.590500 -0.393500 0.272000
vertex 0.589923 -0.386901 0.272000
endloop
endfacet
facet normal -0.965903 -0.258905 0.000000
outer loop
vertex 0.589923 -0.386901 0.000000
vertex 0.589923 -0.386901 0.272000
vertex 0.588208 -0.380503 0.000000
endloop
endfacet
facet normal -0.965899 -0.258921 0.000000
outer loop
vertex 0.588208 -0.380503 0.000000
vertex 0.589923 -0.386901 0.272000
vertex 0.588208 -0.380503 0.272000
endloop
endfacet
facet normal -0.906321 -0.422589 0.000000
outer loop
vertex 0.588208 -0.380503 0.000000
vertex 0.588208 -0.380503 0.272000
vertex 0.585409 -0.374500 0.000000
endloop
endfacet
facet normal -0.906315 -0.422603 0.000000
outer loop
vertex 0.585409 -0.374500 0.000000
vertex 0.588208 -0.380503 0.272000
vertex 0.585409 -0.374500 0.272000
endloop
endfacet
facet normal -0.819182 -0.573534 0.000000
outer loop
vertex 0.585409 -0.374500 0.000000
vertex 0.585409 -0.374500 0.272000
vertex 0.581610 -0.369074 0.000000
endloop
endfacet
facet normal -0.819182 -0.573534 0.000000
outer loop
vertex 0.581610 -0.369074 0.000000
vertex 0.585409 -0.374500 0.272000
vertex 0.581610 -0.369074 0.272000
endloop
endfacet
facet normal -0.707098 -0.707115 0.000000
outer loop
vertex 0.581610 -0.369074 0.000000
vertex 0.581610 -0.369074 0.272000
vertex 0.576926 -0.364390 0.000000
endloop
endfacet
facet normal -0.707106 -0.707107 0.000000
outer loop
vertex 0.576926 -0.364390 0.000000
vertex 0.581610 -0.369074 0.272000
vertex 0.576926 -0.364390 0.272000
endloop
endfacet
facet normal -0.573551 -0.819170 0.000000
outer loop
vertex 0.576926 -0.364390 0.000000
vertex 0.576926 -0.364390 0.272000
vertex 0.571500 -0.360591 0.000000
endloop
endfacet
facet normal -0.573535 -0.819181 0.000000
outer loop
vertex 0.571500 -0.360591 0.000000
vertex 0.576926 -0.364390 0.272000
vertex 0.571500 -0.360591 0.272000
endloop
endfacet
facet normal -0.422590 -0.906321 0.000000
outer loop
vertex 0.571500 -0.360591 0.000000
vertex 0.571500 -0.360591 0.272000
vertex 0.565497 -0.357792 0.000000
endloop
endfacet
facet normal -0.422583 -0.906324 0.000000
outer loop
vertex 0.565497 -0.357792 0.000000
vertex 0.571500 -0.360591 0.272000
vertex 0.565497 -0.357792 0.272000
endloop
endfacet
facet normal -0.258918 -0.965899 0.000000
outer loop
vertex 0.565497 -0.357792 0.000000
vertex 0.565497 -0.357792 0.272000
vertex 0.559099 -0.356077 0.000000
endloop
endfacet
facet normal -0.258914 -0.965900 0.000000
outer loop
vertex 0.559099 -0.356077 0.000000
vertex 0.565497 -0.357792 0.272000
vertex 0.559099 -0.356077 0.272000
endloop
endfacet
facet normal -0.087099 -0.996200 0.000000
outer loop
vertex 0.559099 -0.356077 0.000000
vertex 0.559099 -0.356077 0.272000
vertex 0.552500 -0.355500 0.000000
endloop
endfacet
facet normal -0.087102 -0.996199 0.000000
outer loop
vertex 0.552500 -0.355500 0.000000
vertex 0.559099 -0.356077 0.272000
vertex 0.552500 -0.355500 0.272000
endloop
endfacet
facet normal 0.087101 -0.996199 0.000000
outer loop
vertex 0.552500 -0.355500 0.000000
vertex 0.552500 -0.355500 0.272000
vertex 0.545901 -0.356077 0.000000
endloop
endfacet
facet normal 0.087101 -0.996199 0.000000
outer loop
vertex 0.545901 -0.356077 0.000000
vertex 0.552500 -0.355500 0.272000
vertex 0.545901 -0.356077 0.272000
endloop
endfacet
facet normal 0.258910 -0.965901 0.000000
outer loop
vertex 0.545901 -0.356077 0.000000
vertex 0.545901 -0.356077 0.272000
vertex 0.539503 -0.357792 0.000000
endloop
endfacet
facet normal 0.258914 -0.965900 0.000000
outer loop
vertex 0.539503 -0.357792 0.000000
vertex 0.545901 -0.356077 0.272000
vertex 0.539503 -0.357792 0.272000
endloop
endfacet
facet normal 0.422596 -0.906318 0.000000
outer loop
vertex 0.539503 -0.357792 0.000000
vertex 0.539503 -0.357792 0.272000
vertex 0.533500 -0.360591 0.000000
endloop
endfacet
facet normal 0.422583 -0.906324 0.000000
outer loop
vertex 0.533500 -0.360591 0.000000
vertex 0.539503 -0.357792 0.272000
vertex 0.533500 -0.360591 0.272000
endloop
endfacet
facet normal 0.573543 -0.819175 0.000000
outer loop
vertex 0.533500 -0.360591 0.000000
vertex 0.533500 -0.360591 0.272000
vertex 0.528074 -0.364390 0.000000
endloop
endfacet
facet normal 0.573543 -0.819175 0.000000
outer loop
vertex 0.528074 -0.364390 0.000000
vertex 0.533500 -0.360591 0.272000
vertex 0.528074 -0.364390 0.272000
endloop
endfacet
facet normal 0.707115 -0.707099 0.000000
outer loop
vertex 0.528074 -0.364390 0.000000
vertex 0.528074 -0.364390 0.272000
vertex 0.523390 -0.369074 0.000000
endloop
endfacet
facet normal 0.707098 -0.707115 0.000000
outer loop
vertex 0.523390 -0.369074 0.000000
vertex 0.528074 -0.364390 0.272000
vertex 0.523390 -0.369074 0.272000
endloop
endfacet
facet normal 0.819166 -0.573556 0.000000
outer loop
vertex 0.523390 -0.369074 0.000000
vertex 0.523390 -0.369074 0.272000
vertex 0.519591 -0.374500 0.000000
endloop
endfacet
facet normal 0.819182 -0.573534 0.000000
outer loop
vertex 0.519591 -0.374500 0.000000
vertex 0.523390 -0.369074 0.272000
vertex 0.519591 -0.374500 0.272000
endloop
endfacet
facet normal 0.906321 -0.422589 0.000000
outer loop
vertex 0.519591 -0.374500 0.000000
vertex 0.519591 -0.374500 0.272000
vertex 0.516792 -0.380503 0.000000
endloop
endfacet
facet normal 0.906328 -0.422576 0.000000
outer loop
vertex 0.516792 -0.380503 0.000000
vertex 0.519591 -0.374500 0.272000
vertex 0.516792 -0.380503 0.272000
endloop
endfacet
facet normal 0.965899 -0.258921 0.000000
outer loop
vertex 0.516792 -0.380503 0.000000
vertex 0.516792 -0.380503 0.272000
vertex 0.515077 -0.386901 0.000000
endloop
endfacet
facet normal 0.965903 -0.258905 0.000000
outer loop
vertex 0.515077 -0.386901 0.000000
vertex 0.516792 -0.380503 0.272000
vertex 0.515077 -0.386901 0.272000
endloop
endfacet
facet normal 0.996199 -0.087102 0.000000
outer loop
vertex 0.515077 -0.386901 0.000000
vertex 0.515077 -0.386901 0.272000
vertex 0.514500 -0.393500 0.000000
endloop
endfacet
facet normal 0.996199 -0.087102 0.000000
outer loop
vertex 0.514500 -0.393500 0.000000
vertex 0.515077 -0.386901 0.272000
vertex 0.514500 -0.393500 0.272000
endloop
endfacet
facet normal 0.996199 0.087102 0.000000
outer loop
vertex 0.514500 -0.393500 0.000000
vertex 0.514500 -0.393500 0.272000
vertex 0.515077 -0.400099 0.000000
endloop
endfacet
facet normal 0.996199 0.087102 0.000000
outer loop
vertex 0.515077 -0.400099 0.000000
vertex 0.514500 -0.393500 0.272000
vertex 0.515077 -0.400099 0.272000
endloop
endfacet
facet normal 0.965903 0.258905 0.000000
outer loop
vertex 0.515077 -0.400099 0.000000
vertex 0.515077 -0.400099 0.272000
vertex 0.516792 -0.406497 0.000000
endloop
endfacet
facet normal 0.965899 0.258921 0.000000
outer loop
vertex 0.516792 -0.406497 0.000000
vertex 0.515077 -0.400099 0.272000
vertex 0.516792 -0.406497 0.272000
endloop
endfacet
facet normal 0.906328 0.422576 0.000000
outer loop
vertex 0.516792 -0.406497 0.000000
vertex 0.516792 -0.406497 0.272000
vertex 0.519591 -0.412500 0.000000
endloop
endfacet
facet normal 0.906321 0.422589 0.000000
outer loop
vertex 0.519591 -0.412500 0.000000
vertex 0.516792 -0.406497 0.272000
vertex 0.519591 -0.412500 0.272000
endloop
endfacet
facet normal 0.819182 0.573534 0.000000
outer loop
vertex 0.519591 -0.412500 0.000000
vertex 0.519591 -0.412500 0.272000
vertex 0.523390 -0.417926 0.000000
endloop
endfacet
facet normal 0.819166 0.573556 0.000000
outer loop
vertex 0.523390 -0.417926 0.000000
vertex 0.519591 -0.412500 0.272000
vertex 0.523390 -0.417926 0.272000
endloop
endfacet
facet normal 0.707098 0.707115 0.000000
outer loop
vertex 0.523390 -0.417926 0.000000
vertex 0.523390 -0.417926 0.272000
vertex 0.528074 -0.422610 0.000000
endloop
endfacet
facet normal 0.707115 0.707099 0.000000
outer loop
vertex 0.528074 -0.422610 0.000000
vertex 0.523390 -0.417926 0.272000
vertex 0.528074 -0.422610 0.272000
endloop
endfacet
facet normal 0.573543 0.819175 0.000000
outer loop
vertex 0.528074 -0.422610 0.000000
vertex 0.528074 -0.422610 0.272000
vertex 0.533500 -0.426409 0.000000
endloop
endfacet
facet normal 0.573543 0.819175 0.000000
outer loop
vertex 0.533500 -0.426409 0.000000
vertex 0.528074 -0.422610 0.272000
vertex 0.533500 -0.426409 0.272000
endloop
endfacet
facet normal 0.422583 0.906324 0.000000
outer loop
vertex 0.533500 -0.426409 0.000000
vertex 0.533500 -0.426409 0.272000
vertex 0.539503 -0.429208 0.000000
endloop
endfacet
facet normal 0.422596 0.906318 0.000000
outer loop
vertex 0.539503 -0.429208 0.000000
vertex 0.533500 -0.426409 0.272000
vertex 0.539503 -0.429208 0.272000
endloop
endfacet
facet normal 0.258914 0.965900 0.000000
outer loop
vertex 0.539503 -0.429208 0.000000
vertex 0.539503 -0.429208 0.272000
vertex 0.545901 -0.430923 0.000000
endloop
endfacet
facet normal 0.258910 0.965901 0.000000
outer loop
vertex 0.545901 -0.430923 0.000000
vertex 0.539503 -0.429208 0.272000
vertex 0.545901 -0.430923 0.272000
endloop
endfacet
facet normal 0.087101 0.996199 0.000000
outer loop
vertex 0.545901 -0.430923 0.000000
vertex 0.545901 -0.430923 0.272000
vertex 0.552500 -0.431500 0.000000
endloop
endfacet
facet normal 0.087101 0.996199 0.000000
outer loop
vertex 0.552500 -0.431500 0.000000
vertex 0.545901 -0.430923 0.272000
vertex 0.552500 -0.431500 0.272000
endloop
endfacet
endsolid wall1
