solid wall1
facet normal 1.000000 0.000000 0.000000
outer loop
vertex 0.686000 -0.787000 0.272000
vertex 0.686000 -0.787000 -0.000000
vertex 0.686000 -0.000000 0.272000
endloop
endfacet
facet normal 1.000000 -0.000000 0.000000
outer loop
vertex 0.686000 -0.000000 0.272000
vertex 0.686000 -0.787000 -0.000000
vertex 0.686000 0.000000 0.000000
endloop
endfacet
facet normal 0.000006 -0.000000 1.000000
outer loop
vertex 0.528074 -0.364390 0.272000
vertex 0.533500 -0.360591 0.272000
vertex 0.419000 -0.000000 0.272000
endloop
endfacet
facet normal 0.000002 0.000000 1.000000
outer loop
vertex 0.419000 -0.787000 0.272000
vertex 0.552500 -0.431500 0.272000
vertex 0.545901 -0.430923 0.272000
endloop
endfacet
facet normal 0.000000 0.000000 1.000000
outer loop
vertex 0.552500 -0.431500 0.272000
vertex 0.419000 -0.787000 0.272000
vertex 0.559099 -0.430923 0.272000
endloop
endfacet
facet normal 0.000000 0.000000 1.000000
outer loop
vertex 0.559099 -0.430923 0.272000
vertex 0.419000 -0.787000 0.272000
vertex 0.686000 -0.787000 0.272000
endloop
endfacet
facet normal 0.000000 0.000000 1.000000
outer loop
vertex 0.559099 -0.430923 0.272000
vertex 0.686000 -0.787000 0.272000
vertex 0.565497 -0.429208 0.272000
endloop
endfacet
facet normal 0.000006 -0.000000 1.000000
outer loop
vertex 0.571500 -0.360591 0.272000
vertex 0.686000 -0.000000 0.272000
vertex 0.565497 -0.357792 0.272000
endloop
endfacet
facet normal -0.000006 -0.000000 1.000000
outer loop
vertex 0.565497 -0.357792 0.272000
vertex 0.686000 -0.000000 0.272000
vertex 0.559099 -0.356077 0.272000
endloop
endfacet
facet normal 0.000002 -0.000000 1.000000
outer loop
vertex 0.686000 -0.000000 0.272000
vertex 0.585409 -0.374500 0.272000
vertex 0.588208 -0.380503 0.272000
endloop
endfacet
facet normal -0.000006 -0.000000 1.000000
outer loop
vertex 0.533500 -0.360591 0.272000
vertex 0.539503 -0.357792 0.272000
vertex 0.419000 -0.000000 0.272000
endloop
endfacet
facet normal 0.000004 -0.000000 1.000000
outer loop
vertex 0.419000 -0.000000 0.272000
vertex 0.539503 -0.357792 0.272000
vertex 0.545901 -0.356077 0.272000
endloop
endfacet
facet normal 0.000000 -0.000000 1.000000
outer loop
vertex 0.419000 -0.000000 0.272000
vertex 0.545901 -0.356077 0.272000
vertex 0.686000 -0.000000 0.272000
endloop
endfacet
facet normal -0.000004 -0.000000 1.000000
outer loop
vertex 0.686000 -0.000000 0.272000
vertex 0.545901 -0.356077 0.272000
vertex 0.552500 -0.355500 0.272000
endloop
endfacet
facet normal 0.000003 -0.000000 1.000000
outer loop
vertex 0.686000 -0.000000 0.272000
vertex 0.552500 -0.355500 0.272000
vertex 0.559099 -0.356077 0.272000
endloop
endfacet
facet normal -0.000006 -0.000000 1.000000
outer loop
vertex 0.571500 -0.360591 0.272000
vertex 0.576926 -0.364390 0.272000
vertex 0.686000 -0.000000 0.272000
endloop
endfacet
facet normal 0.000002 -0.000000 1.000000
outer loop
vertex 0.686000 -0.000000 0.272000
vertex 0.576926 -0.364390 0.272000
vertex 0.581610 -0.369074 0.272000
endloop
endfacet
facet normal -0.000004 -0.000000 1.000000
outer loop
vertex 0.686000 -0.000000 0.272000
vertex 0.581610 -0.369074 0.272000
vertex 0.585409 -0.374500 0.272000
endloop
endfacet
facet normal 0.000008 0.000000 1.000000
outer loop
vertex 0.581610 -0.417926 0.272000
vertex 0.686000 -0.787000 0.272000
vertex 0.585409 -0.412500 0.272000
endloop
endfacet
facet normal 0.000000 0.000000 1.000000
outer loop
vertex 0.585409 -0.412500 0.272000
vertex 0.686000 -0.787000 0.272000
vertex 0.588208 -0.406497 0.272000
endloop
endfacet
facet normal -0.000007 0.000000 1.000000
outer loop
vertex 0.581610 -0.417926 0.272000
vertex 0.576926 -0.422610 0.272000
vertex 0.686000 -0.787000 0.272000
endloop
endfacet
facet normal 0.000003 0.000000 1.000000
outer loop
vertex 0.686000 -0.787000 0.272000
vertex 0.576926 -0.422610 0.272000
vertex 0.571500 -0.426409 0.272000
endloop
endfacet
facet normal -0.000002 0.000000 1.000000
outer loop
vertex 0.686000 -0.787000 0.272000
vertex 0.571500 -0.426409 0.272000
vertex 0.565497 -0.429208 0.272000
endloop
endfacet
facet normal 0.000000 0.000000 1.000000
outer loop
vertex 0.545901 -0.430923 0.272000
vertex 0.539503 -0.429208 0.272000
vertex 0.419000 -0.787000 0.272000
endloop
endfacet
facet normal 0.000002 0.000000 1.000000
outer loop
vertex 0.419000 -0.787000 0.272000
vertex 0.539503 -0.429208 0.272000
vertex 0.533500 -0.426409 0.272000
endloop
endfacet
facet normal -0.000003 0.000000 1.000000
outer loop
vertex 0.419000 -0.787000 0.272000
vertex 0.533500 -0.426409 0.272000
vertex 0.528074 -0.422610 0.272000
endloop
endfacet
facet normal 0.000000 -0.000000 1.000000
outer loop
vertex 0.516792 -0.380503 0.272000
vertex 0.519591 -0.374500 0.272000
vertex 0.419000 -0.000000 0.272000
endloop
endfacet
facet normal 0.000004 -0.000000 1.000000
outer loop
vertex 0.419000 -0.000000 0.272000
vertex 0.519591 -0.374500 0.272000
vertex 0.523390 -0.369074 0.272000
endloop
endfacet
facet normal -0.000002 -0.000000 1.000000
outer loop
vertex 0.419000 -0.000000 0.272000
vertex 0.523390 -0.369074 0.272000
vertex 0.528074 -0.364390 0.272000
endloop
endfacet
facet normal 0.000012 -0.000000 1.000000
outer loop
vertex 0.588208 -0.380503 0.272000
vertex 0.589923 -0.386901 0.272000
vertex 0.686000 -0.000000 0.272000
endloop
endfacet
facet normal -0.000013 -0.000000 1.000000
outer loop
vertex 0.686000 -0.000000 0.272000
vertex 0.589923 -0.386901 0.272000
vertex 0.590500 -0.393500 0.272000
endloop
endfacet
facet normal -0.000000 -0.000000 1.000000
outer loop
vertex 0.686000 -0.000000 0.272000
vertex 0.590500 -0.393500 0.272000
vertex 0.686000 -0.787000 0.272000
endloop
endfacet
facet normal 0.000006 0.000000 1.000000
outer loop
vertex 0.686000 -0.787000 0.272000
vertex 0.590500 -0.393500 0.272000
vertex 0.589923 -0.400099 0.272000
endloop
endfacet
facet normal -0.000005 0.000000 1.000000
outer loop
vertex 0.686000 -0.787000 0.272000
vertex 0.589923 -0.400099 0.272000
vertex 0.588208 -0.406497 0.272000
endloop
endfacet
facet normal 0.000007 0.000000 1.000000
outer loop
vertex 0.528074 -0.422610 0.272000
vertex 0.523390 -0.417926 0.272000
vertex 0.419000 -0.787000 0.272000
endloop
endfacet
facet normal -0.000004 0.000000 1.000000
outer loop
vertex 0.419000 -0.787000 0.272000
vertex 0.523390 -0.417926 0.272000
vertex 0.519591 -0.412500 0.272000
endloop
endfacet
facet normal -0.000001 0.000000 1.000000
outer loop
vertex 0.419000 -0.787000 0.272000
vertex 0.519591 -0.412500 0.272000
vertex 0.516792 -0.406497 0.272000
endloop
endfacet
facet normal 0.000000 0.000000 1.000000
outer loop
vertex 0.516792 -0.406497 0.272000
vertex 0.515077 -0.400099 0.272000
vertex 0.419000 -0.787000 0.272000
endloop
endfacet
facet normal -0.000006 0.000000 1.000000
outer loop
vertex 0.419000 -0.787000 0.272000
vertex 0.515077 -0.400099 0.272000
vertex 0.514500 -0.393500 0.272000
endloop
endfacet
facet normal 0.000000 -0.000000 1.000000
outer loop
vertex 0.419000 -0.787000 0.272000
vertex 0.514500 -0.393500 0.272000
vertex 0.419000 -0.000000 0.272000
endloop
endfacet
facet normal 0.000013 -0.000000 1.000000
outer loop
vertex 0.419000 -0.000000 0.272000
vertex 0.514500 -0.393500 0.272000
vertex 0.515077 -0.386901 0.272000
endloop
endfacet
facet normal -0.000006 -0.000000 1.000000
outer loop
vertex 0.419000 -0.000000 0.272000
vertex 0.515077 -0.386901 0.272000
vertex 0.516792 -0.380503 0.272000
endloop
endfacet
facet normal -0.508872 0.000000 0.860842
outer loop
vertex 0.216000 -0.787000 0.152000
vertex 0.419000 -0.787000 0.272000
vertex 0.216000 -0.000000 0.152000
endloop
endfacet
facet normal -0.508872 -0.000000 0.860842
outer loop
vertex 0.216000 -0.000000 0.152000
vertex 0.419000 -0.787000 0.272000
vertex 0.419000 -0.000000 0.272000
endloop
endfacet
facet normal 0.000000 -0.000000 1.000000
outer loop
vertex 0.000000 -0.787000 0.152000
vertex 0.216000 -0.787000 0.152000
vertex 0.000000 -0.000000 0.152000
endloop
endfacet
facet normal 0.000000 -0.000000 1.000000
outer loop
vertex 0.000000 -0.000000 0.152000
vertex 0.216000 -0.787000 0.152000
vertex 0.216000 -0.000000 0.152000
endloop
endfacet
facet normal -1.000000 0.000000 0.000000
outer loop
vertex 0.000000 -0.787000 -0.000000
vertex 0.000000 -0.787000 0.152000
vertex 0.000000 0.000000 0.000000
endloop
endfacet
facet normal -1.000000 0.000000 0.000000
outer loop
vertex 0.000000 0.000000 0.000000
vertex 0.000000 -0.787000 0.152000
vertex 0.000000 -0.000000 0.152000
endloop
endfacet
facet normal 0.000000 0.000000 -1.000000
outer loop
vertex 0.565497 -0.357792 -0.000000
vertex 0.559099 -0.356077 -0.000000
vertex 0.686000 0.000000 0.000000
endloop
endfacet
facet normal -0.000000 0.000000 -1.000000
outer loop
vertex 0.559099 -0.356077 -0.000000
vertex 0.552500 -0.355500 -0.000000
vertex 0.686000 0.000000 0.000000
endloop
endfacet
facet normal 0.000000 0.000000 -1.000000
outer loop
vertex 0.686000 0.000000 0.000000
vertex 0.552500 -0.355500 -0.000000
vertex 0.545901 -0.356077 -0.000000
endloop
endfacet
facet normal 0.000000 0.000000 -1.000000
outer loop
vertex 0.686000 0.000000 0.000000
vertex 0.545901 -0.356077 -0.000000
vertex 0.000000 0.000000 0.000000
endloop
endfacet
facet normal -0.000000 0.000000 -1.000000
outer loop
vertex 0.686000 -0.787000 -0.000000
vertex 0.552500 -0.431500 -0.000000
vertex 0.559099 -0.430923 -0.000000
endloop
endfacet
facet normal -0.000000 0.000000 -1.000000
outer loop
vertex 0.545901 -0.356077 -0.000000
vertex 0.539503 -0.357792 -0.000000
vertex 0.000000 0.000000 0.000000
endloop
endfacet
facet normal -0.000000 0.000000 -1.000000
outer loop
vertex 0.000000 0.000000 0.000000
vertex 0.539503 -0.357792 -0.000000
vertex 0.533500 -0.360591 -0.000000
endloop
endfacet
facet normal 0.000000 0.000000 -1.000000
outer loop
vertex 0.000000 0.000000 0.000000
vertex 0.533500 -0.360591 -0.000000
vertex 0.528074 -0.364390 -0.000000
endloop
endfacet
facet normal -0.000000 0.000000 -1.000000
outer loop
vertex 0.588208 -0.380503 -0.000000
vertex 0.585409 -0.374500 -0.000000
vertex 0.686000 0.000000 0.000000
endloop
endfacet
facet normal -0.000000 0.000000 -1.000000
outer loop
vertex 0.686000 0.000000 0.000000
vertex 0.585409 -0.374500 -0.000000
vertex 0.581610 -0.369074 -0.000000
endloop
endfacet
facet normal 0.000000 0.000000 -1.000000
outer loop
vertex 0.581610 -0.369074 -0.000000
vertex 0.576926 -0.364390 -0.000000
vertex 0.686000 0.000000 0.000000
endloop
endfacet
facet normal -0.000000 0.000000 -1.000000
outer loop
vertex 0.686000 0.000000 0.000000
vertex 0.576926 -0.364390 -0.000000
vertex 0.571500 -0.360591 -0.000000
endloop
endfacet
facet normal 0.000000 0.000000 -1.000000
outer loop
vertex 0.686000 0.000000 0.000000
vertex 0.571500 -0.360591 -0.000000
vertex 0.565497 -0.357792 -0.000000
endloop
endfacet
facet normal -0.000000 0.000000 -1.000000
outer loop
vertex 0.528074 -0.364390 -0.000000
vertex 0.523390 -0.369074 -0.000000
vertex 0.000000 0.000000 0.000000
endloop
endfacet
facet normal 0.000000 0.000000 -1.000000
outer loop
vertex 0.000000 0.000000 0.000000
vertex 0.523390 -0.369074 -0.000000
vertex 0.519591 -0.374500 -0.000000
endloop
endfacet
facet normal 0.000000 0.000000 -1.000000
outer loop
vertex 0.000000 0.000000 0.000000
vertex 0.519591 -0.374500 -0.000000
vertex 0.516792 -0.380503 -0.000000
endloop
endfacet
facet normal 0.000000 0.000000 -1.000000
outer loop
vertex 0.559099 -0.430923 -0.000000
vertex 0.565497 -0.429208 -0.000000
vertex 0.686000 -0.787000 -0.000000
endloop
endfacet
facet normal 0.000000 0.000000 -1.000000
outer loop
vertex 0.686000 -0.787000 -0.000000
vertex 0.565497 -0.429208 -0.000000
vertex 0.571500 -0.426409 -0.000000
endloop
endfacet
facet normal 0.000000 0.000000 -1.000000
outer loop
vertex 0.686000 -0.787000 -0.000000
vertex 0.571500 -0.426409 -0.000000
vertex 0.576926 -0.422610 -0.000000
endloop
endfacet
facet normal 0.000000 0.000000 -1.000000
outer loop
vertex 0.576926 -0.422610 -0.000000
vertex 0.581610 -0.417926 -0.000000
vertex 0.686000 -0.787000 -0.000000
endloop
endfacet
facet normal -0.000000 0.000000 -1.000000
outer loop
vertex 0.686000 -0.787000 -0.000000
vertex 0.581610 -0.417926 -0.000000
vertex 0.585409 -0.412500 -0.000000
endloop
endfacet
facet normal -0.000000 0.000000 -1.000000
outer loop
vertex 0.686000 -0.787000 -0.000000
vertex 0.585409 -0.412500 -0.000000
vertex 0.588208 -0.406497 -0.000000
endloop
endfacet
facet normal 0.000000 0.000000 -1.000000
outer loop
vertex 0.516792 -0.406497 -0.000000
vertex 0.519591 -0.412500 -0.000000
vertex 0.000000 -0.787000 -0.000000
endloop
endfacet
facet normal 0.000000 0.000000 -1.000000
outer loop
vertex 0.000000 -0.787000 -0.000000
vertex 0.519591 -0.412500 -0.000000
vertex 0.523390 -0.417926 -0.000000
endloop
endfacet
facet normal -0.000000 0.000000 -1.000000
outer loop
vertex 0.000000 -0.787000 -0.000000
vertex 0.523390 -0.417926 -0.000000
vertex 0.528074 -0.422610 -0.000000
endloop
endfacet
facet normal 0.000000 0.000000 -1.000000
outer loop
vertex 0.528074 -0.422610 -0.000000
vertex 0.533500 -0.426409 -0.000000
vertex 0.000000 -0.787000 -0.000000
endloop
endfacet
facet normal -0.000000 0.000000 -1.000000
outer loop
vertex 0.000000 -0.787000 -0.000000
vertex 0.533500 -0.426409 -0.000000
vertex 0.539503 -0.429208 -0.000000
endloop
endfacet
facet normal 0.000000 0.000000 -1.000000
outer loop
vertex 0.000000 -0.787000 -0.000000
vertex 0.539503 -0.429208 -0.000000
vertex 0.686000 -0.787000 -0.000000
endloop
endfacet
facet normal 0.000000 0.000000 -1.000000
outer loop
vertex 0.686000 -0.787000 -0.000000
vertex 0.539503 -0.429208 -0.000000
vertex 0.545901 -0.430923 -0.000000
endloop
endfacet
facet normal 0.000000 0.000000 -1.000000
outer loop
vertex 0.686000 -0.787000 -0.000000
vertex 0.545901 -0.430923 -0.000000
vertex 0.552500 -0.431500 -0.000000
endloop
endfacet
facet normal 0.000000 0.000000 -1.000000
outer loop
vertex 0.516792 -0.380503 -0.000000
vertex 0.515077 -0.386901 -0.000000
vertex 0.000000 0.000000 0.000000
endloop
endfacet
facet normal -0.000000 0.000000 -1.000000
outer loop
vertex 0.000000 0.000000 0.000000
vertex 0.515077 -0.386901 -0.000000
vertex 0.514500 -0.393500 -0.000000
endloop
endfacet
facet normal 0.000000 0.000000 -1.000000
outer loop
vertex 0.000000 0.000000 0.000000
vertex 0.514500 -0.393500 -0.000000
vertex 0.000000 -0.787000 -0.000000
endloop
endfacet
facet normal -0.000000 0.000000 -1.000000
outer loop
vertex 0.000000 -0.787000 -0.000000
vertex 0.514500 -0.393500 -0.000000
vertex 0.515077 -0.400099 -0.000000
endloop
endfacet
facet normal -0.000000 0.000000 -1.000000
outer loop
vertex 0.000000 -0.787000 -0.000000
vertex 0.515077 -0.400099 -0.000000
vertex 0.516792 -0.406497 -0.000000
endloop
endfacet
facet normal 0.000000 0.000000 -1.000000
outer loop
vertex 0.588208 -0.406497 -0.000000
vertex 0.589923 -0.400099 -0.000000
vertex 0.686000 -0.787000 -0.000000
endloop
endfacet
facet normal 0.000000 0.000000 -1.000000
outer loop
vertex 0.686000 -0.787000 -0.000000
vertex 0.589923 -0.400099 -0.000000
vertex 0.590500 -0.393500 -0.000000
endloop
endfacet
facet normal -0.000000 0.000000 -1.000000
outer loop
vertex 0.686000 -0.787000 -0.000000
vertex 0.590500 -0.393500 -0.000000
vertex 0.686000 0.000000 0.000000
endloop
endfacet
facet normal 0.000000 0.000000 -1.000000
outer loop
vertex 0.686000 0.000000 0.000000
vertex 0.590500 -0.393500 -0.000000
vertex 0.589923 -0.386901 -0.000000
endloop
endfacet
facet normal -0.000000 0.000000 -1.000000
outer loop
vertex 0.686000 0.000000 0.000000
vertex 0.589923 -0.386901 -0.000000
vertex 0.588208 -0.380503 -0.000000
endloop
endfacet
facet normal 0.000000 -1.000000 0.000000
outer loop
vertex 0.000000 -0.787000 0.152000
vertex 0.000000 -0.787000 -0.000000
vertex 0.216000 -0.787000 0.152000
endloop
endfacet
facet normal 0.000000 -1.000000 0.000000
outer loop
vertex 0.216000 -0.787000 0.152000
vertex 0.000000 -0.787000 -0.000000
vertex 0.686000 -0.787000 -0.000000
endloop
endfacet
facet normal 0.000000 -1.000000 0.000000
outer loop
vertex 0.216000 -0.787000 0.152000
vertex 0.686000 -0.787000 -0.000000
vertex 0.419000 -0.787000 0.272000
endloop
endfacet
facet normal 0.000000 -1.000000 0.000000
outer loop
vertex 0.419000 -0.787000 0.272000
vertex 0.686000 -0.787000 -0.000000
vertex 0.686000 -0.787000 0.272000
endloop
endfacet
facet normal 0.000000 1.000000 0.000000
outer loop
vertex 0.000000 0.000000 0.000000
vertex 0.000000 -0.000000 0.152000
vertex 0.216000 -0.000000 0.152000
endloop
endfacet
facet normal 0.000000 1.000000 0.000000
outer loop
vertex 0.419000 -0.000000 0.272000
vertex 0.686000 -0.000000 0.272000
vertex 0.216000 -0.000000 0.152000
endloop
endfacet
facet normal 0.000000 1.000000 0.000000
outer loop
vertex 0.216000 -0.000000 0.152000
vertex 0.686000 -0.000000 0.272000
vertex 0.686000 0.000000 0.000000
endloop
endfacet
facet normal 0.000000 1.000000 0.000000
outer loop
vertex 0.216000 -0.000000 0.152000
vertex 0.686000 0.000000 0.000000
vertex 0.000000 0.000000 0.000000
endloop
endfacet
facet normal -0.087156 0.996195 0.000000
outer loop
vertex 0.552500 -0.431500 -0.000000
vertex 0.552500 -0.431500 0.272000
vertex 0.559099 -0.430923 -0.000000
endloop
endfacet
facet normal -0.087156 0.996195 0.000000
outer loop
vertex 0.559099 -0.430923 -0.000000
vertex 0.552500 -0.431500 0.272000
vertex 0.559099 -0.430923 0.272000
endloop
endfacet
facet normal -0.258826 0.965924 0.000000
outer loop
vertex 0.559099 -0.430923 -0.000000
vertex 0.559099 -0.430923 0.272000
vertex 0.565497 -0.429208 -0.000000
endloop
endfacet
facet normal -0.258826 0.965924 0.000000
outer loop
vertex 0.565497 -0.429208 -0.000000
vertex 0.559099 -0.430923 0.272000
vertex 0.565497 -0.429208 0.272000
endloop
endfacet
facet normal -0.422610 0.906312 0.000000
outer loop
vertex 0.565497 -0.429208 -0.000000
vertex 0.565497 -0.429208 0.272000
vertex 0.571500 -0.426409 -0.000000
endloop
endfacet
facet normal -0.422610 0.906312 0.000000
outer loop
vertex 0.571500 -0.426409 -0.000000
vertex 0.565497 -0.429208 0.272000
vertex 0.571500 -0.426409 0.272000
endloop
endfacet
facet normal -0.573573 0.819154 0.000000
outer loop
vertex 0.571500 -0.426409 -0.000000
vertex 0.571500 -0.426409 0.272000
vertex 0.576926 -0.422610 -0.000000
endloop
endfacet
facet normal -0.573581 0.819149 0.000000
outer loop
vertex 0.576926 -0.422610 -0.000000
vertex 0.571500 -0.426409 0.272000
vertex 0.576926 -0.422610 0.272000
endloop
endfacet
facet normal -0.707110 0.707104 0.000000
outer loop
vertex 0.576926 -0.422610 -0.000000
vertex 0.576926 -0.422610 0.272000
vertex 0.581610 -0.417926 -0.000000
endloop
endfacet
facet normal -0.707118 0.707096 0.000000
outer loop
vertex 0.581610 -0.417926 -0.000000
vertex 0.576926 -0.422610 0.272000
vertex 0.581610 -0.417926 0.272000
endloop
endfacet
facet normal -0.819145 0.573587 0.000000
outer loop
vertex 0.581610 -0.417926 -0.000000
vertex 0.581610 -0.417926 0.272000
vertex 0.585409 -0.412500 -0.000000
endloop
endfacet
facet normal -0.819137 0.573598 0.000000
outer loop
vertex 0.585409 -0.412500 -0.000000
vertex 0.581610 -0.417926 0.272000
vertex 0.585409 -0.412500 0.272000
endloop
endfacet
facet normal -0.906313 0.422606 0.000000
outer loop
vertex 0.585409 -0.412500 -0.000000
vertex 0.585409 -0.412500 0.272000
vertex 0.588208 -0.406497 -0.000000
endloop
endfacet
facet normal -0.906313 0.422606 0.000000
outer loop
vertex 0.588208 -0.406497 -0.000000
vertex 0.585409 -0.412500 0.272000
vertex 0.588208 -0.406497 0.272000
endloop
endfacet
facet normal -0.965921 0.258836 0.000000
outer loop
vertex 0.588208 -0.406497 -0.000000
vertex 0.588208 -0.406497 0.272000
vertex 0.589923 -0.400099 -0.000000
endloop
endfacet
facet normal -0.965926 0.258820 0.000000
outer loop
vertex 0.589923 -0.400099 -0.000000
vertex 0.588208 -0.406497 0.272000
vertex 0.589923 -0.400099 0.272000
endloop
endfacet
facet normal -0.996195 0.087157 0.000000
outer loop
vertex 0.589923 -0.400099 -0.000000
vertex 0.589923 -0.400099 0.272000
vertex 0.590500 -0.393500 -0.000000
endloop
endfacet
facet normal -0.996195 0.087157 0.000000
outer loop
vertex 0.590500 -0.393500 -0.000000
vertex 0.589923 -0.400099 0.272000
vertex 0.590500 -0.393500 0.272000
endloop
endfacet
facet normal -0.996195 -0.087157 0.000000
outer loop
vertex 0.590500 -0.393500 -0.000000
vertex 0.590500 -0.393500 0.272000
vertex 0.589923 -0.386901 -0.000000
endloop
endfacet
facet normal -0.996194 -0.087157 0.000000
outer loop
vertex 0.589923 -0.386901 -0.000000
vertex 0.590500 -0.393500 0.272000
vertex 0.589923 -0.386901 0.272000
endloop
endfacet
facet normal -0.965925 -0.258820 0.000000
outer loop
vertex 0.589923 -0.386901 -0.000000
vertex 0.589923 -0.386901 0.272000
vertex 0.588208 -0.380503 -0.000000
endloop
endfacet
facet normal -0.965921 -0.258836 0.000000
outer loop
vertex 0.588208 -0.380503 -0.000000
vertex 0.589923 -0.386901 0.272000
vertex 0.588208 -0.380503 0.272000
endloop
endfacet
facet normal -0.906314 -0.422604 0.000000
outer loop
vertex 0.588208 -0.380503 -0.000000
vertex 0.588208 -0.380503 0.272000
vertex 0.585409 -0.374500 -0.000000
endloop
endfacet
facet normal -0.906314 -0.422604 0.000000
outer loop
vertex 0.585409 -0.374500 -0.000000
vertex 0.588208 -0.380503 0.272000
vertex 0.585409 -0.374500 0.272000
endloop
endfacet
facet normal -0.819137 -0.573598 0.000000
outer loop
vertex 0.585409 -0.374500 -0.000000
vertex 0.585409 -0.374500 0.272000
vertex 0.581610 -0.369074 -0.000000
endloop
endfacet
facet normal -0.819145 -0.573587 0.000000
outer loop
vertex 0.581610 -0.369074 -0.000000
vertex 0.585409 -0.374500 0.272000
vertex 0.581610 -0.369074 0.272000
endloop
endfacet
facet normal -0.707116 -0.707098 0.000000
outer loop
vertex 0.581610 -0.369074 -0.000000
vertex 0.581610 -0.369074 0.272000
vertex 0.576926 -0.364390 -0.000000
endloop
endfacet
facet normal -0.707107 -0.707106 0.000000
outer loop
vertex 0.576926 -0.364390 -0.000000
vertex 0.581610 -0.369074 0.272000
vertex 0.576926 -0.364390 0.272000
endloop
endfacet
facet normal -0.573581 -0.819149 0.000000
outer loop
vertex 0.576926 -0.364390 -0.000000
vertex 0.576926 -0.364390 0.272000
vertex 0.571500 -0.360591 -0.000000
endloop
endfacet
facet normal -0.573573 -0.819154 0.000000
outer loop
vertex 0.571500 -0.360591 -0.000000
vertex 0.576926 -0.364390 0.272000
vertex 0.571500 -0.360591 0.272000
endloop
endfacet
facet normal -0.422614 -0.906310 0.000000
outer loop
vertex 0.571500 -0.360591 -0.000000
vertex 0.571500 -0.360591 0.272000
vertex 0.565497 -0.357792 -0.000000
endloop
endfacet
facet normal -0.422614 -0.906310 0.000000
outer loop
vertex 0.565497 -0.357792 -0.000000
vertex 0.571500 -0.360591 0.272000
vertex 0.565497 -0.357792 0.272000
endloop
endfacet
facet normal -0.258826 -0.965924 0.000000
outer loop
vertex 0.565497 -0.357792 -0.000000
vertex 0.565497 -0.357792 0.272000
vertex 0.559099 -0.356077 -0.000000
endloop
endfacet
facet normal -0.258826 -0.965924 0.000000
outer loop
vertex 0.559099 -0.356077 -0.000000
vertex 0.565497 -0.357792 0.272000
vertex 0.559099 -0.356077 0.272000
endloop
endfacet
facet normal -0.087151 -0.996195 0.000000
outer loop
vertex 0.559099 -0.356077 -0.000000
vertex 0.559099 -0.356077 0.272000
vertex 0.552500 -0.355500 -0.000000
endloop
endfacet
facet normal -0.087151 -0.996195 0.000000
outer loop
vertex 0.552500 -0.355500 -0.000000
vertex 0.559099 -0.356077 0.272000
vertex 0.552500 -0.355500 0.272000
endloop
endfacet
facet normal 0.087151 -0.996195 0.000000
outer loop
vertex 0.552500 -0.355500 -0.000000
vertex 0.552500 -0.355500 0.272000
vertex 0.545901 -0.356077 -0.000000
endloop
endfacet
facet normal 0.087151 -0.996195 0.000000
outer loop
vertex 0.545901 -0.356077 -0.000000
vertex 0.552500 -0.355500 0.272000
vertex 0.545901 -0.356077 0.272000
endloop
endfacet
facet normal 0.258826 -0.965924 0.000000
outer loop
vertex 0.545901 -0.356077 -0.000000
vertex 0.545901 -0.356077 0.272000
vertex 0.539503 -0.357792 -0.000000
endloop
endfacet
facet normal 0.258826 -0.965924 0.000000
outer loop
vertex 0.539503 -0.357792 -0.000000
vertex 0.545901 -0.356077 0.272000
vertex 0.539503 -0.357792 0.272000
endloop
endfacet
facet normal 0.422614 -0.906310 0.000000
outer loop
vertex 0.539503 -0.357792 -0.000000
vertex 0.539503 -0.357792 0.272000
vertex 0.533500 -0.360591 -0.000000
endloop
endfacet
facet normal 0.422608 -0.906313 0.000000
outer loop
vertex 0.533500 -0.360591 -0.000000
vertex 0.539503 -0.357792 0.272000
vertex 0.533500 -0.360591 0.272000
endloop
endfacet
facet normal 0.573589 -0.819143 0.000000
outer loop
vertex 0.533500 -0.360591 -0.000000
vertex 0.533500 -0.360591 0.272000
vertex 0.528074 -0.364390 -0.000000
endloop
endfacet
facet normal 0.573581 -0.819149 0.000000
outer loop
vertex 0.528074 -0.364390 -0.000000
vertex 0.533500 -0.360591 0.272000
vertex 0.528074 -0.364390 0.272000
endloop
endfacet
facet normal 0.707099 -0.707115 0.000000
outer loop
vertex 0.528074 -0.364390 -0.000000
vertex 0.528074 -0.364390 0.272000
vertex 0.523390 -0.369074 -0.000000
endloop
endfacet
facet normal 0.707099 -0.707114 0.000000
outer loop
vertex 0.523390 -0.369074 -0.000000
vertex 0.528074 -0.364390 0.272000
vertex 0.523390 -0.369074 0.272000
endloop
endfacet
facet normal 0.819160 -0.573565 0.000000
outer loop
vertex 0.523390 -0.369074 -0.000000
vertex 0.523390 -0.369074 0.272000
vertex 0.519591 -0.374500 -0.000000
endloop
endfacet
facet normal 0.819145 -0.573587 0.000000
outer loop
vertex 0.519591 -0.374500 -0.000000
vertex 0.523390 -0.369074 0.272000
vertex 0.519591 -0.374500 0.272000
endloop
endfacet
facet normal 0.906308 -0.422618 0.000000
outer loop
vertex 0.519591 -0.374500 -0.000000
vertex 0.519591 -0.374500 0.272000
vertex 0.516792 -0.380503 -0.000000
endloop
endfacet
facet normal 0.906308 -0.422618 0.000000
outer loop
vertex 0.516792 -0.380503 -0.000000
vertex 0.519591 -0.374500 0.272000
vertex 0.516792 -0.380503 0.272000
endloop
endfacet
facet normal 0.965925 -0.258820 0.000000
outer loop
vertex 0.516792 -0.380503 -0.000000
vertex 0.516792 -0.380503 0.272000
vertex 0.515077 -0.386901 -0.000000
endloop
endfacet
facet normal 0.965926 -0.258820 0.000000
outer loop
vertex 0.515077 -0.386901 -0.000000
vertex 0.516792 -0.380503 0.272000
vertex 0.515077 -0.386901 0.272000
endloop
endfacet
facet normal 0.996195 -0.087157 0.000000
outer loop
vertex 0.515077 -0.386901 -0.000000
vertex 0.515077 -0.386901 0.272000
vertex 0.514500 -0.393500 -0.000000
endloop
endfacet
facet normal 0.996196 -0.087141 0.000000
outer loop
vertex 0.514500 -0.393500 -0.000000
vertex 0.515077 -0.386901 0.272000
vertex 0.514500 -0.393500 0.272000
endloop
endfacet
facet normal 0.996196 0.087140 0.000000
outer loop
vertex 0.514500 -0.393500 -0.000000
vertex 0.514500 -0.393500 0.272000
vertex 0.515077 -0.400099 -0.000000
endloop
endfacet
facet normal 0.996195 0.087157 0.000000
outer loop
vertex 0.515077 -0.400099 -0.000000
vertex 0.514500 -0.393500 0.272000
vertex 0.515077 -0.400099 0.272000
endloop
endfacet
facet normal 0.965925 0.258820 0.000000
outer loop
vertex 0.515077 -0.400099 -0.000000
vertex 0.515077 -0.400099 0.272000
vertex 0.516792 -0.406497 -0.000000
endloop
endfacet
facet normal 0.965926 0.258820 0.000000
outer loop
vertex 0.516792 -0.406497 -0.000000
vertex 0.515077 -0.400099 0.272000
vertex 0.516792 -0.406497 0.272000
endloop
endfacet
facet normal 0.906307 0.422620 0.000000
outer loop
vertex 0.516792 -0.406497 -0.000000
vertex 0.516792 -0.406497 0.272000
vertex 0.519591 -0.412500 -0.000000
endloop
endfacet
facet normal 0.906307 0.422620 0.000000
outer loop
vertex 0.519591 -0.412500 -0.000000
vertex 0.516792 -0.406497 0.272000
vertex 0.519591 -0.412500 0.272000
endloop
endfacet
facet normal 0.819145 0.573587 0.000000
outer loop
vertex 0.519591 -0.412500 -0.000000
vertex 0.519591 -0.412500 0.272000
vertex 0.523390 -0.417926 -0.000000
endloop
endfacet
facet normal 0.819160 0.573565 0.000000
outer loop
vertex 0.523390 -0.417926 -0.000000
vertex 0.519591 -0.412500 0.272000
vertex 0.523390 -0.417926 0.272000
endloop
endfacet
facet normal 0.707101 0.707112 0.000000
outer loop
vertex 0.523390 -0.417926 -0.000000
vertex 0.523390 -0.417926 0.272000
vertex 0.528074 -0.422610 -0.000000
endloop
endfacet
facet normal 0.707101 0.707112 0.000000
outer loop
vertex 0.528074 -0.422610 -0.000000
vertex 0.523390 -0.417926 0.272000
vertex 0.528074 -0.422610 0.272000
endloop
endfacet
facet normal 0.573581 0.819149 0.000000
outer loop
vertex 0.528074 -0.422610 -0.000000
vertex 0.528074 -0.422610 0.272000
vertex 0.533500 -0.426409 -0.000000
endloop
endfacet
facet normal 0.573589 0.819143 0.000000
outer loop
vertex 0.533500 -0.426409 -0.000000
vertex 0.528074 -0.422610 0.272000
vertex 0.533500 -0.426409 0.272000
endloop
endfacet
facet normal 0.422604 0.906314 0.000000
outer loop
vertex 0.533500 -0.426409 -0.000000
vertex 0.533500 -0.426409 0.272000
vertex 0.539503 -0.429208 -0.000000
endloop
endfacet
facet normal 0.422610 0.906312 0.000000
outer loop
vertex 0.539503 -0.429208 -0.000000
vertex 0.533500 -0.426409 0.272000
vertex 0.539503 -0.429208 0.272000
endloop
endfacet
facet normal 0.258826 0.965924 0.000000
outer loop
vertex 0.539503 -0.429208 -0.000000
vertex 0.539503 -0.429208 0.272000
vertex 0.545901 -0.430923 -0.000000
endloop
endfacet
facet normal 0.258826 0.965924 0.000000
outer loop
vertex 0.545901 -0.430923 -0.000000
vertex 0.539503 -0.429208 0.272000
vertex 0.545901 -0.430923 0.272000
endloop
endfacet
facet normal 0.087156 0.996195 0.000000
outer loop
vertex 0.545901 -0.430923 -0.000000
vertex 0.545901 -0.430923 0.272000
vertex 0.552500 -0.431500 -0.000000
endloop
endfacet
facet normal 0.087156 0.996195 0.000000
outer loop
vertex 0.552500 -0.431500 -0.000000
vertex 0.545901 -0.430923 0.272000
vertex 0.552500 -0.431500 0.272000
endloop
endfacet
endsolid wall1
